<?xml version="1.0" standalone="no"?>
<!DOCTYPE svg PUBLIC "-//W3C//DTD SVG 1.1//EN" "http://www.w3.org/Graphics/SVG/1.1/DTD/svg11.dtd" >
<svg xmlns="http://www.w3.org/2000/svg" xmlns:xlink="http://www.w3.org/1999/xlink" version="1.1">
<metadata>
Created by FontForge 20201107 at Mon Mar 25 12:06:02 2019
 By Unknown
Copyright (c) 2017 by The Temporary State. All rights reserved.
</metadata>
<defs>
<font id="Panama-Regular" horiz-adv-x="520" >
  <font-face 
    font-family="Panama"
    font-weight="400"
    font-stretch="normal"
    units-per-em="1000"
    panose-1="2 0 0 3 0 0 0 0 0 0"
    ascent="750"
    descent="-250"
    x-height="460"
    cap-height="700"
    bbox="-50 -321 1120 925"
    underline-thickness="20"
    underline-position="-180"
    unicode-range="U+000D-E00A"
  />
<missing-glyph horiz-adv-x="680" 
d="M80 700h520v-700h-520v700zM105 675v-650h470v650h-470zM339 339l-128 -128l-18 17l129 129l-129 129l18 17l128 -129l130 130l17 -18l-129 -129l129 -129l-17 -18z" />
    <glyph glyph-name=".notdef" horiz-adv-x="680" 
d="M80 700h520v-700h-520v700zM105 675v-650h470v650h-470zM339 339l-128 -128l-18 17l129 129l-129 129l18 17l128 -129l130 130l17 -18l-129 -129l129 -129l-17 -18z" />
    <glyph glyph-name=".null" horiz-adv-x="0" 
 />
    <glyph glyph-name="nonmarkingreturn" horiz-adv-x="333" 
 />
    <glyph glyph-name="NULL" horiz-adv-x="0" 
 />
    <glyph glyph-name="CR.001" unicode="&#xd;" horiz-adv-x="300" 
 />
    <glyph glyph-name="space" unicode=" " horiz-adv-x="300" 
 />
    <glyph glyph-name="exclam" unicode="!" horiz-adv-x="280" 
d="M145 195h-10l-20 245q-15 165 -15 215q0 60 40 60t40 -60q0 -55 -15 -215zM104 4q-14 15 -14 36t14 35q15 15 36 15t35 -15q15 -14 15 -35t-15 -36q-14 -14 -35 -14t-36 14z" />
    <glyph glyph-name="quotedbl" unicode="&#x22;" horiz-adv-x="340" 
d="M140 700l-30 -245h-10l-30 245h70zM270 700l-30 -245h-10l-30 245h70z" />
    <glyph glyph-name="numbersign" unicode="#" horiz-adv-x="570" 
d="M212 420h-118v25h126l74 255h26l-75 -255h135l74 255h26l-75 -255h115v-25h-122l-36 -125h114v-25h-122l-78 -270h-26l78 270h-134l-78 -270h-26l78 270h-118v25h126zM372 420h-134l-36 -125h134z" />
    <glyph glyph-name="dollar" unicode="$" horiz-adv-x="490" 
d="M272 712v138h25v-143q37 -13 47 -23l6 -4l48 30l37 -210l-20 -5q-1 6 -17 50q-33 91 -101 131v-303q75 -49 111.5 -96t36.5 -107q0 -75 -40.5 -122t-107.5 -59v-139h-25v136q-4 -1 -17 -1q-21 0 -38 3v-138h-25v145q-38 11 -55 25l-7 5l-48 -35l-37 210l20 5l5 -15
q5 -14 14 -35q38 -90 108 -130v339q-71 46 -104 85.5t-33 90.5q0 66 37.5 110t99.5 59v141h25v-136q5 1 23 1q17 0 32 -3zM390 145q0 78 -93 149v-279q93 24 93 130zM272 10v302l-55 36v-333q22 -5 38 -5h17zM217 688v-263q2 -1 55 -35v296q-17 4 -32 4q-1 0 -23 -2z
M110 565q0 -64 82 -122v238q-82 -28 -82 -116z" />
    <glyph glyph-name="percent" unicode="%" horiz-adv-x="610" 
d="M75 0l431 700h29l-431 -700h-29zM85 510q-35 37 -35 85q0 49 35 84q34 36 85 36q50 0 85 -36q35 -35 35 -84q0 -48 -35 -85q-35 -35 -85 -35t-85 35zM103 662q-28 -28 -28 -67t28 -67t67 -28t67 28t28 67t-28 67t-67 28t-67 -28zM355 20q-35 37 -35 85q0 49 35 84
q35 36 85 36t85 -36q35 -35 35 -84q0 -48 -35 -85q-35 -35 -85 -35t-85 35zM373 172q-28 -28 -28 -67t28 -67t67 -28t67 28t28 67t-28 67t-67 28t-67 -28z" />
    <glyph glyph-name="ampersand" unicode="&#x26;" horiz-adv-x="575" 
d="M379 460h161v-20q-39 0 -53.5 -20t-24.5 -75q-29 -159 -66 -238q53 -62 79 -62q35 0 35 55h20q0 -115 -65 -115q-41 0 -101 67q-49 -67 -129 -67q-85 0 -140 55t-55 150q0 68 30 120.5t91 106.5q-26 83 -26 133q0 75 35 120t95 45q46 0 75.5 -27.5t29.5 -67.5
q0 -50 -47 -97q-24 -22 -53 -45l-52 -44q58 -170 162 -306q31 72 57 221q15 91 -53 91h-5v20zM250 20q56 0 97 51q-106 129 -175 315q-62 -79 -62 -181q0 -90 39 -137.5t101 -47.5zM190 575q0 -49 20 -117q57 49 81 82.5t24 74.5q0 36 -14.5 55.5t-38.5 19.5
q-31 0 -51.5 -30.5t-20.5 -84.5z" />
    <glyph glyph-name="quotesingle" unicode="'" horiz-adv-x="210" 
d="M140 700l-30 -245h-10l-30 245h70z" />
    <glyph glyph-name="parenleft" unicode="(" horiz-adv-x="390" 
d="M373 843l17 7v-15l-14 -8q-38 -22 -83 -70q-23 -25 -51 -69q-58 -90 -83 -215q-21 -110 -10.5 -231t44.5 -198q60 -146 183 -232l14 -7v-15q-2 0 -4.5 1.5t-6.5 3t-7 2.5q-8 4 -43 25q-38 23 -62 44q-30 27 -65 69q-74 92 -105 223q-26 115 -12 245t56 206
q60 112 127 165q69 55 105 69z" />
    <glyph glyph-name="parenright" unicode=")" horiz-adv-x="390" 
d="M14 828l-14 7v15q2 0 17 -7q49 -21 105 -69q32 -27 65 -69q75 -92 105 -224q27 -114 13.5 -244t-57.5 -206q-58 -111 -126 -165q-69 -55 -105 -69l-17 -7v15l14 8q38 22 83 70q23 25 51 69q58 90 83 215q22 109 11 231.5t-46 196.5q-19 50 -45 92t-56 71.5t-44 41.5
t-37 28z" />
    <glyph glyph-name="asterisk" unicode="*" horiz-adv-x="476" 
d="M56 645q9 16 28.5 18.5t34.5 -8.5q9 -5 37.5 -38t71.5 -59q-1 53 -16 90q-14 37 -14 52q0 22 10.5 36t29.5 14t29.5 -14t10.5 -36q0 -15 -14 -52q-15 -37 -16 -90q43 26 71.5 59t37.5 38q15 11 34.5 8.5t28.5 -18.5q17 -35 -23 -60q-5 -3 -52.5 -14t-85.5 -31
q51 -26 87 -32q39 -6 51 -13q40 -25 23 -60q-9 -16 -28.5 -18.5t-34.5 8.5q-9 5 -37.5 38t-71.5 59q1 -53 16 -92q14 -37 14 -50q0 -22 -10.5 -36t-29.5 -14t-29.5 14t-10.5 36q0 13 14 50q15 39 16 92q-43 -26 -71.5 -59t-37.5 -38q-15 -11 -34.5 -8.5t-28.5 18.5
q-17 35 23 60q11 7 50 13q36 6 87 32q-49 26 -86 32q-39 6 -51 13q-40 25 -23 60z" />
    <glyph glyph-name="plus" unicode="+" horiz-adv-x="530" 
d="M252 345h-182v25h182v197h25v-197h183v-25h-183v-198h-25v198z" />
    <glyph glyph-name="comma" unicode="," horiz-adv-x="295" 
d="M130 90q40 0 63 -35q22 -34 22 -75q0 -42 -17 -77.5t-33.5 -51.5t-34.5 -27l-9 -5l-10 15l20 14q13 8 33 39q21 30 21 63q0 45 -30 45q-1 0 -10.5 -2.5t-14.5 -2.5q-21 0 -35.5 14.5t-14.5 35.5t14.5 35.5t35.5 14.5z" />
    <glyph glyph-name="hyphen" unicode="-" horiz-adv-x="460" 
d="M390 255h-320v25h320v-25z" />
    <glyph glyph-name="period" unicode="." horiz-adv-x="260" 
d="M94 4q-14 15 -14 36t14 35q15 15 36 15t35 -15q15 -14 15 -35t-15 -36q-14 -14 -35 -14t-36 14z" />
    <glyph glyph-name="slash" unicode="/" 
d="M30 0l431 700h29l-431 -700h-29z" />
    <glyph glyph-name="zero" unicode="0" 
d="M103 82q-63 97 -63 268q0 170 63 267q63 98 157 98t157 -98q63 -97 63 -267q0 -171 -63 -268t-157 -97t-157 97zM152 603q-42 -85 -42 -253q0 -167 42 -254q44 -86 108 -86q65 0 107 86q43 86 43 254t-43 253q-42 87 -107 87q-64 0 -108 -87zM224 314q-14 15 -14 36
t14 35q15 15 36 15t35 -15q15 -14 15 -35t-15 -36q-14 -14 -35 -14t-36 14z" />
    <glyph glyph-name="one" unicode="1" horiz-adv-x="400" 
d="M215 715h15v-620q0 -46 15 -61q16 -14 70 -14h55v-20h-340v20h55q54 0 70 14q15 15 15 61v495q0 30 -6 38q-6 7 -39 7h-55v20h15q61 0 88.5 12.5t41.5 47.5z" />
    <glyph glyph-name="two" unicode="2" 
d="M30 0v10l147 164q132 147 169 217q39 71 39 149q0 67 -39.5 108.5t-105.5 41.5q-67 0 -107 -38q-38 -38 -38 -77q0 -22 9.5 -35.5t20.5 -18t20.5 -15.5t9.5 -29t-12 -30t-30 -12q-30 0 -49 27t-19 73q0 73 57 126q59 54 143 54t147 -51q63 -50 63 -124q0 -69 -40 -125
q-39 -57 -220 -259l-86 -96h247q46 0 66 13q22 13 43 62l15 -5l-31 -130h-419z" />
    <glyph glyph-name="three" unicode="3" horiz-adv-x="515" 
d="M245 715q100 0 155 -52q55 -51 55 -123q0 -37 -14 -67.5t-35.5 -48.5t-40.5 -28t-35 -14l-15 -4v-5q19 -2 54 -19q30 -15 47 -32q22 -20 38 -57t16 -80q0 -89 -63 -144q-62 -56 -162 -56q-88 0 -144 49q-56 50 -56 116q0 46 18 70.5t45 24.5q20 0 33.5 -11.5t13.5 -30.5
q0 -18 -9.5 -28.5t-20.5 -14.5t-20.5 -15.5t-9.5 -29.5q0 -38 40 -72q41 -33 110 -33q71 0 113 48.5t42 126.5t-42 126.5t-113 48.5h-70v25h70q65 0 105 41.5t40 108.5t-41 111t-104 44q-62 0 -101 -28.5t-39 -66.5q0 -18 9.5 -29.5t20.5 -15.5t20.5 -14.5t9.5 -28.5
q0 -19 -13.5 -30.5t-33.5 -11.5q-26 0 -44.5 23.5t-18.5 66.5q0 64 56 112q55 48 134 48z" />
    <glyph glyph-name="four" unicode="4" horiz-adv-x="500" 
d="M325 715h15v-490h130v-30h-130v-110q0 -39 12.5 -52t52.5 -13h5v-20h-200v20h5q40 0 52.5 13t12.5 52v110h-250v15zM280 589l-213 -364h213v364z" />
    <glyph glyph-name="five" unicode="5" horiz-adv-x="515" 
d="M455 740l-24 -100h-312l-26 -253q59 78 157 78q88 0 154 -63q66 -62 66 -177q0 -106 -64 -173q-63 -67 -161 -67q-88 0 -144 49q-56 50 -56 116q0 46 18 70.5t45 24.5q20 0 33.5 -11.5t13.5 -30.5q0 -18 -9.5 -28.5t-20.5 -14.5t-20.5 -15.5t-9.5 -29.5q0 -38 40 -72
q41 -33 110 -33q72 0 113.5 57t41.5 153t-45.5 152.5t-123.5 57.5q-52 0 -87 -23.5t-50 -48.5l-5 -8l-25 5l36 345h238q52 0 72.5 7t34.5 33h10z" />
    <glyph glyph-name="six" unicode="6" 
d="M280 690q-74 0 -119 -98q-45 -100 -46 -267q58 90 160 90q89 0 144 -58q56 -59 56 -157q0 -88 -61 -152q-60 -63 -149 -63q-102 0 -161 85.5t-59 254.5q0 165 65 278q66 112 175 112q75 0 122 -46q48 -47 48 -99q0 -26 -12.5 -43t-31.5 -17q-18 0 -29.5 12.5t-11.5 31.5
q0 8 5 26.5t5 24.5q0 12 -3.5 24t-12.5 27t-31 24.5t-53 9.5zM265 390q-93 0 -150 -100q2 -148 41.5 -214t118.5 -66q54 0 92 53t38 137q0 89 -38.5 139.5t-101.5 50.5z" />
    <glyph glyph-name="seven" unicode="7" horiz-adv-x="510" 
d="M35 570l31 130h409v-10l-24 -34q-13 -22 -51 -93q-38 -72 -66 -142q-28 -71 -54 -176q-23 -101 -25 -202q0 -58 -36 -58t-38 56q0 30 4 49q14 75 42 158q25 74 61 151q61 127 112 210l20 31h-261q-45 0 -67 -13q-22 -14 -42 -62z" />
    <glyph glyph-name="eight" unicode="8" horiz-adv-x="510" 
d="M40 175q0 89 65 142q54 43 102 62q-67 39 -99.5 79t-32.5 92q0 78 55 121q56 44 125 44q70 0 125 -40t55 -110t-65 -115q-46 -33 -82 -47q25 -14 54 -32q18 -11 47 -34q31 -24 43 -42q38 -51 38 -110q0 -95 -65 -148q-64 -52 -155 -52q-82 0 -146 51t-64 139zM415 160
q0 69 -55 117q-39 35 -118 81l-16 9q-21 -11 -49 -34q-21 -18 -48 -64q-24 -43 -24 -94q0 -83 45 -124q47 -41 110 -41q65 0 109 37q46 37 46 113zM130 570q0 -46 33 -80.5t108 -77.5q104 62 104 153q0 58 -35 91.5t-90 33.5q-52 0 -86 -34t-34 -86z" />
    <glyph glyph-name="nine" unicode="9" 
d="M240 10q73 0 118 97q46 99 47 267q-60 -89 -160 -89q-89 0 -144 58q-56 59 -56 157q0 88 60 151q61 64 150 64q102 0 161 -85.5t59 -254.5q0 -165 -66 -278q-64 -112 -174 -112q-75 0 -122 46q-48 47 -48 99q0 26 12.5 43t31.5 17q18 0 29.5 -12.5t11.5 -31.5
q0 -8 -5 -26.5t-5 -24.5q0 -12 3.5 -24t12.5 -27t31 -24.5t53 -9.5zM255 310q92 0 150 100q-3 147 -42.5 213.5t-117.5 66.5q-54 0 -92 -53t-38 -137q0 -89 38.5 -139.5t101.5 -50.5z" />
    <glyph glyph-name="colon" unicode=":" horiz-adv-x="260" 
d="M94 4q-14 15 -14 36t14 35q15 15 36 15t35 -15q15 -14 15 -35t-15 -36q-14 -14 -35 -14t-36 14zM94 374q-14 15 -14 36t14 35q15 15 36 15t35 -15q15 -14 15 -35t-15 -36q-14 -14 -35 -14t-36 14z" />
    <glyph glyph-name="semicolon" unicode=";" horiz-adv-x="280" 
d="M94 374q-14 15 -14 36t14 35q15 15 36 15t35 -15q15 -14 15 -35t-15 -36q-14 -14 -35 -14t-36 14zM130 90q40 0 63 -35q22 -34 22 -75q0 -42 -17 -77.5t-33.5 -51.5t-34.5 -27l-9 -5l-10 15l20 14q13 8 33 39q21 30 21 63q0 45 -30 45q-1 0 -10.5 -2.5t-14.5 -2.5
q-21 0 -35.5 14.5t-14.5 35.5t14.5 35.5t35.5 14.5z" />
    <glyph glyph-name="less" unicode="&#x3c;" horiz-adv-x="455" 
d="M345 127l-17 -18l-248 248l248 248l17 -18l-230 -230z" />
    <glyph glyph-name="equal" unicode="=" horiz-adv-x="530" 
d="M460 280h-390v25h390v-25zM460 410h-390v25h390v-25z" />
    <glyph glyph-name="greater" unicode="&#x3e;" horiz-adv-x="455" 
d="M110 587l17 18l248 -248l-248 -248l-17 18l230 230z" />
    <glyph glyph-name="question" unicode="?" horiz-adv-x="490" 
d="M204 4q-14 15 -14 36t14 35q15 15 36 15t35 -15q15 -14 15 -35t-15 -36q-14 -14 -35 -14t-36 14zM240 195v-10h-20v10q0 72 53 138q3 4 16 20.5t17.5 22t15.5 21.5t15.5 25.5t12.5 26t11 30t6 31t3 35.5q0 63 -39 104q-38 41 -96 41q-62 0 -99 -34q-36 -33 -36 -71
q0 -18 9.5 -29.5t20.5 -15.5t20.5 -14.5t9.5 -28.5q0 -19 -13.5 -30.5t-33.5 -11.5q-26 0 -44.5 23.5t-18.5 66.5q0 69 53 119q54 51 132 51q90 0 147 -51q58 -49 58 -129q0 -79 -71 -148q-2 -2 -27.5 -26t-32 -31t-25 -28.5t-24.5 -34.5t-13 -33t-7 -39z" />
    <glyph glyph-name="at" unicode="@" horiz-adv-x="590" 
d="M284 10q43 0 67 65t24 155t-24 155t-67 65q-42 0 -61 -64q-18 -64 -18 -156t18 -156q19 -64 61 -64zM525 230q0 177 -68 304q-67 126 -162 126q-96 0 -163 -126q-67 -125 -67 -304t67 -304q67 -126 163 -126q45 0 86.5 32t72.5 89l21 -13q-75 -133 -180 -133
q-69 0 -128 61t-93 166q-34 103 -34 228t34 228q34 105 93 166t128 61q67 3 127 -59.5t94.5 -169t33.5 -226.5q0 -116 -28.5 -180.5t-71.5 -64.5q-30 0 -47.5 25t-17.5 70v5h-5q-3 -17 -12 -35q-31 -65 -88 -65t-96 69t-39 176q0 98 39 172q40 73 96 73q49 0 75.5 -40.5
t32.5 -80.5l2 -14h5l19 125h16v-365q0 -85 30 -85q23 0 44 62q21 61 21 153z" />
    <glyph glyph-name="A" unicode="A" horiz-adv-x="500" 
d="M95 105l147 605h20l149 -613q12 -47 26.5 -62t52.5 -15v-20h-185v20h5q35 0 44 14t-1 51l-37 150h-164l-32 -133q-13 -40 -2 -61t52 -21h5v-20h-165v20q39 0 57 19.5t28 65.5zM310 260l-76 313l-76 -313h152z" />
    <glyph glyph-name="B" unicode="B" horiz-adv-x="545" 
d="M255 0h-215v20h5q40 0 52.5 13t12.5 52v530q0 39 -12.5 52t-52.5 13h-5v20h215q102 0 161 -46t59 -119q0 -38 -14.5 -67.5t-37.5 -46.5t-41 -26t-37 -14l-15 -3v-5q18 -2 57 -22q31 -15 50 -31q24 -20 41 -54.5t17 -73.5q0 -88 -64.5 -140t-175.5 -52zM255 360h-85v-275
q0 -34 9.5 -47t35.5 -13h40q78 0 124 42.5t46 124.5q0 78 -49 123q-48 45 -121 45zM255 675h-40q-26 0 -35.5 -13t-9.5 -47v-230h85q63 0 109 38q46 39 46 107q0 67 -43.5 106t-111.5 39z" />
    <glyph glyph-name="C" unicode="C" horiz-adv-x="480" 
d="M110 350q0 -159 45 -244.5t115 -85.5q36 0 64.5 17t45 43.5t25 49t12.5 42.5l3 18l20 -5q-2 -23 -21 -70q-14 -35 -31 -61q-20 -29 -54.5 -49t-73.5 -20q-93 0 -157 99q-63 99 -63 266t63 266q64 99 157 99q25 0 49 -8t35 -18l11 -9l48 30l37 -210l-20 -5q-10 37 -23 67
q-12 31 -31 60t-47.5 48.5t-58.5 19.5q-64 0 -107 -90q-43 -87 -43 -250z" />
    <glyph glyph-name="D" unicode="D" horiz-adv-x="545" 
d="M215 0h-175v20h5q40 0 52.5 13t12.5 52v530q0 39 -12.5 52t-52.5 13h-5v20h175q125 0 208 -92q82 -91 82 -258t-82 -258q-83 -92 -208 -92zM215 675q-26 0 -35.5 -13t-9.5 -47v-530q0 -34 9.5 -47t35.5 -13q93 0 156 80q64 80 64 245t-64 244q-65 81 -156 81z" />
    <glyph glyph-name="E" unicode="E" horiz-adv-x="530" 
d="M485 160l-37 -160h-408v20h5q40 0 52.5 13t12.5 52v530q0 39 -12.5 52t-52.5 13h-5v20h398l37 -160l-20 -5q-42 140 -160 140h-60q-39 0 -52 -12t-13 -48v-245h70q43 0 64 15.5t21 54.5v5h20v-175h-20v5q0 39 -21 54.5t-64 15.5h-70v-260q0 -36 13 -48t52 -12h70
q118 0 160 140z" />
    <glyph glyph-name="F" unicode="F" horiz-adv-x="505" 
d="M40 680v20h393l37 -160l-20 -5q-42 140 -160 140h-55q-39 0 -52 -12t-13 -48v-245h55q43 0 64 15.5t21 54.5v5h20v-175h-20v5q0 39 -21 54.5t-64 15.5h-55v-260q0 -39 12.5 -52t52.5 -13h5v-20h-200v20h5q40 0 52.5 13t12.5 52v530q0 39 -12.5 52t-52.5 13h-5z" />
    <glyph glyph-name="G" unicode="G" 
d="M430 285v-285h-20l-25 90q-2 -10 -18 -37q-43 -68 -107 -68q-93 0 -157 99q-63 99 -63 266t63 266q64 99 157 99q25 0 49 -8t35 -18l11 -9l48 30l37 -210l-20 -5q-10 37 -23 67q-12 31 -31 60t-47.5 48.5t-58.5 19.5q-64 0 -107 -90q-43 -87 -43 -250q0 -159 45 -244.5
t115 -85.5q31 0 56.5 21t35.5 47l8 22v175q0 39 -12.5 52t-52.5 13h-5v20h200v-20h-5q-40 0 -52.5 -13t-12.5 -52z" />
    <glyph glyph-name="H" unicode="H" horiz-adv-x="560" 
d="M450 615v-530q0 -39 12.5 -52t52.5 -13h5v-20h-200v20h5q40 0 52.5 13t12.5 52v260h-220v-260q0 -39 12.5 -52t52.5 -13h5v-20h-200v20h5q40 0 52.5 13t12.5 52v530q0 39 -12.5 52t-52.5 13h-5v20h200v-20h-5q-40 0 -52.5 -13t-12.5 -52v-245h220v245q0 39 -12.5 52
t-52.5 13h-5v20h200v-20h-5q-40 0 -52.5 -13t-12.5 -52z" />
    <glyph glyph-name="I" unicode="I" horiz-adv-x="380" 
d="M350 0h-320v20h45q54 0 70 14q15 15 15 61v510q0 47 -15 60q-15 15 -70 15h-45v20h320v-20h-45q-55 0 -70 -15q-15 -13 -15 -60v-510q0 -46 15 -61q16 -14 70 -14h45v-20z" />
    <glyph glyph-name="J" unicode="J" horiz-adv-x="490" 
d="M211 700h269v-20h-40q-40 0 -52.5 -13t-12.5 -52v-395q0 -113 -47.5 -174t-132.5 -61q-68 0 -114 40t-46 110q0 43 18.5 66.5t44.5 23.5q20 0 33.5 -11.5t13.5 -30.5q0 -18 -9.5 -28.5t-20.5 -14.5t-20.5 -15.5t-9.5 -29.5q0 -36 29.5 -60.5t75.5 -24.5q125 0 125 195
v410q0 39 -12.5 52t-52.5 13h-39v20z" />
    <glyph glyph-name="K" unicode="K" horiz-adv-x="540" 
d="M340 680h-5v20h170v-20q-37 0 -64 -21t-56 -64l-95 -146l150 -364q15 -37 30.5 -51t44.5 -14h5v-20h-170v20h5q25 0 29.5 13.5t-9.5 51.5l-124 304l-81 -125v-179q0 -39 12.5 -52t52.5 -13h5v-20h-200v20h5q40 0 52.5 13t12.5 52v530q0 39 -12.5 52t-52.5 13h-5v20h200
v-20h-5q-40 0 -52.5 -13t-12.5 -52v-304l187 287q17 25 23 41.5t-2.5 28.5t-37.5 12z" />
    <glyph glyph-name="L" unicode="L" horiz-adv-x="505" 
d="M470 160l-37 -160h-393v20h5q40 0 52.5 13t12.5 52v530q0 39 -12.5 52t-52.5 13h-5v20h200v-20h-5q-40 0 -52.5 -13t-12.5 -52v-530q0 -36 13 -48t52 -12h55q118 0 160 140z" />
    <glyph glyph-name="M" unicode="M" horiz-adv-x="570" 
d="M40 700h129l118 -564l114 564h129v-20q-40 0 -52.5 -13t-12.5 -52v-530q0 -39 12.5 -52t52.5 -13v-20h-190v20q40 0 52.5 13t12.5 52v510l-120 -595h-20l-130 595v-490q0 -43 15.5 -64t54.5 -21v-20h-165v20q39 0 54.5 21t15.5 64v490q0 43 -15.5 64t-54.5 21v20z" />
    <glyph glyph-name="N" unicode="N" horiz-adv-x="525" 
d="M430 595v-595h-20l-280 615v-510q0 -43 15.5 -64t54.5 -21h5v-20h-175v20h5q39 0 54.5 21t15.5 64v490q0 43 -15.5 64t-54.5 21h-5v20h128l247 -543v438q0 43 -15.5 64t-54.5 21h-5v20h175v-20h-5q-39 0 -54.5 -21t-15.5 -64z" />
    <glyph glyph-name="O" unicode="O" 
d="M103 82q-63 97 -63 268q0 170 63 267q63 98 157 98t157 -98q63 -97 63 -267q0 -171 -63 -268t-157 -97t-157 97zM152 603q-42 -85 -42 -253q0 -167 42 -254q44 -86 108 -86q65 0 107 86q43 86 43 254t-43 253q-42 87 -107 87q-64 0 -108 -87z" />
    <glyph glyph-name="P" unicode="P" horiz-adv-x="525" 
d="M225 345h-55v-260q0 -39 12.5 -52t52.5 -13h5v-20h-200v20h5q40 0 52.5 13t12.5 52v530q0 39 -12.5 52t-52.5 13h-5v20h185q113 0 187 -44q73 -43 73 -131t-74 -135q-73 -45 -186 -45zM225 675h-10q-26 0 -35.5 -13t-9.5 -47v-245h55q79 0 135 36q55 37 55 119
q0 81 -54.5 115.5t-135.5 34.5z" />
    <glyph glyph-name="Q" unicode="Q" horiz-adv-x="525" 
d="M480 350q0 -115 -30.5 -199.5t-84.5 -127.5q37 -73 70 -73q19 0 29.5 15t10.5 35h20q0 -44 -19 -72t-51 -28q-59 0 -106 96q-31 -11 -59 -11q-94 0 -157 97t-63 268q0 170 63 267q63 98 157 98t157 -98q63 -97 63 -267zM110 350q0 -152 36 -237q4 31 23 51.5t51 20.5
q37 0 65 -30t61 -95q64 88 64 290q0 163 -41.5 251.5t-108.5 88.5t-108.5 -88.5t-41.5 -251.5zM260 10q27 0 46 13l-19 43q-11 24 -19 39q-29 50 -58 50q-19 0 -32 -15.5t-13 -39.5q0 -38 29 -64t66 -26z" />
    <glyph glyph-name="R" unicode="R" horiz-adv-x="535" 
d="M215 345h-45v-260q0 -39 12.5 -52t52.5 -13h5v-20h-200v20h5q40 0 52.5 13t12.5 52v530q0 39 -12.5 52t-52.5 13h-5v20h175q109 0 182 -44q73 -43 73 -131q0 -64 -40.5 -106.5t-111.5 -61.5l112 -272q15 -37 30.5 -51t44.5 -14h5v-20h-110l-142 347q-18 -2 -43 -2z
M215 675q-26 0 -35.5 -13t-9.5 -47v-245h45q34 0 65 7.5t59 24.5t44.5 48.5t16.5 74.5t-16.5 74t-44.5 46.5t-58.5 22.5t-65.5 7z" />
    <glyph glyph-name="S" unicode="S" horiz-adv-x="490" 
d="M350 680l48 30l37 -210l-20 -5q-10 35 -24 67q-15 34 -33 60q-19 28 -51.5 48t-66.5 20q-49 0 -90 -32q-40 -31 -40 -93q0 -75 118 -148q50 -30 77 -48t65.5 -51t56.5 -69.5t18 -78.5q0 -89 -55 -137q-56 -48 -135 -48q-65 0 -111 30l-14 10l-48 -35l-37 210l20 5
q8 -28 28 -68q15 -31 37 -59q22 -29 55.5 -48.5t69.5 -19.5q59 0 97 34.5t38 100.5q0 94 -118 168q-7 4 -36 22t-39 24.5t-35 24t-35.5 27.5t-28 27.5t-24.5 31.5t-13 32.5t-6 37.5q0 82 54 128q56 47 131 47q63 0 98 -26z" />
    <glyph glyph-name="T" unicode="T" horiz-adv-x="550" 
d="M35 540l37 160h406l37 -160l-20 -5q-20 69 -54.5 104.5t-75.5 35.5h-60v-590q0 -39 12.5 -52t52.5 -13h10v-20h-210v20h10q40 0 52.5 13t12.5 52v590h-60q-41 0 -75.5 -35.5t-54.5 -104.5z" />
    <glyph glyph-name="U" unicode="U" 
d="M425 595v-425q0 -89 -44 -137t-116 -48q-82 0 -128.5 47.5t-46.5 137.5v445q0 39 -12.5 52t-52.5 13h-5v20h200v-20h-5q-40 0 -52.5 -13t-12.5 -52v-450q0 -70 33.5 -107.5t91.5 -37.5t91.5 37.5t33.5 107.5v430q0 43 -15.5 64t-54.5 21h-5v20h175v-20h-5
q-39 0 -54.5 -21t-15.5 -64z" />
    <glyph glyph-name="V" unicode="V" horiz-adv-x="500" 
d="M405 595l-147 -605h-20l-149 613q-12 47 -26.5 62t-52.5 15v20h185v-20h-5q-35 0 -44 -14t1 -51l119 -489l114 472q13 40 2 61t-52 21h-5v20h165v-20q-39 0 -57 -19.5t-28 -65.5z" />
    <glyph glyph-name="W" unicode="W" horiz-adv-x="535" 
d="M460 595l-92 -605h-20l-74 453l-76 -453h-20l-100 613q-7 49 -17 63q-8 14 -36 14v20h141v-20q-29 0 -35.5 -12.5t-0.5 -52.5l71 -451l60 355l-13 84q-7 47 -17 62t-36 15v20h141v-20q-29 0 -35.5 -12.5t-0.5 -52.5l69 -439l-12 -90l78 512q10 45 1 63.5t-46 18.5v20h135
v-20q-36 0 -47 -17q-10 -16 -18 -68z" />
    <glyph glyph-name="X" unicode="X" horiz-adv-x="525" 
d="M315 680h-5v20h175v-20q-39 0 -62 -20t-43 -65l-97 -209l128 -289q20 -43 37 -61q17 -16 57 -16v-20h-195v20h5q37 0 45.5 15t-7.5 50l-102 231l-99 -214q-37 -82 38 -82h5v-20h-175v20q39 0 62 20t43 65l112 242l-113 256q-19 43 -38 60q-17 17 -56 17v20h195v-20h-5
q-37 0 -45.5 -15t7.5 -50l87 -198l84 181q20 36 11 59t-49 23z" />
    <glyph glyph-name="Y" unicode="Y" horiz-adv-x="500" 
d="M335 700h155v-20q-42 0 -61 -27q-4 -7 -9 -15l-5 -9l-13 -34l-121 -349v-161q0 -39 12.5 -52t52.5 -13h10v-20h-210v20h10q40 0 52.5 13t12.5 52v144l-129 374q-16 43 -28 58q-14 19 -54 19v20h180v-20h-5q-35 0 -42 -14.5t8 -50.5l115 -336l111 319q19 39 11 60.5
t-48 21.5h-5v20z" />
    <glyph glyph-name="Z" unicode="Z" horiz-adv-x="500" 
d="M40 540l37 160h378v-10l-345 -665h175q118 0 160 140l20 -5l-37 -160h-393v10l345 665h-160q-118 0 -160 -140z" />
    <glyph glyph-name="bracketleft" unicode="[" horiz-adv-x="340" 
d="M300 -210h-180v1060h180v-25h-155v-1010h155v-25z" />
    <glyph glyph-name="backslash" unicode="\" 
d="M461 0l-431 700h29l431 -700h-29z" />
    <glyph glyph-name="bracketright" unicode="]" horiz-adv-x="340" 
d="M40 850h180v-1060h-180v25h155v1010h-155v25z" />
    <glyph glyph-name="asciicircum" unicode="^" horiz-adv-x="500" 
d="M50 460l185 240h30l185 -240h-31l-169 219l-169 -219h-31z" />
    <glyph glyph-name="underscore" unicode="_" 
d="M520 -110h-520v25h520v-25z" />
    <glyph glyph-name="a" unicode="a" horiz-adv-x="525" 
d="M420 355v-270q0 -38 11 -51.5t44 -13.5h5v-20h-115v65l-26 -15l-28 -17l-33 -19q-60 -33 -107 -29q-50 0 -78 24t-28 66q0 55 54.5 100.5t175.5 104.5l70 34v41q-1 58 -18 76q-16 19 -67 19q-49 0 -95 -23q-45 -23 -45 -52q0 -5 2.5 -22t2.5 -19q2 -24 -18 -34t-40 0
t-17 35q0 44 71 92q72 48 154 48q76 0 100 -30q25 -29 25 -90zM336 68l29 17v210l-70 -35q-170 -86 -170 -170q0 -34 22.5 -52t57.5 -18q19 0 42 6.5t39 14.5t32 17t18 10z" />
    <glyph glyph-name="b" unicode="b" horiz-adv-x="528" 
d="M130 730h10v-330q18 23 20 26q45 49 115 49q93 0 149 -68t56 -177t-59 -177t-156 -68q-41 0 -76.5 15.5t-50.5 33.5l-13 16l-25 -60h-15v625q0 38 -11 51.5t-44 13.5h-5v20h5q70 0 100 30zM265 450q-57 0 -91 -42q-34 -41 -34 -98v-180q0 -52 31.5 -86t93.5 -34
q70 0 110 58t40 162t-40 162t-110 58z" />
    <glyph glyph-name="c" unicode="c" horiz-adv-x="501" 
d="M434 123l4 12l20 -5q-2 -17 -21 -50q-12 -23 -34 -45q-20 -20 -58.5 -35t-81.5 -15q-93 0 -154 67t-61 178q0 110 63 178q63 67 162 67q70 0 117 -38q48 -37 48 -87q0 -24 -11.5 -37t-30.5 -13q-17 0 -27.5 10.5t-10.5 28.5q0 8 5 26.5t5 24.5q0 25 -26 42.5t-74 17.5
q-69 0 -112 -57.5t-43 -162.5q0 -100 51 -156q52 -54 119 -54q65 0 102 34t49 69z" />
    <glyph glyph-name="d" unicode="d" horiz-adv-x="538" 
d="M433 730h10v-645q0 -38 11 -51.5t44 -13.5h5v-20h-5q-76 0 -100 -10h-10v70q-18 -23 -20 -26q-45 -49 -115 -49q-94 0 -149.5 66.5t-55.5 178.5q0 109 59 177t156 68q37 0 69 -11.5t45 -25.5l11 -13v190q0 38 -11 51.5t-44 13.5h-5v20h5q70 0 100 30zM263 10q57 0 91 42
q34 41 34 98v190q0 48 -31.5 79t-93.5 31q-68 0 -109 -59.5t-41 -160.5q0 -103 40.5 -161.5t109.5 -58.5z" />
    <glyph glyph-name="e" unicode="e" horiz-adv-x="516" 
d="M113 230q0 -100 51 -156q52 -54 119 -54q65 0 102 34t49 69l4 12l20 -5q-2 -17 -21 -50q-12 -23 -34 -45q-20 -20 -58.5 -35t-81.5 -15q-93 0 -154 67t-61 178q0 113 63 179t157 66q96 0 148 -60q52 -59 52 -145v-10h-354q-1 -7 -1 -30zM263 450q-56 0 -96 -43t-51 -122
h287q0 78 -37.5 121.5t-102.5 43.5z" />
    <glyph glyph-name="f" unicode="f" horiz-adv-x="460" 
d="M230 460h180v-25h-180v-340q0 -49 14 -63q15 -12 81 -12h25v-20h-275v20h5q67 0 80 12q15 14 15 63v340h-140v25h140v90q0 76 43 120.5t122 44.5q64 0 104 -34q41 -33 41 -77q0 -18 -9.5 -28.5t-24.5 -10.5q-31 0 -31 35q0 41 -12 62q-13 28 -78 28q-52 0 -81 -33
t-29 -87q0 -24 5 -64.5t5 -45.5z" />
    <glyph glyph-name="g" unicode="g" horiz-adv-x="545" 
d="M70 315q0 69 49 114q49 46 131 46q68 0 119 -36q42 61 91 61q29 0 44.5 -13t15.5 -32q0 -15 -10 -26t-25 -11q-17 0 -34 16t-36 16q-17 0 -32 -23q47 -44 47 -112t-50 -115q-50 -45 -130 -45q-47 0 -87 17q-43 -22 -43 -47q0 -16 32 -27t96 -25q46 -8 82.5 -18.5t75 -28
t59.5 -45t20 -61.5q0 -62 -66 -103q-64 -42 -154 -42q-103 0 -164 36t-61 99q0 87 115 130q-85 24 -85 65q0 42 74 77q-74 44 -74 133zM435 -95q-4 33 -24 53t-64 35q-31 11 -52 15l-59 13q-41 8 -55 12q-86 -35 -86 -118q0 -53 46 -84t124 -31q77 0 124 32q46 31 46 73z
M162 411q-32 -38 -32 -96q0 -57 32 -97q33 -38 88 -38t87 38q33 39 33 97q0 59 -33 96q-31 39 -87 39q-55 0 -88 -39z" />
    <glyph glyph-name="h" unicode="h" horiz-adv-x="540" 
d="M145 730h10v-355l28 27q18 16 63 45q46 28 79 28q55 0 87.5 -34.5t32.5 -85.5v-270q0 -38 11 -51.5t44 -13.5h5v-20h-175v20h5q33 0 44 13.5t11 51.5v270q0 37 -23 61t-62 24q-29 0 -67 -23t-60 -45l-23 -22v-265q0 -38 11 -51.5t44 -13.5h5v-20h-175v20h5q33 0 44 13.5
t11 51.5v530q0 38 -11 51.5t-44 13.5h-5v20h5q70 0 100 30z" />
    <glyph glyph-name="i" unicode="i" horiz-adv-x="455" 
d="M255 480h10v-385q0 -49 14 -63q15 -12 81 -12h65v-20h-375v20h65q67 0 80 12q15 14 15 63v300q0 31 -6 38t-39 7h-85v20h45q102 0 130 20zM189 594q-14 15 -14 36t14 35q15 15 36 15t35 -15q15 -14 15 -35t-15 -36q-14 -14 -35 -14t-36 14z" />
    <glyph glyph-name="j" unicode="j" horiz-adv-x="400" 
d="M260 480h10v-480q0 -105 -49 -165t-126 -60q-70 0 -107 37q-38 36 -38 83q0 31 13 48t34 17q38 0 38 -36q0 -20 -18 -33q-17 -15 -17 -26q0 -25 24 -45t66 -20q125 0 125 200v395q0 31 -6 38t-39 7h-125v20h85q102 0 130 20zM194 594q-14 15 -14 36t14 35q15 15 36 15
t35 -15q15 -14 15 -35t-15 -36q-14 -14 -35 -14t-36 14z" />
    <glyph glyph-name="k" unicode="k" horiz-adv-x="525" 
d="M145 730h10v-507l167 160q22 22 29.5 33t-0.5 17.5t-36 6.5h-5v20h170v-20q-42 0 -64 -12q-21 -11 -66 -53l-89 -85l149 -215q24 -33 40 -44t45 -11v-20h-162v20h5q17 0 22.5 4t2 15.5t-18.5 34.5l-123 178l-66 -63v-104q0 -38 11 -51.5t44 -13.5h5v-20h-175v20h5
q33 0 44 13.5t11 51.5v530q0 38 -11 51.5t-44 13.5h-5v20h5q70 0 100 30z" />
    <glyph glyph-name="l" unicode="l" horiz-adv-x="445" 
d="M245 730h10v-635q0 -49 14 -63q15 -12 81 -12h65v-20h-375v20h65q67 0 80 12q15 14 15 63v540q0 30 -6 38q-6 7 -39 7h-85v20h45q100 0 130 30z" />
    <glyph glyph-name="m" unicode="m" horiz-adv-x="591" 
d="M145 480h10v-98q8 13 24 34q13 17 37 38t42 21q63 0 69 -94q64 94 104 94q70 0 70 -120v-270q0 -27 0.5 -34t4.5 -16.5t11.5 -11t23.5 -3.5v-20h-135v20q27 0 33.5 11.5t6.5 53.5v270q0 26 -1 33q0 36 -14 46q-8 6 -20 6q-13 0 -34 -22q-22 -22 -35 -42l-14 -21v-270
q0 -27 0.5 -34t4.5 -16.5t11.5 -11t23.5 -3.5v-20h-135v20q27 0 33.5 11.5t6.5 53.5v270q0 26 -1 33q0 36 -14 46q-8 6 -20 6q-13 0 -34 -22q-22 -22 -35 -42l-14 -21v-270q0 -27 0.5 -34t4.5 -16.5t11.5 -11t23.5 -3.5v-20h-135v20q27 0 33.5 11.5t6.5 53.5v290
q0 27 -0.5 34t-4.5 16.5t-11.5 11t-23.5 3.5v20q57 0 85 20z" />
    <glyph glyph-name="n" unicode="n" horiz-adv-x="545" 
d="M150 480h10v-105l28 27q18 16 63 45q46 28 79 28q55 0 87.5 -34.5t32.5 -85.5v-270q0 -38 11 -51.5t44 -13.5h5v-20h-175v20h5q33 0 44 13.5t11 51.5v270q0 37 -23 61t-62 24q-29 0 -67 -23q-37 -23 -60 -45l-23 -22v-265q0 -38 11 -51.5t44 -13.5h5v-20h-175v20h5
q33 0 44 13.5t11 51.5v290q0 38 -11 51.5t-44 13.5h-5v20h5q72 0 100 20z" />
    <glyph glyph-name="o" unicode="o" horiz-adv-x="526" 
d="M110 54q-62 70 -62 176t62 176q62 69 153 69t153 -69q62 -70 62 -176t-62 -176q-62 -69 -153 -69t-153 69zM156 392q-43 -58 -43 -162t43 -162t107 -58t107 58t43 162t-43 162t-107 58t-107 -58z" />
    <glyph glyph-name="p" unicode="p" horiz-adv-x="538" 
d="M161 22l-11 13v-160q0 -38 11 -51.5t44 -13.5h10v-20h-180v20h5q33 0 44 13.5t11 51.5v500q0 38 -11 51.5t-44 13.5h-5v20h5q72 0 100 20h10v-80q18 23 20 26q45 49 115 49q93 0 149 -68t56 -177t-59 -177t-156 -68q-37 0 -69 11.5t-45 25.5zM275 450q-57 0 -91 -42
q-34 -41 -34 -98v-210q0 -30 31 -60t94 -30q70 0 110 58t40 162t-40 162t-110 58z" />
    <glyph glyph-name="q" unicode="q" horiz-adv-x="533" 
d="M428 470h15v-595q0 -38 11 -51.5t44 -13.5h5v-20h-180v20h10q33 0 44 13.5t11 51.5v185q-18 -23 -20 -26q-45 -49 -115 -49q-94 0 -149.5 66.5t-55.5 178.5q0 109 59 177t156 68q41 0 76.5 -15.5t50.5 -33.5l13 -16zM263 10q57 0 91 42q34 41 34 98v180q0 52 -31.5 86
t-93.5 34q-68 0 -109 -59.5t-41 -160.5q0 -103 40.5 -161.5t109.5 -58.5z" />
    <glyph glyph-name="r" unicode="r" horiz-adv-x="510" 
d="M305 20v-20h-265v20h5q67 0 80 12q15 14 15 63v300q0 31 -6 38t-39 7h-55v20h15q102 0 130 20h10v-130q6 11 35 43q17 20 37 38q48 44 93 44q49 0 79.5 -25t30.5 -70q0 -24 -11.5 -37t-30.5 -13q-16 0 -27 11t-11 28q0 8 5 24t5 22q0 35 -50 35q-30 0 -68 -34
q-41 -38 -62 -68l-25 -33v-220q0 -49 14 -63q15 -12 81 -12h15z" />
    <glyph glyph-name="s" unicode="s" horiz-adv-x="516" 
d="M158 11l-15 9l-45 -35l-40 170l20 5q9 -23 26 -52q18 -28 36 -46q23 -22 60.5 -37t77.5 -15q62 0 96 29q34 30 34 71t-35 64q-17 11 -41.5 20t-41.5 13t-53.5 11.5t-48.5 10.5q-54 12 -87 41t-33 75q0 55 51 92q53 38 124 38q73 0 108 -26l12 -9l45 35l40 -170l-20 -5
q-9 24 -25 52q-17 29 -34 46q-20 22 -54.5 37t-71.5 15q-55 0 -90 -26.5t-35 -63.5q0 -61 120 -84q26 -5 37.5 -7.5t37 -8t38.5 -11t33.5 -14t31 -19t22 -23.5t16 -30.5t4.5 -37.5q0 -63 -51 -101.5t-134 -38.5q-74 0 -115 26z" />
    <glyph glyph-name="t" unicode="t" horiz-adv-x="510" 
d="M205 640h15v-180h220v-25h-220v-295q0 -120 110 -120q43 0 75 29t41 57l9 29l20 -5q-2 -17 -18 -50q-40 -92 -147 -95q-66 0 -105.5 41.5t-39.5 113.5v295h-140v25h65q57 0 73 16q17 17 27 74z" />
    <glyph glyph-name="u" unicode="u" horiz-adv-x="543" 
d="M433 480h10v-395q0 -38 11 -51.5t44 -13.5h5v-20h-5q-76 0 -100 -10h-10v95l-29 -28q-14 -14 -63 -44q-44 -28 -78 -28q-55 0 -87.5 34.5t-32.5 85.5v270q0 38 -11 51.5t-44 13.5h-5v20h5q72 0 100 20h10v-375q0 -37 23 -61t62 -24q29 0 66 22t61 46l23 22v265
q0 38 -11 51.5t-44 13.5h-5v20h5q72 0 100 20z" />
    <glyph glyph-name="v" unicode="v" horiz-adv-x="545" 
d="M354 460h161v-20q-43 0 -63 -27q-15 -19 -30 -58l-147 -365h-20l-150 370l-15 35q-6 11 -14 22q-16 23 -56 23v20h175v-20q-17 0 -25 -1.5t-15.5 -7.5t-6 -20t10.5 -37l122 -302l116 287q31 81 -38 81h-5v20z" />
    <glyph glyph-name="w" unicode="w" horiz-adv-x="565" 
d="M409 460h121v-20q-27 0 -47 -25q-2 -2 -5 -13t-4 -14l-7 -33l-82 -365h-20l-83 321l-87 -321h-20l-85 370q-12 52 -23 66t-37 14v20h136v-20q-26 0 -30 -9q-5 -10 4 -59l61 -266l69 254q-14 52 -24 66q-11 14 -36 14v20h135v-20q-26 0 -30.5 -8t4.5 -58l68 -264l56 250
q13 40 7 60t-36 20h-5v20z" />
    <glyph glyph-name="x" unicode="x" horiz-adv-x="530" 
d="M315 440h-5v20h170v-20q-34 0 -57 -15t-48 -50l-85 -115l130 -183q24 -33 45 -45t50 -12v-20h-190v20h5q37 0 41.5 12.5t-18.5 43.5l-98 137l-93 -127q-50 -66 28 -66h5v-20h-170v20q34 0 57 15t48 50l110 149l-105 149q-24 33 -45 45t-50 12v20h190v-20h-5
q-36 0 -41.5 -13t18.5 -43l73 -103l68 93q48 66 -28 66z" />
    <glyph glyph-name="y" unicode="y" horiz-adv-x="535" 
d="M345 460h160v-20q-44 0 -62 -26q-13 -18 -28 -59l-152 -432q-29 -83 -51.5 -115.5t-56.5 -32.5q-32 0 -51 20t-19 50q0 22 12 36t28 14q40 0 40 -42q0 -6 -0.5 -14.5t-0.5 -12.5t1 -8.5t3.5 -6t6.5 -1.5q14 0 26 24t39 99l24 67l-154 360q-23 52 -34 63q-17 17 -51 17v20
h175v-20q-29 0 -41 -9q-15 -9 5 -56l127 -297l99 280q28 82 -40 82h-5v20z" />
    <glyph glyph-name="z" unicode="z" horiz-adv-x="525" 
d="M470 135l-37 -135h-378v10l325 425h-175q-93 0 -130 -115l-20 5l37 135h368v-10l-325 -425h185q93 0 130 115z" />
    <glyph glyph-name="braceleft" unicode="{" horiz-adv-x="410" 
d="M315 850h45v-20h-35q-48 0 -69 -32t-21 -128v-230q0 -99 -85 -118v-4q85 -18 85 -123v-225q0 -96 21 -128t69 -32h35v-20h-45q-79 0 -109.5 44t-30.5 151v220q0 59 -20 82t-85 23h-20v20h20q66 0 85 22q20 23 20 83v220q0 107 30.5 151t109.5 44z" />
    <glyph glyph-name="bar" unicode="|" horiz-adv-x="265" 
d="M120 -210v1060h25v-1060h-25z" />
    <glyph glyph-name="braceright" unicode="}" horiz-adv-x="410" 
d="M85 830h-35v20h45q79 0 109.5 -44t30.5 -151v-220q0 -60 20 -83q19 -22 85 -22h20v-20h-20q-65 0 -85 -23t-20 -82v-220q0 -107 -30.5 -151t-109.5 -44h-45v20h35q48 0 69 32t21 128v225q0 105 85 123v4q-85 19 -85 118v230q0 96 -21 128t-69 32z" />
    <glyph glyph-name="asciitilde" unicode="~" horiz-adv-x="540" 
d="M89 316l-4 -16h-15q0 10 9 40q26 75 91 75q31 0 104 -30q74 -30 101 -30q25 0 43.5 15.5t22.5 33.5l4 16h15q0 -10 -10 -40q-9 -31 -31.5 -53t-58.5 -22q-30 0 -104 30t-101 30q-25 0 -43.5 -15.5t-22.5 -33.5z" />
    <glyph glyph-name="exclamdown" unicode="&#xa1;" horiz-adv-x="280" 
d="M135 270h10l20 -245q15 -165 15 -215q0 -60 -40 -60t-40 60q0 54 15 215zM175 460q15 -14 15 -35t-15 -36q-14 -14 -35 -14t-36 14q-14 15 -14 36t14 35q15 15 36 15t35 -15z" />
    <glyph glyph-name="cent" unicode="&#xa2;" horiz-adv-x="495" 
d="M247 474v136h25v-135q70 -2 116 -39q47 -38 47 -86q0 -24 -11.5 -37t-30.5 -13q-17 0 -27.5 10.5t-10.5 28.5q0 8 5 26.5t5 24.5q0 24 -24.5 41.5t-68.5 18.5v-430h8q65 0 102 34t49 69l4 12l20 -5q-2 -16 -21 -48q-14 -24 -31 -43q-19 -20 -55 -35.5t-76 -17.5v-136h-25
v135q-88 4 -145 72q-57 67 -57 173q0 103 56 170q56 66 146 74zM110 230q0 -85 38.5 -139.5t98.5 -67.5v426q-61 -7 -99 -64t-38 -155z" />
    <glyph glyph-name="currency" unicode="&#xa4;" horiz-adv-x="548" 
d="M158 213l-67 -67l-21 21l67 67q-43 49 -43 116q0 66 43 116l-67 67l21 21l67 -67q50 43 116 43q64 0 116 -43l67 67l21 -21l-67 -67q43 -52 43 -116q0 -66 -43 -116l67 -67l-21 -21l-67 67q-50 -43 -116 -43q-67 0 -116 43zM171 452q-42 -42 -42 -102t42 -103
q44 -42 103 -42q60 0 102 42q43 43 43 103t-43 102q-42 43 -102 43t-103 -43z" />
    <glyph glyph-name="yen" unicode="&#xa5;" horiz-adv-x="500" 
d="M221 215h-141v25h137l-125 363q-16 43 -28 58q-14 19 -54 19v20h180v-20h-5q-35 0 -42 -14.5t8 -50.5l115 -335l111 318q19 39 11 60.5t-48 21.5h-5v20h155v-20q-42 0 -61 -27q-4 -7 -9 -15l-5 -9l-13 -34l-121 -348v-7h139v-25h-139v-45h139v-25h-139v-60
q0 -39 12.5 -52t52.5 -13h10v-20h-210v20h10q40 0 52.5 13t12.5 52v60h-141v25h141v45z" />
    <glyph glyph-name="brokenbar" unicode="&#xa6;" horiz-adv-x="265" 
d="M120 -210v460h25v-460h-25zM120 390v460h25v-460h-25z" />
    <glyph glyph-name="section" unicode="&#xa7;" horiz-adv-x="570" 
d="M490 340q0 -52 -33.5 -97t-86.5 -66q90 -58 90 -127q0 -75 -54 -120t-126 -45q-76 0 -123 38t-47 97q0 46 18 70.5t45 24.5q20 0 33.5 -11.5t13.5 -30.5q0 -18 -9.5 -28.5t-20.5 -14.5t-20.5 -15.5t-9.5 -29.5q0 -31 33 -53t87 -22q47 0 86 30t39 85q0 67 -115 126
q-107 58 -143 88q-68 57 -67 121q0 52 33.5 96.5t86.5 65.5q-90 60 -90 128q0 75 54 120t126 45q76 0 123 -38t47 -97q0 -46 -18 -70.5t-45 -24.5q-20 0 -33.5 11.5t-13.5 30.5q0 18 9.5 28.5t20.5 14.5t20.5 15.5t9.5 29.5q0 31 -33 53t-87 22q-47 0 -86 -30t-39 -85
q0 -64 115 -127q47 -24 73.5 -39.5t64 -43t55 -59t17.5 -66.5zM435 315q0 54 -48 91q-23 20 -43 33q-19 14 -60 35l-55 30q-41 -13 -67.5 -44.5t-26.5 -74.5q2 -35 18 -59.5t51 -50.5l41 -27q17 -10 48 -27q29 -15 47 -26q41 13 68 45t27 75z" />
    <glyph glyph-name="copyright" unicode="&#xa9;" horiz-adv-x="590" 
d="M114 159q-74 76 -74 181q0 106 74 180q75 75 181 75q107 0 180 -75q75 -74 75 -180t-75 -181q-74 -74 -180 -74q-105 0 -181 74zM132 502q-67 -67 -67 -162q0 -96 67 -163t163 -67q95 0 162 67q68 68 68 163q0 94 -68 162t-162 68q-95 0 -163 -68zM412 266l2 8l13 -4
q-3 -13 -15 -35q-34 -65 -120 -65q-63 0 -107 47q-43 46 -43 123t43.5 123.5t113.5 46.5q48 0 81.5 -25.5t33.5 -61.5q0 -34 -30 -34q-26 0 -26 27q0 4 3.5 17t3.5 18q0 17 -18 29.5t-52 12.5q-47 0 -77 -40t-30 -113q0 -68 34 -107t84 -39q45 0 70.5 23.5t35.5 48.5z" />
    <glyph glyph-name="guillemotleft" unicode="&#xab;" horiz-adv-x="570" 
d="M328 270l132 -190h-15l-190 190l190 190h15zM163 270l132 -190h-15l-190 190l190 190h15z" />
    <glyph glyph-name="logicalnot" unicode="&#xac;" horiz-adv-x="540" 
d="M435 395h-365v25h390v-203h-25v178z" />
    <glyph glyph-name="registered" unicode="&#xae;" horiz-adv-x="590" 
d="M114 159q-74 76 -74 181q0 106 74 180q75 75 181 75q107 0 180 -75q75 -74 75 -180t-75 -181q-74 -74 -180 -74q-105 0 -181 74zM132 502q-67 -67 -67 -162q0 -96 67 -163t163 -67q95 0 162 67q68 68 68 163q0 94 -68 162t-162 68q-95 0 -163 -68zM294 337h-52v-98
q0 -27 7.5 -36t30.5 -9h4v-14h-122v14h4q23 0 30.5 9t7.5 36v202q0 27 -7.5 36t-30.5 9h-4v14h119q65 0 102 -22.5t37 -59.5q0 -27 -21 -47.5t-59 -29.5l52 -102q24 -45 52 -45h4v-14h-73zM281 482h-8q-18 0 -24.5 -9t-6.5 -32v-87h39q94 0 94 64t-94 64z" />
    <glyph glyph-name="degree" unicode="&#xb0;" horiz-adv-x="400" 
d="M101 476q-41 41 -41 99t41 99t99 41t99 -41t41 -99t-41 -99t-99 -41t-99 41zM119 656q-34 -34 -34 -81t34 -81t81 -34t81 34t34 81t-34 81t-81 34t-81 -34z" />
    <glyph glyph-name="plusminus" unicode="&#xb1;" horiz-adv-x="530" 
d="M252 345h-182v25h182v192h25v-192h183v-25h-183v-188h-25v188zM460 95h-390v25h390v-25z" />
    <glyph glyph-name="paragraph" unicode="&#xb6;" horiz-adv-x="535" 
d="M260 700h215v-25h-90v-885h-25v885h-75v-885h-25v510q-82 0 -141 59t-59 141t59 141t141 59z" />
    <glyph glyph-name="middot" unicode="&#xb7;" horiz-adv-x="320" 
d="M124 319q-14 15 -14 36t14 35q15 15 36 15t35 -15q15 -14 15 -35t-15 -36q-14 -14 -35 -14t-36 14z" />
    <glyph glyph-name="guillemotright" unicode="&#xbb;" horiz-adv-x="570" 
d="M315 270l-190 -190h-15l132 190l-132 190h15zM480 270l-190 -190h-15l132 190l-132 190h15z" />
    <glyph glyph-name="questiondown" unicode="&#xbf;" horiz-adv-x="460" 
d="M270 460q15 -14 15 -35t-15 -36q-14 -14 -35 -14t-36 14q-14 15 -14 36t14 35q15 15 36 15t35 -15zM235 270v10h20v-10q0 -71 -53 -139q-54 -67 -71 -100q-26 -53 -26 -111q0 -63 38 -104q39 -41 97 -41q63 0 98 34q37 33 37 71q0 18 -9.5 29.5t-20.5 15.5t-20.5 14.5
t-9.5 28.5q0 19 13.5 30.5t33.5 11.5q26 0 44.5 -23.5t18.5 -66.5q0 -70 -54 -119q-53 -51 -131 -51q-90 0 -148 51q-57 49 -57 129q0 81 70 147q3 3 28.5 27t32 31t25 28.5t25 34.5t13 33t6.5 39z" />
    <glyph glyph-name="Agrave" unicode="&#xc0;" horiz-adv-x="500" 
d="M95 105l147 605h20l149 -613q12 -47 26.5 -62t52.5 -15v-20h-185v20h5q35 0 44 14t-1 51l-37 150h-164l-32 -133q-13 -40 -2 -61t52 -21h5v-20h-165v20q39 0 57 19.5t28 65.5zM310 260l-76 313l-76 -313h152zM105 920h85l105 -160h-15z" />
    <glyph glyph-name="Aacute" unicode="&#xc1;" horiz-adv-x="500" 
d="M95 105l147 605h20l149 -613q12 -47 26.5 -62t52.5 -15v-20h-185v20h5q35 0 44 14t-1 51l-37 150h-164l-32 -133q-13 -40 -2 -61t52 -21h5v-20h-165v20q39 0 57 19.5t28 65.5zM310 260l-76 313l-76 -313h152zM210 760h-15l105 160h85z" />
    <glyph glyph-name="Acircumflex" unicode="&#xc2;" horiz-adv-x="500" 
d="M95 105l147 605h20l149 -613q12 -47 26.5 -62t52.5 -15v-20h-185v20h5q35 0 44 14t-1 51l-37 150h-164l-32 -133q-13 -40 -2 -61t52 -21h5v-20h-165v20q39 0 57 19.5t28 65.5zM310 260l-76 313l-76 -313h152zM410 760h-15l-145 85l-145 -85h-15l153 145h14z" />
    <glyph glyph-name="Atilde" unicode="&#xc3;" horiz-adv-x="500" 
d="M95 105l147 605h20l149 -613q12 -47 26.5 -62t52.5 -15v-20h-185v20h5q35 0 44 14t-1 51l-37 150h-164l-32 -133q-13 -40 -2 -61t52 -21h5v-20h-165v20q39 0 57 19.5t28 65.5zM310 260l-76 313l-76 -313h152zM94 786l-4 -16h-15q0 10 9 40q26 75 91 75q31 0 84 -30
t81 -30q25 0 43.5 15.5t22.5 33.5l4 16h15q0 -10 -10 -40q-9 -31 -31.5 -53t-58.5 -22q-30 0 -84 30q-53 30 -81 30q-25 0 -43.5 -15.5t-22.5 -33.5z" />
    <glyph glyph-name="Adieresis" unicode="&#xc4;" horiz-adv-x="500" 
d="M95 105l147 605h20l149 -613q12 -47 26.5 -62t52.5 -15v-20h-185v20h5q35 0 44 14t-1 51l-37 150h-164l-32 -133q-13 -40 -2 -61t52 -21h5v-20h-165v20q39 0 57 19.5t28 65.5zM310 260l-76 313l-76 -313h152zM119 784q-14 15 -14 36t14 35q15 15 36 15t35 -15
q15 -14 15 -35t-15 -36q-14 -14 -35 -14t-36 14zM309 784q-14 15 -14 36t14 35q15 15 36 15t35 -15q15 -14 15 -35t-15 -36q-14 -14 -35 -14t-36 14z" />
    <glyph glyph-name="Aring" unicode="&#xc5;" horiz-adv-x="500" 
d="M95 105l147 605h20l149 -613q12 -47 26.5 -62t52.5 -15v-20h-185v20h5q35 0 44 14t-1 51l-37 150h-164l-32 -133q-13 -40 -2 -61t52 -21h5v-20h-165v20q39 0 57 19.5t28 65.5zM186 771q-26 27 -26 64t26 63q26 27 64 27t64 -27q26 -26 26 -63t-26 -64q-26 -26 -64 -26
t-64 26zM310 260l-76 313l-76 -313h152zM204 881q-19 -19 -19 -46t19 -46t46 -19t46 19t19 46t-19 46t-46 19t-46 -19z" />
    <glyph glyph-name="AE" unicode="&#xc6;" horiz-adv-x="560" 
d="M520 160l-37 -160h-293v20h5q31 0 38 11t7 54v150h-99l-38 -133q-26 -82 27 -82h5v-20h-125v20q32 0 46 26q12 21 22 59l172 595h223l37 -160l-20 -5q-22 73 -55.5 106.5t-84.5 33.5q-32 0 -41 -11.5t-9 -48.5v-245h35q43 0 64 15.5t21 54.5v5h20v-175h-20v5
q0 39 -21 54.5t-64 15.5h-35v-260q0 -37 9 -48.5t41 -11.5h10q51 0 84.5 33.5t55.5 106.5zM240 576l-92 -316h92v316z" />
    <glyph glyph-name="Ccedilla" unicode="&#xc7;" horiz-adv-x="480" 
d="M110 350q0 -159 45 -244.5t115 -85.5q36 0 64.5 17t45 43.5t25 49t12.5 42.5l3 18l20 -5q-2 -21 -20 -69q-14 -35 -31 -61q-20 -29 -54 -49t-73 -21l-19 -40q92 -3 92 -75q0 -31 -26.5 -53t-68.5 -22q-33 0 -54 13l-6 5l8 15q17 -13 44 -13q25 0 39 14.5t14 38.5
q0 32 -24 43q-22 10 -41 4l-12 5l33 66q-87 10 -144 108q-57 97 -57 256q0 167 63 266q64 99 157 99q25 0 49 -8t35 -18l11 -9l48 30l37 -210l-20 -5q-10 37 -23 67q-12 31 -31 60t-47.5 48.5t-58.5 19.5q-64 0 -107 -90q-43 -87 -43 -250z" />
    <glyph glyph-name="Egrave" unicode="&#xc8;" horiz-adv-x="530" 
d="M485 160l-37 -160h-408v20h5q40 0 52.5 13t12.5 52v530q0 39 -12.5 52t-52.5 13h-5v20h398l37 -160l-20 -5q-42 140 -160 140h-60q-39 0 -52 -12t-13 -48v-245h70q43 0 64 15.5t21 54.5v5h20v-175h-20v5q0 39 -21 54.5t-64 15.5h-70v-260q0 -36 13 -48t52 -12h70
q118 0 160 140zM130 920h85l105 -160h-15z" />
    <glyph glyph-name="Eacute" unicode="&#xc9;" horiz-adv-x="530" 
d="M485 160l-37 -160h-408v20h5q40 0 52.5 13t12.5 52v530q0 39 -12.5 52t-52.5 13h-5v20h398l37 -160l-20 -5q-42 140 -160 140h-60q-39 0 -52 -12t-13 -48v-245h70q43 0 64 15.5t21 54.5v5h20v-175h-20v5q0 39 -21 54.5t-64 15.5h-70v-260q0 -36 13 -48t52 -12h70
q118 0 160 140zM195 760h-15l105 160h85z" />
    <glyph glyph-name="Ecircumflex" unicode="&#xca;" horiz-adv-x="530" 
d="M485 160l-37 -160h-408v20h5q40 0 52.5 13t12.5 52v530q0 39 -12.5 52t-52.5 13h-5v20h398l37 -160l-20 -5q-42 140 -160 140h-60q-39 0 -52 -12t-13 -48v-245h70q43 0 64 15.5t21 54.5v5h20v-175h-20v5q0 39 -21 54.5t-64 15.5h-70v-260q0 -36 13 -48t52 -12h70
q118 0 160 140zM430 760h-15l-145 85l-145 -85h-15l153 145h14z" />
    <glyph glyph-name="Edieresis" unicode="&#xcb;" horiz-adv-x="530" 
d="M485 160l-37 -160h-408v20h5q40 0 52.5 13t12.5 52v530q0 39 -12.5 52t-52.5 13h-5v20h398l37 -160l-20 -5q-42 140 -160 140h-60q-39 0 -52 -12t-13 -48v-245h70q43 0 64 15.5t21 54.5v5h20v-175h-20v5q0 39 -21 54.5t-64 15.5h-70v-260q0 -36 13 -48t52 -12h70
q118 0 160 140zM319 784q-14 15 -14 36t14 35q15 15 36 15t35 -15q15 -14 15 -35t-15 -36q-14 -14 -35 -14t-36 14zM129 784q-14 15 -14 36t14 35q15 15 36 15t35 -15q15 -14 15 -35t-15 -36q-14 -14 -35 -14t-36 14z" />
    <glyph glyph-name="Igrave" unicode="&#xcc;" horiz-adv-x="380" 
d="M350 0h-320v20h25q65 0 84 15q21 15 21 60v510q0 45 -21 60q-19 15 -84 15h-25v20h320v-20h-25q-64 0 -85 -15q-20 -15 -20 -60v-510q0 -45 20 -60q21 -15 85 -15h25v-20zM55 920h85l105 -160h-15z" />
    <glyph glyph-name="Iacute" unicode="&#xcd;" horiz-adv-x="380" 
d="M350 0h-320v20h25q65 0 84 15q21 15 21 60v510q0 45 -21 60q-19 15 -84 15h-25v20h320v-20h-25q-64 0 -85 -15q-20 -15 -20 -60v-510q0 -45 20 -60q21 -15 85 -15h25v-20zM150 760h-15l105 160h85z" />
    <glyph glyph-name="Icircumflex" unicode="&#xce;" horiz-adv-x="380" 
d="M350 0h-320v20h25q65 0 84 15q21 15 21 60v510q0 45 -21 60q-19 15 -84 15h-25v20h320v-20h-25q-64 0 -85 -15q-20 -15 -20 -60v-510q0 -45 20 -60q21 -15 85 -15h25v-20zM350 760h-15l-145 85l-145 -85h-15l153 145h14z" />
    <glyph glyph-name="Idieresis" unicode="&#xcf;" horiz-adv-x="380" 
d="M350 0h-320v20h25q65 0 84 15q21 15 21 60v510q0 45 -21 60q-19 15 -84 15h-25v20h320v-20h-25q-64 0 -85 -15q-20 -15 -20 -60v-510q0 -45 20 -60q21 -15 85 -15h25v-20zM59 784q-14 15 -14 36t14 35q15 15 36 15t35 -15q15 -14 15 -35t-15 -36q-14 -14 -35 -14t-36 14z
M249 784q-14 15 -14 36t14 35q15 15 36 15t35 -15q15 -14 15 -35t-15 -36q-14 -14 -35 -14t-36 14z" />
    <glyph glyph-name="Eth" unicode="&#xd0;" horiz-adv-x="545" 
d="M110 345h-70v25h70v245q0 39 -12.5 52t-52.5 13h-5v20h175q125 0 208 -92q82 -91 82 -258t-82 -258q-83 -92 -208 -92h-175v20h5q40 0 52.5 13t12.5 52v260zM215 675q-26 0 -35.5 -13t-9.5 -47v-245h150v-25h-150v-260q0 -34 9.5 -47t35.5 -13q93 0 156 80q64 80 64 245
t-64 244q-65 81 -156 81z" />
    <glyph glyph-name="Ntilde" unicode="&#xd1;" horiz-adv-x="525" 
d="M430 595v-595h-20l-280 615v-510q0 -43 15.5 -64t54.5 -21h5v-20h-175v20h5q39 0 54.5 21t15.5 64v490q0 43 -15.5 64t-54.5 21h-5v20h128l247 -543v438q0 43 -15.5 64t-54.5 21h-5v20h175v-20h-5q-39 0 -54.5 -21t-15.5 -64zM123 786l-4 -16h-15q0 10 9 40q26 75 91 75
q30 0 84 -30t81 -30q25 0 43.5 15.5t22.5 33.5l4 16h15q0 -10 -10 -40q-9 -31 -31.5 -53t-58.5 -22q-30 0 -84 30t-81 30q-25 0 -43.5 -15.5t-22.5 -33.5z" />
    <glyph glyph-name="Ograve" unicode="&#xd2;" 
d="M103 82q-63 97 -63 268q0 170 63 267q63 98 157 98t157 -98q63 -97 63 -267q0 -171 -63 -268t-157 -97t-157 97zM152 603q-42 -85 -42 -253q0 -167 42 -254q44 -86 108 -86q65 0 107 86q43 86 43 254t-43 253q-42 87 -107 87q-64 0 -108 -87zM105 920h85l105 -160h-15z
" />
    <glyph glyph-name="Oacute" unicode="&#xd3;" 
d="M103 82q-63 97 -63 268q0 170 63 267q63 98 157 98t157 -98q63 -97 63 -267q0 -171 -63 -268t-157 -97t-157 97zM152 603q-42 -85 -42 -253q0 -167 42 -254q44 -86 108 -86q65 0 107 86q43 86 43 254t-43 253q-42 87 -107 87q-64 0 -108 -87zM230 760h-15l105 160h85z
" />
    <glyph glyph-name="Ocircumflex" unicode="&#xd4;" 
d="M103 82q-63 97 -63 268q0 170 63 267q63 98 157 98t157 -98q63 -97 63 -267q0 -171 -63 -268t-157 -97t-157 97zM152 603q-42 -85 -42 -253q0 -167 42 -254q44 -86 108 -86q65 0 107 86q43 86 43 254t-43 253q-42 87 -107 87q-64 0 -108 -87zM420 760h-15l-145 85
l-145 -85h-15l153 145h14z" />
    <glyph glyph-name="Otilde" unicode="&#xd5;" 
d="M103 82q-63 97 -63 268q0 170 63 267q63 98 157 98t157 -98q63 -97 63 -267q0 -171 -63 -268t-157 -97t-157 97zM152 603q-42 -85 -42 -253q0 -167 42 -254q44 -86 108 -86q65 0 107 86q43 86 43 254t-43 253q-42 87 -107 87q-64 0 -108 -87zM104 786l-4 -16h-15
q0 10 9 40q26 75 91 75q31 0 84 -30t81 -30q25 0 43.5 15.5t22.5 33.5l4 16h15q0 -10 -10 -40q-9 -31 -31.5 -53t-58.5 -22q-30 0 -84 30q-53 30 -81 30q-25 0 -43.5 -15.5t-22.5 -33.5z" />
    <glyph glyph-name="Odieresis" unicode="&#xd6;" 
d="M103 82q-63 97 -63 268q0 170 63 267q63 98 157 98t157 -98q63 -97 63 -267q0 -171 -63 -268t-157 -97t-157 97zM152 603q-42 -85 -42 -253q0 -167 42 -254q44 -86 108 -86q65 0 107 86q43 86 43 254t-43 253q-42 87 -107 87q-64 0 -108 -87zM129 784q-14 15 -14 36
t14 35q15 15 36 15t35 -15q15 -14 15 -35t-15 -36q-14 -14 -35 -14t-36 14zM319 784q-14 15 -14 36t14 35q15 15 36 15t35 -15q15 -14 15 -35t-15 -36q-14 -14 -35 -14t-36 14z" />
    <glyph glyph-name="multiply" unicode="&#xd7;" horiz-adv-x="473" 
d="M236 339l-128 -128l-18 17l129 129l-129 129l18 17l128 -129l130 130l17 -18l-129 -129l129 -129l-17 -18z" />
    <glyph glyph-name="Oslash" unicode="&#xd8;" 
d="M40 350q0 170 63 267q63 98 157 98q89 0 149 -86l42 71h29l-56 -95q56 -101 56 -255q0 -171 -63 -268t-157 -97q-90 0 -150 86l-41 -71h-29l55 95q-55 98 -55 255zM410 350q0 116 -22 194l-247 -420q41 -114 119 -114q67 0 108.5 88.5t41.5 251.5zM110 350
q0 -113 21 -194l247 420q-40 114 -118 114q-67 0 -108.5 -88.5t-41.5 -251.5z" />
    <glyph glyph-name="Ugrave" unicode="&#xd9;" 
d="M425 595v-425q0 -89 -44 -137t-116 -48q-82 0 -128.5 47.5t-46.5 137.5v445q0 39 -12.5 52t-52.5 13h-5v20h200v-20h-5q-40 0 -52.5 -13t-12.5 -52v-450q0 -70 33.5 -107.5t91.5 -37.5t91.5 37.5t33.5 107.5v430q0 43 -15.5 64t-54.5 21h-5v20h175v-20h-5
q-39 0 -54.5 -21t-15.5 -64zM95 920h85l105 -160h-15z" />
    <glyph glyph-name="Uacute" unicode="&#xda;" 
d="M425 170q0 -89 -44 -137t-116 -48q-82 0 -128.5 47.5t-46.5 137.5v445q0 39 -12.5 52t-52.5 13h-5v20h200v-20h-5q-40 0 -52.5 -13t-12.5 -52v-450q0 -70 33.5 -107.5t91.5 -37.5t91.5 37.5t33.5 107.5v430q0 43 -15.5 64t-54.5 21h-5v20h175v-20h-5q-39 0 -54.5 -21
t-15.5 -64v-425zM230 760h-15l105 160h85z" />
    <glyph glyph-name="Ucircumflex" unicode="&#xdb;" 
d="M425 170q0 -89 -44 -137t-116 -48q-82 0 -128.5 47.5t-46.5 137.5v445q0 39 -12.5 52t-52.5 13h-5v20h200v-20h-5q-40 0 -52.5 -13t-12.5 -52v-450q0 -70 33.5 -107.5t91.5 -37.5t91.5 37.5t33.5 107.5v430q0 43 -15.5 64t-54.5 21h-5v20h175v-20h-5q-39 0 -54.5 -21
t-15.5 -64v-425zM420 760h-15l-145 85l-145 -85h-15l153 145h14z" />
    <glyph glyph-name="Udieresis" unicode="&#xdc;" 
d="M425 170q0 -89 -44 -137t-116 -48q-82 0 -128.5 47.5t-46.5 137.5v445q0 39 -12.5 52t-52.5 13h-5v20h200v-20h-5q-40 0 -52.5 -13t-12.5 -52v-450q0 -70 33.5 -107.5t91.5 -37.5t91.5 37.5t33.5 107.5v430q0 43 -15.5 64t-54.5 21h-5v20h175v-20h-5q-39 0 -54.5 -21
t-15.5 -64v-425zM129 784q-14 15 -14 36t14 35q15 15 36 15t35 -15q15 -14 15 -35t-15 -36q-14 -14 -35 -14t-36 14zM319 784q-14 15 -14 36t14 35q15 15 36 15t35 -15q15 -14 15 -35t-15 -36q-14 -14 -35 -14t-36 14z" />
    <glyph glyph-name="Yacute" unicode="&#xdd;" horiz-adv-x="500" 
d="M335 700h155v-20q-42 0 -61 -27q-4 -7 -9 -15l-5 -9l-13 -34l-121 -349v-161q0 -39 12.5 -52t52.5 -13h10v-20h-210v20h10q40 0 52.5 13t12.5 52v144l-129 374q-16 43 -28 58q-14 19 -54 19v20h180v-20h-5q-35 0 -42 -14.5t8 -50.5l115 -336l111 319q19 39 11 60.5
t-48 21.5h-5v20zM230 760h-15l105 160h85z" />
    <glyph glyph-name="Thorn" unicode="&#xde;" horiz-adv-x="525" 
d="M170 615v-75h55q113 0 186 -46q74 -45 74 -134q0 -88 -74 -135q-73 -45 -186 -45h-55v-95q0 -39 12.5 -52t52.5 -13h5v-20h-200v20h5q40 0 52.5 13t12.5 52v530q0 39 -12.5 52t-52.5 13h-5v20h200v-20h-5q-40 0 -52.5 -13t-12.5 -52zM225 515h-55v-310h55q79 0 134 36
q56 38 56 119q0 82 -56 118q-55 37 -134 37z" />
    <glyph glyph-name="germandbls" unicode="&#xdf;" horiz-adv-x="555" 
d="M160 500v-500h-115v20h5q33 0 44 13.5t11 51.5v350h-55v25h55v20q0 115 58 174q58 61 132 61q53 0 84 -28t31 -72q0 -29 -15 -53.5t-36 -42t-42.5 -34.5t-36.5 -38.5t-15 -46.5q0 -46 90 -90q30 -14 45.5 -22t42 -25t40.5 -33.5t25.5 -41.5t11.5 -53q0 -68 -43 -109
t-107 -41q-58 0 -96 30l-39 -30l-40 170l20 5q29 -67 60 -108q33 -42 95 -42q47 0 76 29.5t29 75.5q0 72 -90 118l-36 18t-40 20.5t-32.5 20.5t-31 26.5t-17 29t-8.5 37.5q0 32 16.5 58.5t40 45.5t47 36.5t40 40.5t16.5 49q0 34 -23.5 54.5t-61.5 20.5q-53 0 -94 -43.5
t-41 -146.5z" />
    <glyph glyph-name="agrave" unicode="&#xe0;" horiz-adv-x="525" 
d="M420 355v-270q0 -38 11 -51.5t44 -13.5h5v-20h-115v65l-26 -15l-28 -17l-33 -19q-60 -33 -107 -29q-50 0 -78 24t-28 66q0 55 54.5 100.5t175.5 104.5l70 34v41q-1 58 -18 76q-16 19 -67 19q-49 0 -95 -23q-45 -23 -45 -52q0 -5 2.5 -22t2.5 -19q2 -24 -18 -34t-40 0
t-17 35q0 44 71 92q72 48 154 48q76 0 100 -30q25 -29 25 -90zM336 68l29 17v210l-70 -35q-170 -86 -170 -170q0 -34 22.5 -52t57.5 -18q19 0 42 6.5t39 14.5t32 17t18 10zM125 720h85l105 -160h-15z" />
    <glyph glyph-name="aacute" unicode="&#xe1;" horiz-adv-x="525" 
d="M420 355v-270q0 -38 11 -51.5t44 -13.5h5v-20h-115v65l-26 -15l-28 -17l-33 -19q-60 -33 -107 -29q-50 0 -78 24t-28 66q0 55 54.5 100.5t175.5 104.5l70 34v41q-1 58 -18 76q-16 19 -67 19q-49 0 -95 -23q-45 -23 -45 -52q0 -5 2.5 -22t2.5 -19q2 -24 -18 -34t-40 0
t-17 35q0 44 71 92q72 48 154 48q76 0 100 -30q25 -29 25 -90zM336 68l29 17v210l-70 -35q-170 -86 -170 -170q0 -34 22.5 -52t57.5 -18q19 0 42 6.5t39 14.5t32 17t18 10zM230 560h-15l105 160h85z" />
    <glyph glyph-name="acircumflex" unicode="&#xe2;" horiz-adv-x="525" 
d="M420 355v-270q0 -38 11 -51.5t44 -13.5h5v-20h-115v65l-26 -15l-28 -17l-33 -19q-60 -33 -107 -29q-50 0 -78 24t-28 66q0 55 54.5 100.5t175.5 104.5l70 34v41q-1 58 -18 76q-16 19 -67 19q-49 0 -95 -23q-45 -23 -45 -52q0 -5 2.5 -22t2.5 -19q2 -24 -18 -34t-40 0
t-17 35q0 44 71 92q72 48 154 48q76 0 100 -30q25 -29 25 -90zM336 68l29 17v210l-70 -35q-170 -86 -170 -170q0 -34 22.5 -52t57.5 -18q19 0 42 6.5t39 14.5t32 17t18 10zM410 560h-15l-135 85l-135 -85h-15l143 145h14z" />
    <glyph glyph-name="atilde" unicode="&#xe3;" horiz-adv-x="525" 
d="M420 355v-270q0 -38 11 -51.5t44 -13.5h5v-20h-115v65l-26 -15l-28 -17l-33 -19q-60 -33 -107 -29q-50 0 -78 24t-28 66q0 55 54.5 100.5t175.5 104.5l70 34v41q-1 58 -18 76q-16 19 -67 19q-49 0 -95 -23q-45 -23 -45 -52q0 -5 2.5 -22t2.5 -19q2 -24 -18 -34t-40 0
t-17 35q0 44 71 92q72 48 154 48q76 0 100 -30q25 -29 25 -90zM336 68l29 17v210l-70 -35q-170 -86 -170 -170q0 -34 22.5 -52t57.5 -18q19 0 42 6.5t39 14.5t32 17t18 10zM104 586l-4 -16h-15q0 10 9 40q26 75 91 75q31 0 84 -30t81 -30q25 0 43.5 15.5t22.5 33.5l4 16h15
q0 -10 -10 -40q-9 -31 -31.5 -53t-58.5 -22q-30 0 -84 30q-53 30 -81 30q-25 0 -43.5 -15.5t-22.5 -33.5z" />
    <glyph glyph-name="adieresis" unicode="&#xe4;" horiz-adv-x="525" 
d="M420 355v-270q0 -38 11 -51.5t44 -13.5h5v-20h-115v65l-26 -15l-28 -17l-33 -19q-60 -33 -107 -29q-50 0 -78 24t-28 66q0 55 54.5 100.5t175.5 104.5l70 34v41q-1 58 -18 76q-16 19 -67 19q-49 0 -95 -23q-45 -23 -45 -52q0 -5 2.5 -22t2.5 -19q2 -24 -18 -34t-40 0
t-17 35q0 44 71 92q72 48 154 48q76 0 100 -30q25 -29 25 -90zM336 68l29 17v210l-70 -35q-170 -86 -170 -170q0 -34 22.5 -52t57.5 -18q19 0 42 6.5t39 14.5t32 17t18 10zM124 594q-14 15 -14 36t14 35q15 15 36 15t35 -15q15 -14 15 -35t-15 -36q-14 -14 -35 -14t-36 14z
M324 594q-14 15 -14 36t14 35q15 15 36 15t35 -15q15 -14 15 -35t-15 -36q-14 -14 -35 -14t-36 14z" />
    <glyph glyph-name="aring" unicode="&#xe5;" horiz-adv-x="525" 
d="M420 355v-270q0 -38 11 -51.5t44 -13.5h5v-20h-115v65l-26 -15l-28 -17l-33 -19q-60 -33 -107 -29q-50 0 -78 24t-28 66q0 55 54.5 100.5t175.5 104.5l70 34v41q-1 58 -18 76q-16 19 -67 19q-49 0 -95 -23q-45 -23 -45 -52q0 -5 2.5 -22t2.5 -19q2 -24 -18 -34t-40 0
t-17 35q0 44 71 92q72 48 154 48q76 0 100 -30q25 -29 25 -90zM336 68l29 17v210l-70 -35q-170 -86 -170 -170q0 -34 22.5 -52t57.5 -18q19 0 42 6.5t39 14.5t32 17t18 10zM196 581q-26 27 -26 64t26 63q26 27 64 27t64 -27q26 -26 26 -63t-26 -64q-26 -26 -64 -26t-64 26z
M214 691q-19 -19 -19 -46t19 -46t46 -19t46 19t19 46t-19 46t-46 19t-46 -19z" />
    <glyph glyph-name="ae" unicode="&#xe6;" horiz-adv-x="595" 
d="M410 -15q-96 0 -132 109q-12 -52 -45.5 -80.5t-74.5 -28.5q-49 0 -78.5 25.5t-29.5 69.5q0 55 46 104t146 117l18 13l1 41q-2 54 -15.5 74.5t-44.5 20.5q-26 0 -52 -23q-24 -23 -24 -52q0 -5 2.5 -22t2.5 -19q2 -24 -18 -34t-40 0t-17 35q0 43 53 91q53 49 108 49
q70 0 85 -65q39 65 104 65q73 0 106 -59q34 -58 34 -146v-10h-230v-30q0 -101 30 -155.5t80 -54.5q37 0 63 29q25 28 31 57l6 29h20q-3 -22 -13 -52q-29 -94 -122 -98zM260 175v119l-18 -15q-58 -49 -90 -87q-42 -48 -42 -102q0 -75 63 -75q36 0 61.5 40.5t25.5 119.5z
M400 450q-72 0 -84 -165h164q0 165 -80 165z" />
    <glyph glyph-name="ccedilla" unicode="&#xe7;" horiz-adv-x="501" 
d="M434 123l4 12l20 -5q-2 -17 -21 -50q-46 -89 -172 -95l-19 -40q92 -3 92 -75q0 -31 -26.5 -53t-68.5 -22q-33 0 -54 13l-6 5l8 15q17 -13 44 -13q25 0 39 14.5t14 38.5q0 32 -24 43q-22 10 -41 4l-12 5l33 66q-86 8 -141 73q-55 67 -55 171q0 110 63 178q63 67 162 67
q70 0 117 -38q48 -37 48 -87q0 -24 -11.5 -37t-30.5 -13q-17 0 -27.5 10.5t-10.5 28.5q0 8 5 26.5t5 24.5q0 25 -26 42.5t-74 17.5q-69 0 -112 -57.5t-43 -162.5q0 -100 51 -156q52 -54 119 -54q65 0 102 34t49 69z" />
    <glyph glyph-name="egrave" unicode="&#xe8;" horiz-adv-x="516" 
d="M113 230q0 -100 51 -156q52 -54 119 -54q65 0 102 34t49 69l4 12l20 -5q-2 -17 -21 -50q-12 -23 -34 -45q-20 -20 -58.5 -35t-81.5 -15q-93 0 -154 67t-61 178q0 113 63 179t157 66q96 0 148 -60q52 -59 52 -145v-10h-354q-1 -7 -1 -30zM263 450q-56 0 -96 -43t-51 -122
h287q0 78 -37.5 121.5t-102.5 43.5zM123 720h85l105 -160h-15z" />
    <glyph glyph-name="eacute" unicode="&#xe9;" horiz-adv-x="516" 
d="M113 230q0 -100 51 -156q52 -54 119 -54q65 0 102 34t49 69l4 12l20 -5q-2 -17 -21 -50q-12 -23 -34 -45q-20 -20 -58.5 -35t-81.5 -15q-93 0 -154 67t-61 178q0 113 63 179t157 66q96 0 148 -60q52 -59 52 -145v-10h-354q-1 -7 -1 -30zM263 450q-56 0 -96 -43t-51 -122
h287q0 78 -37.5 121.5t-102.5 43.5zM218 560h-15l105 160h85z" />
    <glyph glyph-name="ecircumflex" unicode="&#xea;" horiz-adv-x="516" 
d="M113 230q0 -100 51 -156q52 -54 119 -54q65 0 102 34t49 69l4 12l20 -5q-2 -17 -21 -50q-12 -23 -34 -45q-20 -20 -58.5 -35t-81.5 -15q-93 0 -154 67t-61 178q0 113 63 179t157 66q96 0 148 -60q52 -59 52 -145v-10h-354q-1 -7 -1 -30zM263 450q-56 0 -96 -43t-51 -122
h287q0 78 -37.5 121.5t-102.5 43.5zM413 560h-15l-135 85l-135 -85h-15l143 145h14z" />
    <glyph glyph-name="edieresis" unicode="&#xeb;" horiz-adv-x="516" 
d="M113 230q0 -100 51 -156q52 -54 119 -54q65 0 102 34t49 69l4 12l20 -5q-2 -17 -21 -50q-12 -23 -34 -45q-20 -20 -58.5 -35t-81.5 -15q-93 0 -154 67t-61 178q0 113 63 179t157 66q96 0 148 -60q52 -59 52 -145v-10h-354q-1 -7 -1 -30zM263 450q-56 0 -96 -43t-51 -122
h287q0 78 -37.5 121.5t-102.5 43.5zM122 594q-14 15 -14 36t14 35q15 15 36 15t35 -15q15 -14 15 -35t-15 -36q-14 -14 -35 -14t-36 14zM322 594q-14 15 -14 36t14 35q15 15 36 15t35 -15q15 -14 15 -35t-15 -36q-14 -14 -35 -14t-36 14z" />
    <glyph glyph-name="igrave" unicode="&#xec;" horiz-adv-x="455" 
d="M255 480h10v-385q0 -49 14 -63q15 -12 81 -12h65v-20h-375v20h65q67 0 80 12q15 14 15 63v300q0 31 -6 38t-39 7h-85v20h45q102 0 130 20zM90 720h85l105 -160h-15z" />
    <glyph glyph-name="iacute" unicode="&#xed;" horiz-adv-x="455" 
d="M255 480h10v-385q0 -49 14 -63q15 -12 81 -12h65v-20h-375v20h65q67 0 80 12q15 14 15 63v300q0 31 -6 38t-39 7h-85v20h45q102 0 130 20zM195 560h-15l105 160h85z" />
    <glyph glyph-name="icircumflex" unicode="&#xee;" horiz-adv-x="455" 
d="M255 480h10v-385q0 -49 14 -63q15 -12 81 -12h65v-20h-375v20h65q67 0 80 12q15 14 15 63v300q0 31 -6 38t-39 7h-85v20h45q102 0 130 20zM385 560h-15l-135 85l-135 -85h-15l143 145h14z" />
    <glyph glyph-name="idieresis" unicode="&#xef;" horiz-adv-x="455" 
d="M255 480h10v-385q0 -49 14 -63q15 -12 81 -12h65v-20h-375v20h65q67 0 80 12q15 14 15 63v300q0 31 -6 38t-39 7h-85v20h45q102 0 130 20zM69 594q-14 15 -14 36t14 35q15 15 36 15t35 -15q15 -14 15 -35t-15 -36q-14 -14 -35 -14t-36 14zM299 594q-14 15 -14 36t14 35
q15 15 36 15t35 -15q15 -14 15 -35t-15 -36q-14 -14 -35 -14t-36 14z" />
    <glyph glyph-name="eth" unicode="&#xf0;" horiz-adv-x="526" 
d="M281 589l-97 -56l-13 22l90 52q-76 66 -136 85l-22 8l10 15q87 -26 175 -93l100 58l13 -22l-91 -53q168 -139 168 -345q0 -124 -62 -200q-62 -75 -153 -75q-92 0 -153 67q-62 68 -62 168t59 168q58 67 146 67q54 0 91.5 -26.5t53.5 -54.5l5 -9h5q-35 135 -127 224z
M369 66q44 58 44 154q0 97 -44 153q-43 57 -106 57t-107 -57q-43 -55 -43 -153t43 -154q44 -56 107 -56q62 0 106 56z" />
    <glyph glyph-name="ntilde" unicode="&#xf1;" horiz-adv-x="545" 
d="M150 480h10v-105l28 27q18 16 63 45q46 28 79 28q55 0 87.5 -34.5t32.5 -85.5v-270q0 -38 11 -51.5t44 -13.5h5v-20h-175v20h5q33 0 44 13.5t11 51.5v270q0 37 -23 61t-62 24q-29 0 -67 -23q-37 -23 -60 -45l-23 -22v-265q0 -38 11 -51.5t44 -13.5h5v-20h-175v20h5
q33 0 44 13.5t11 51.5v290q0 38 -11 51.5t-44 13.5h-5v20h5q72 0 100 20zM119 586l-4 -16h-15q0 10 9 40q26 75 91 75q32 0 84 -30q54 -30 81 -30q25 0 43.5 15.5t22.5 33.5l4 16h15q0 -10 -10 -40q-9 -31 -31.5 -53t-58.5 -22q-30 0 -84 30t-81 30q-25 0 -43.5 -15.5
t-22.5 -33.5z" />
    <glyph glyph-name="ograve" unicode="&#xf2;" horiz-adv-x="526" 
d="M110 54q-62 70 -62 176t62 176q62 69 153 69t153 -69q62 -70 62 -176t-62 -176q-62 -69 -153 -69t-153 69zM156 392q-43 -58 -43 -162t43 -162t107 -58t107 58t43 162t-43 162t-107 58t-107 -58zM118 720h85l105 -160h-15z" />
    <glyph glyph-name="oacute" unicode="&#xf3;" horiz-adv-x="526" 
d="M110 54q-62 70 -62 176t62 176q62 69 153 69t153 -69q62 -70 62 -176t-62 -176q-62 -69 -153 -69t-153 69zM156 392q-43 -58 -43 -162t43 -162t107 -58t107 58t43 162t-43 162t-107 58t-107 -58zM223 560h-15l105 160h85z" />
    <glyph glyph-name="ocircumflex" unicode="&#xf4;" horiz-adv-x="526" 
d="M110 54q-62 70 -62 176t62 176q62 69 153 69t153 -69q62 -70 62 -176t-62 -176q-62 -69 -153 -69t-153 69zM156 392q-43 -58 -43 -162t43 -162t107 -58t107 58t43 162t-43 162t-107 58t-107 -58zM413 560h-15l-135 85l-135 -85h-15l143 145h14z" />
    <glyph glyph-name="otilde" unicode="&#xf5;" horiz-adv-x="526" 
d="M110 54q-62 70 -62 176t62 176q62 69 153 69t153 -69q62 -70 62 -176t-62 -176q-62 -69 -153 -69t-153 69zM156 392q-43 -58 -43 -162t43 -162t107 -58t107 58t43 162t-43 162t-107 58t-107 -58zM107 586l-4 -16h-15q0 10 9 40q26 75 91 75q30 0 84 -30t81 -30
q25 0 43.5 15.5t22.5 33.5l4 16h15q0 -10 -10 -40q-9 -31 -31.5 -53t-58.5 -22q-30 0 -84 30q-52 30 -81 30q-25 0 -43.5 -15.5t-22.5 -33.5z" />
    <glyph glyph-name="odieresis" unicode="&#xf6;" horiz-adv-x="526" 
d="M110 54q-62 70 -62 176t62 176q62 69 153 69t153 -69q62 -70 62 -176t-62 -176q-62 -69 -153 -69t-153 69zM156 392q-43 -58 -43 -162t43 -162t107 -58t107 58t43 162t-43 162t-107 58t-107 -58zM127 594q-14 15 -14 36t14 35q15 15 36 15t35 -15q15 -14 15 -35t-15 -36
q-14 -14 -35 -14t-36 14zM327 594q-14 15 -14 36t14 35q15 15 36 15t35 -15q15 -14 15 -35t-15 -36q-14 -14 -35 -14t-36 14z" />
    <glyph glyph-name="divide" unicode="&#xf7;" horiz-adv-x="530" 
d="M460 345h-390v25h390v-25zM229 169q-14 15 -14 36t14 35q15 15 36 15t35 -15q15 -14 15 -35t-15 -36q-14 -14 -35 -14t-36 14zM229 474q-14 15 -14 36t14 35q15 15 36 15t35 -15q15 -14 15 -35t-15 -36q-14 -14 -35 -14t-36 14z" />
    <glyph glyph-name="oslash" unicode="&#xf8;" horiz-adv-x="526" 
d="M407 415l39 45h32l-55 -63q55 -70 55 -167q0 -106 -62 -176q-62 -69 -153 -69q-86 0 -145 59l-38 -44h-32l54 63q-54 67 -54 167q0 106 62 176q62 69 153 69q84 0 144 -60zM413 230q0 74 -24 127l-241 -278q42 -69 115 -69q66 0 108 59t42 161zM113 230q0 -74 23 -128
l241 278q-43 70 -114 70q-66 0 -108 -59t-42 -161z" />
    <glyph glyph-name="ugrave" unicode="&#xf9;" horiz-adv-x="543" 
d="M433 480h10v-395q0 -38 11 -51.5t44 -13.5h5v-20h-5q-76 0 -100 -10h-10v95l-29 -28q-14 -14 -63 -44q-44 -28 -78 -28q-55 0 -87.5 34.5t-32.5 85.5v270q0 38 -11 51.5t-44 13.5h-5v20h5q72 0 100 20h10v-375q0 -37 23 -61t62 -24q29 0 66 22t61 46l23 22v265
q0 38 -11 51.5t-44 13.5h-5v20h5q72 0 100 20zM128 720h85l105 -160h-15z" />
    <glyph glyph-name="uacute" unicode="&#xfa;" horiz-adv-x="543" 
d="M433 480h10v-395q0 -38 11 -51.5t44 -13.5h5v-20h-5q-76 0 -100 -10h-10v95l-29 -28q-14 -14 -63 -44q-44 -28 -78 -28q-55 0 -87.5 34.5t-32.5 85.5v270q0 38 -11 51.5t-44 13.5h-5v20h5q72 0 100 20h10v-375q0 -37 23 -61t62 -24q29 0 66 22t61 46l23 22v265
q0 38 -11 51.5t-44 13.5h-5v20h5q72 0 100 20zM223 560h-15l105 160h85z" />
    <glyph glyph-name="ucircumflex" unicode="&#xfb;" horiz-adv-x="543" 
d="M433 480h10v-395q0 -38 11 -51.5t44 -13.5h5v-20h-5q-76 0 -100 -10h-10v95l-29 -28q-14 -14 -63 -44q-44 -28 -78 -28q-55 0 -87.5 34.5t-32.5 85.5v270q0 38 -11 51.5t-44 13.5h-5v20h5q72 0 100 20h10v-375q0 -37 23 -61t62 -24q29 0 66 22t61 46l23 22v265
q0 38 -11 51.5t-44 13.5h-5v20h5q72 0 100 20zM423 560h-15l-135 85l-135 -85h-15l143 145h14z" />
    <glyph glyph-name="udieresis" unicode="&#xfc;" horiz-adv-x="543" 
d="M433 480h10v-395q0 -38 11 -51.5t44 -13.5h5v-20h-5q-76 0 -100 -10h-10v95l-29 -28q-14 -14 -63 -44q-44 -28 -78 -28q-55 0 -87.5 34.5t-32.5 85.5v270q0 38 -11 51.5t-44 13.5h-5v20h5q72 0 100 20h10v-375q0 -37 23 -61t62 -24q29 0 66 22t61 46l23 22v265
q0 38 -11 51.5t-44 13.5h-5v20h5q72 0 100 20zM337 594q-14 15 -14 36t14 35q15 15 36 15t35 -15q15 -14 15 -35t-15 -36q-14 -14 -35 -14t-36 14zM137 594q-14 15 -14 36t14 35q15 15 36 15t35 -15q15 -14 15 -35t-15 -36q-14 -14 -35 -14t-36 14z" />
    <glyph glyph-name="yacute" unicode="&#xfd;" horiz-adv-x="535" 
d="M345 460h160v-20q-44 0 -62 -26q-13 -18 -28 -59l-152 -432q-29 -83 -50 -115q-19 -33 -58 -33q-32 0 -51 20t-19 50q0 22 12 36t28 14q40 0 40 -42q0 -6 -0.5 -14.5t-0.5 -12.5t1 -8.5t3.5 -6t6.5 -1.5q14 0 26 24t39 99l24 67l-154 360q-23 52 -34 63q-17 17 -51 17v20
h175v-20q-29 0 -41 -9q-15 -9 5 -56l127 -297l99 280q28 82 -40 82h-5v20zM250 560h-15l105 160h85z" />
    <glyph glyph-name="thorn" unicode="&#xfe;" horiz-adv-x="528" 
d="M130 730h10v-330q18 23 20 26q45 49 115 49q93 0 149 -68t56 -177t-59 -177t-156 -68q-37 0 -69 11.5t-45 25.5l-11 13v-160q0 -38 11 -51.5t44 -13.5h10v-20h-180v20h5q33 0 44 13.5t11 51.5v740q0 38 -11 51.5t-44 13.5h-5v20h5q70 0 100 30zM265 450q-57 0 -91 -42
q-34 -41 -34 -98v-210q0 -30 31 -60q32 -30 94 -30q70 0 110 58t40 162t-40 162t-110 58z" />
    <glyph glyph-name="ydieresis" unicode="&#xff;" horiz-adv-x="535" 
d="M345 460h160v-20q-44 0 -62 -26q-13 -18 -28 -59l-152 -432q-29 -83 -50 -115q-19 -33 -58 -33q-32 0 -51 20t-19 50q0 22 12 36t28 14q40 0 40 -42q0 -6 -0.5 -14.5t-0.5 -12.5t1 -8.5t3.5 -6t6.5 -1.5q14 0 26 24t39 99l24 67l-154 360q-23 52 -34 63q-17 17 -51 17v20
h175v-20q-29 0 -41 -9q-15 -9 5 -56l127 -297l99 280q28 82 -40 82h-5v20zM339 594q-14 15 -14 36t14 35q15 15 36 15t35 -15q15 -14 15 -35t-15 -36q-14 -14 -35 -14t-36 14zM139 594q-14 15 -14 36t14 35q15 15 36 15t35 -15q15 -14 15 -35t-15 -36q-14 -14 -35 -14
t-36 14z" />
    <glyph glyph-name="Amacron" unicode="&#x100;" horiz-adv-x="500" 
d="M95 105l147 605h20l149 -613q12 -47 26.5 -62t52.5 -15v-20h-185v20h5q35 0 44 14t-1 51l-37 150h-164l-32 -133q-13 -40 -2 -61t52 -21h5v-20h-165v20q39 0 57 19.5t28 65.5zM310 260l-76 313l-76 -313h152zM420 785h-340v25h340v-25z" />
    <glyph glyph-name="amacron" unicode="&#x101;" horiz-adv-x="525" 
d="M420 355v-270q0 -38 11 -51.5t44 -13.5h5v-20h-115v65l-26 -15l-28 -17l-33 -19q-60 -33 -107 -29q-50 0 -78 24t-28 66q0 55 54.5 100.5t175.5 104.5l70 34v41q-1 58 -18 76q-16 19 -67 19q-49 0 -95 -23q-45 -23 -45 -52q0 -5 2.5 -22t2.5 -19q2 -24 -18 -34t-40 0
t-17 35q0 44 71 92q72 48 154 48q76 0 100 -30q25 -29 25 -90zM336 68l29 17v210l-70 -35q-170 -86 -170 -170q0 -34 22.5 -52t57.5 -18q19 0 42 6.5t39 14.5t32 17t18 10zM425 595h-340v25h340v-25z" />
    <glyph glyph-name="Abreve" unicode="&#x102;" horiz-adv-x="500" 
d="M95 105l147 605h20l149 -613q12 -47 26.5 -62t52.5 -15v-20h-185v20h5q35 0 44 14t-1 51l-37 150h-164l-32 -133q-13 -40 -2 -61t52 -21h5v-20h-165v20q39 0 57 19.5t28 65.5zM310 260l-76 313l-76 -313h152zM110 885h15q0 -28 33.5 -51.5t91.5 -23.5t91.5 23.5
t33.5 51.5h15q0 -45 -39 -86q-37 -39 -101 -39q-63 0 -102 39q-38 41 -38 86z" />
    <glyph glyph-name="abreve" unicode="&#x103;" horiz-adv-x="525" 
d="M420 355v-270q0 -38 11 -51.5t44 -13.5h5v-20h-115v65l-26 -15l-28 -17l-33 -19q-60 -33 -107 -29q-50 0 -78 24t-28 66q0 55 54.5 100.5t175.5 104.5l70 34v41q-1 58 -18 76q-16 19 -67 19q-49 0 -95 -23q-45 -23 -45 -52q0 -5 2.5 -22t2.5 -19q2 -24 -18 -34t-40 0
t-17 35q0 44 71 92q72 48 154 48q76 0 100 -30q25 -29 25 -90zM336 68l29 17v210l-70 -35q-170 -86 -170 -170q0 -34 22.5 -52t57.5 -18q19 0 42 6.5t39 14.5t32 17t18 10zM115 685h15q0 -26 31 -53t94 -27t94 27t31 53h15q0 -47 -39 -89q-38 -41 -101 -41t-102 41
q-38 43 -38 89z" />
    <glyph glyph-name="Aogonek" unicode="&#x104;" horiz-adv-x="500" 
d="M420 -6l10 6h-125v20h5q35 0 44 14t-1 51l-37 150h-164l-32 -133q-13 -40 -2 -61t52 -21h5v-20h-165v20q39 0 57 19.5t28 65.5l147 605h20l149 -613q12 -47 26.5 -62t52.5 -15v-20h-30l-4 -2q-5 -3 -12 -7.5t-15.5 -11t-17 -15.5t-15.5 -19.5t-11.5 -23.5t-4.5 -26
q0 -26 13.5 -40.5t36.5 -14.5q12 0 24 6t16 12l5 7l5 -5q-1 -2 -2.5 -6t-8 -13.5t-14.5 -16.5t-21.5 -13t-28.5 -6q-29 0 -49.5 19.5t-20.5 50.5q0 38 29 71.5t56 47.5zM310 260l-76 313l-76 -313h152z" />
    <glyph glyph-name="aogonek" unicode="&#x105;" horiz-adv-x="525" 
d="M420 -6l10 6h-65v65l-26 -15l-28 -17l-33 -19q-60 -33 -107 -29q-50 0 -78 24t-28 66q0 55 54.5 100.5t175.5 104.5l70 34v41q-1 58 -18 76q-16 19 -67 19q-49 0 -95 -23q-45 -23 -45 -52q0 -5 2.5 -22t2.5 -19q2 -24 -18 -34t-40 0t-17 35q0 44 71 92q72 48 154 48
q76 0 100 -30q25 -29 25 -90v-270q0 -38 11 -51.5t44 -13.5h5v-20h-20l-4 -2q-5 -3 -12 -7.5t-15.5 -11t-17 -15.5t-15.5 -19.5t-11.5 -23.5t-4.5 -26q0 -26 13.5 -40.5t36.5 -14.5q12 0 24 6t16 12l5 7l5 -5q-1 -2 -2.5 -6t-8 -13.5t-14.5 -16.5t-21.5 -13t-28.5 -6
q-29 0 -49.5 19.5t-20.5 50.5q0 38 29 71.5t56 47.5zM336 68l29 17v210l-70 -35q-170 -86 -170 -170q0 -34 22.5 -52t57.5 -18q19 0 42 6.5t39 14.5t32 17t18 10z" />
    <glyph glyph-name="Cacute" unicode="&#x106;" horiz-adv-x="480" 
d="M110 350q0 -159 45 -244.5t115 -85.5q36 0 64.5 17t45 43.5t25 49t12.5 42.5l3 18l20 -5q-2 -23 -21 -70q-14 -35 -31 -61q-20 -29 -54.5 -49t-73.5 -20q-93 0 -157 99q-63 99 -63 266t63 266q64 99 157 99q25 0 49 -8t35 -18l11 -9l48 30l37 -210l-20 -5q-10 37 -23 67
q-12 31 -31 60t-47.5 48.5t-58.5 19.5q-64 0 -107 -90q-43 -87 -43 -250zM220 760h-15l105 160h85z" />
    <glyph glyph-name="cacute" unicode="&#x107;" horiz-adv-x="501" 
d="M434 123l4 12l20 -5q-2 -17 -21 -50q-12 -23 -34 -45q-20 -20 -58.5 -35t-81.5 -15q-93 0 -154 67t-61 178q0 110 63 178q63 67 162 67q70 0 117 -38q48 -37 48 -87q0 -24 -11.5 -37t-30.5 -13q-17 0 -27.5 10.5t-10.5 28.5q0 8 5 26.5t5 24.5q0 25 -26 42.5t-74 17.5
q-69 0 -112 -57.5t-43 -162.5q0 -100 51 -156q52 -54 119 -54q65 0 102 34t49 69zM223 560h-15l105 160h85z" />
    <glyph glyph-name="Ccircumflex" unicode="&#x108;" horiz-adv-x="480" 
d="M110 350q0 -159 45 -244.5t115 -85.5q36 0 64.5 17t45 43.5t25 49t12.5 42.5l3 18l20 -5q-2 -23 -21 -70q-14 -35 -31 -61q-20 -29 -54.5 -49t-73.5 -20q-93 0 -157 99q-63 99 -63 266t63 266q64 99 157 99q25 0 49 -8t35 -18l11 -9l48 30l37 -210l-20 -5q-10 37 -23 67
q-12 31 -31 60t-47.5 48.5t-58.5 19.5q-64 0 -107 -90q-43 -87 -43 -250zM410 760h-15l-145 85l-145 -85h-15l153 145h14z" />
    <glyph glyph-name="ccircumflex" unicode="&#x109;" horiz-adv-x="501" 
d="M434 123l4 12l20 -5q-2 -17 -21 -50q-12 -23 -34 -45q-20 -20 -58.5 -35t-81.5 -15q-93 0 -154 67t-61 178q0 110 63 178q63 67 162 67q70 0 117 -38q48 -37 48 -87q0 -24 -11.5 -37t-30.5 -13q-17 0 -27.5 10.5t-10.5 28.5q0 8 5 26.5t5 24.5q0 25 -26 42.5t-74 17.5
q-69 0 -112 -57.5t-43 -162.5q0 -100 51 -156q52 -54 119 -54q65 0 102 34t49 69zM408 560h-15l-135 85l-135 -85h-15l143 145h14z" />
    <glyph glyph-name="Cdotaccent" unicode="&#x10a;" horiz-adv-x="480" 
d="M110 350q0 -159 45 -244.5t115 -85.5q36 0 64.5 17t45 43.5t25 49t12.5 42.5l3 18l20 -5q-2 -23 -21 -70q-14 -35 -31 -61q-20 -29 -54.5 -49t-73.5 -20q-93 0 -157 99q-63 99 -63 266t63 266q64 99 157 99q25 0 49 -8t35 -18l11 -9l48 30l37 -210l-20 -5q-10 37 -23 67
q-12 31 -31 60t-47.5 48.5t-58.5 19.5q-64 0 -107 -90q-43 -87 -43 -250zM209 784q-14 15 -14 36t14 35q15 15 36 15t35 -15q15 -14 15 -35t-15 -36q-14 -14 -35 -14t-36 14z" />
    <glyph glyph-name="cdotaccent" unicode="&#x10b;" horiz-adv-x="501" 
d="M434 123l4 12l20 -5q-2 -17 -21 -50q-12 -23 -34 -45q-20 -20 -58.5 -35t-81.5 -15q-93 0 -154 67t-61 178q0 110 63 178q63 67 162 67q70 0 117 -38q48 -37 48 -87q0 -24 -11.5 -37t-30.5 -13q-17 0 -27.5 10.5t-10.5 28.5q0 8 5 26.5t5 24.5q0 25 -26 42.5t-74 17.5
q-69 0 -112 -57.5t-43 -162.5q0 -100 51 -156q52 -54 119 -54q65 0 102 34t49 69zM217 594q-14 15 -14 36t14 35q15 15 36 15t35 -15q15 -14 15 -35t-15 -36q-14 -14 -35 -14t-36 14z" />
    <glyph glyph-name="Ccaron" unicode="&#x10c;" horiz-adv-x="480" 
d="M110 350q0 -159 45 -244.5t115 -85.5q36 0 64.5 17t45 43.5t25 49t12.5 42.5l3 18l20 -5q-2 -23 -21 -70q-14 -35 -31 -61q-20 -29 -54.5 -49t-73.5 -20q-93 0 -157 99q-63 99 -63 266t63 266q64 99 157 99q25 0 49 -8t35 -18l11 -9l48 30l37 -210l-20 -5q-10 37 -23 67
q-12 31 -31 60t-47.5 48.5t-58.5 19.5q-64 0 -107 -90q-43 -87 -43 -250zM90 905h15l145 -85l145 85h15l-153 -145h-14z" />
    <glyph glyph-name="ccaron" unicode="&#x10d;" horiz-adv-x="501" 
d="M434 123l4 12l20 -5q-2 -17 -21 -50q-12 -23 -34 -45q-20 -20 -58.5 -35t-81.5 -15q-93 0 -154 67t-61 178q0 110 63 178q63 67 162 67q70 0 117 -38q48 -37 48 -87q0 -24 -11.5 -37t-30.5 -13q-17 0 -27.5 10.5t-10.5 28.5q0 8 5 26.5t5 24.5q0 25 -26 42.5t-74 17.5
q-69 0 -112 -57.5t-43 -162.5q0 -100 51 -156q52 -54 119 -54q65 0 102 34t49 69zM108 700h15l135 -85l135 85h15l-143 -145h-14z" />
    <glyph glyph-name="Dcaron" unicode="&#x10e;" horiz-adv-x="545" 
d="M215 0h-175v20h5q40 0 52.5 13t12.5 52v530q0 39 -12.5 52t-52.5 13h-5v20h175q125 0 208 -92q82 -91 82 -258t-82 -258q-83 -92 -208 -92zM215 675q-26 0 -35.5 -13t-9.5 -47v-530q0 -34 9.5 -47t35.5 -13q93 0 156 80q64 80 64 245t-64 244q-65 81 -156 81zM80 905h15
l145 -85l145 85h15l-153 -145h-14z" />
    <glyph glyph-name="dcaron" unicode="&#x10f;" horiz-adv-x="640" 
d="M545 795q40 0 63 -35q22 -34 22 -75q0 -59 -28 -99.5t-56 -55.5l-10 -6l-10 15l20 13q14 9 33 39q21 31 21 64q0 45 -30 45q-1 0 -10.5 -2.5t-14.5 -2.5q-21 0 -35.5 14.5t-14.5 35.5t14.5 35.5t35.5 14.5zM433 730h10v-645q0 -38 11 -51.5t44 -13.5h5v-20h-5
q-76 0 -100 -10h-10v70q-18 -23 -20 -26q-45 -49 -115 -49q-94 0 -149.5 66.5t-55.5 178.5q0 109 59 177t156 68q37 0 69 -11.5t45 -25.5l11 -13v190q0 38 -11 51.5t-44 13.5h-5v20h5q70 0 100 30zM263 10q57 0 91 42q34 41 34 98v190q0 48 -31.5 79t-93.5 31
q-68 0 -109 -59.5t-41 -160.5q0 -103 40.5 -161.5t109.5 -58.5z" />
    <glyph glyph-name="Dcroat" unicode="&#x110;" horiz-adv-x="545" 
d="M110 345h-70v25h70v245q0 39 -12.5 52t-52.5 13h-5v20h175q125 0 208 -92q82 -91 82 -258t-82 -258q-83 -92 -208 -92h-175v20h5q40 0 52.5 13t12.5 52v260zM215 675q-26 0 -35.5 -13t-9.5 -47v-245h150v-25h-150v-260q0 -34 9.5 -47t35.5 -13q93 0 156 80q64 80 64 245
t-64 244q-65 81 -156 81z" />
    <glyph glyph-name="dslash" unicode="&#x111;" horiz-adv-x="538" 
d="M443 570h75v-25h-75v-460q0 -38 11 -51.5t44 -13.5h5v-20h-5q-76 0 -100 -10h-10v70q-18 -23 -20 -26q-45 -49 -115 -49q-94 0 -149.5 66.5t-55.5 178.5q0 109 59 177t156 68q37 0 69 -11.5t45 -25.5l11 -13v120h-100v25h100v45q0 38 -11 51.5t-44 13.5h-5v20h5
q70 0 100 30h10v-160zM263 10q57 0 91 42q34 41 34 98v190q0 48 -31.5 79t-93.5 31q-68 0 -109 -59.5t-41 -160.5q0 -103 40.5 -161.5t109.5 -58.5z" />
    <glyph glyph-name="Emacron" unicode="&#x112;" horiz-adv-x="530" 
d="M485 160l-37 -160h-408v20h5q40 0 52.5 13t12.5 52v530q0 39 -12.5 52t-52.5 13h-5v20h398l37 -160l-20 -5q-42 140 -160 140h-60q-39 0 -52 -12t-13 -48v-245h70q43 0 64 15.5t21 54.5v5h20v-175h-20v5q0 39 -21 54.5t-64 15.5h-70v-260q0 -36 13 -48t52 -12h70
q118 0 160 140zM430 785h-340v25h340v-25z" />
    <glyph glyph-name="emacron" unicode="&#x113;" horiz-adv-x="516" 
d="M113 230q0 -100 51 -156q52 -54 119 -54q65 0 102 34t49 69l4 12l20 -5q-2 -17 -21 -50q-12 -23 -34 -45q-20 -20 -58.5 -35t-81.5 -15q-93 0 -154 67t-61 178q0 113 63 179t157 66q96 0 148 -60q52 -59 52 -145v-10h-354q-1 -7 -1 -30zM263 450q-56 0 -96 -43t-51 -122
h287q0 78 -37.5 121.5t-102.5 43.5zM428 595h-340v25h340v-25z" />
    <glyph glyph-name="Ebreve" unicode="&#x114;" horiz-adv-x="530" 
d="M485 160l-37 -160h-408v20h5q40 0 52.5 13t12.5 52v530q0 39 -12.5 52t-52.5 13h-5v20h398l37 -160l-20 -5q-42 140 -160 140h-60q-39 0 -52 -12t-13 -48v-245h70q43 0 64 15.5t21 54.5v5h20v-175h-20v5q0 39 -21 54.5t-64 15.5h-70v-260q0 -36 13 -48t52 -12h70
q118 0 160 140zM125 885h15q0 -28 33.5 -51.5t91.5 -23.5t91.5 23.5t33.5 51.5h15q0 -45 -39 -86q-38 -39 -101 -39t-102 39q-38 41 -38 86z" />
    <glyph glyph-name="ebreve" unicode="&#x115;" horiz-adv-x="516" 
d="M113 230q0 -100 51 -156q52 -54 119 -54q65 0 102 34t49 69l4 12l20 -5q-2 -17 -21 -50q-12 -23 -34 -45q-20 -20 -58.5 -35t-81.5 -15q-93 0 -154 67t-61 178q0 113 63 179t157 66q96 0 148 -60q52 -59 52 -145v-10h-354q-1 -7 -1 -30zM263 450q-56 0 -96 -43t-51 -122
h287q0 78 -37.5 121.5t-102.5 43.5zM118 685h15q0 -26 31 -53q32 -27 94 -27t94 27q31 27 31 53h15q0 -47 -39 -89q-38 -41 -101 -41t-102 41q-38 43 -38 89z" />
    <glyph glyph-name="Edotaccent" unicode="&#x116;" horiz-adv-x="530" 
d="M485 160l-37 -160h-408v20h5q40 0 52.5 13t12.5 52v530q0 39 -12.5 52t-52.5 13h-5v20h398l37 -160l-20 -5q-42 140 -160 140h-60q-39 0 -52 -12t-13 -48v-245h70q43 0 64 15.5t21 54.5v5h20v-175h-20v5q0 39 -21 54.5t-64 15.5h-70v-260q0 -36 13 -48t52 -12h70
q118 0 160 140zM234 784q-14 15 -14 36t14 35q15 15 36 15t35 -15q15 -14 15 -35t-15 -36q-14 -14 -35 -14t-36 14z" />
    <glyph glyph-name="edotaccent" unicode="&#x117;" horiz-adv-x="516" 
d="M113 230q0 -100 51 -156q52 -54 119 -54q65 0 102 34t49 69l4 12l20 -5q-2 -17 -21 -50q-12 -23 -34 -45q-20 -20 -58.5 -35t-81.5 -15q-93 0 -154 67t-61 178q0 113 63 179t157 66q96 0 148 -60q52 -59 52 -145v-10h-354q-1 -7 -1 -30zM263 450q-56 0 -96 -43t-51 -122
h287q0 78 -37.5 121.5t-102.5 43.5zM222 594q-14 15 -14 36t14 35q15 15 36 15t35 -15q15 -14 15 -35t-15 -36q-14 -14 -35 -14t-36 14z" />
    <glyph glyph-name="Eogonek" unicode="&#x118;" horiz-adv-x="530" 
d="M342 -14l23 14h-325v20h5q40 0 52.5 13t12.5 52v530q0 39 -12.5 52t-52.5 13h-5v20h398l37 -160l-20 -5q-42 140 -160 140h-60q-39 0 -52 -12t-13 -48v-245h70q43 0 64 15.5t21 54.5v5h20v-175h-20v5q0 39 -21 54.5t-64 15.5h-70v-260q0 -36 13 -48t52 -12h70
q118 0 160 140l20 -5l-37 -160h-53l-5 -2q-4 -3 -11 -7.5t-15.5 -11t-17 -15.5t-15.5 -19.5t-11.5 -23.5t-4.5 -26q0 -26 13.5 -40.5t36.5 -14.5q25 0 41 18l4 7l5 -5q-1 -2 -2.5 -6t-8 -13.5t-14.5 -16.5t-21.5 -13t-28.5 -6q-29 0 -49.5 19.5t-20.5 50.5q0 33 24 65
q23 31 48 46z" />
    <glyph glyph-name="eogonek" unicode="&#x119;" horiz-adv-x="516" 
d="M113 230q0 -100 51 -156q52 -54 119 -54q65 0 102 34t49 69l4 12l20 -5q-2 -14 -18 -43q-40 -82 -137 -98q-60 -42 -60 -94q0 -26 13.5 -40.5t36.5 -14.5q25 0 41 18l4 7l5 -5q-1 -2 -2.5 -6t-8 -13.5t-14.5 -16.5t-21.5 -13t-28.5 -6q-29 0 -49.5 19.5t-20.5 50.5
q0 60 72 111h-4l-3 -1q-93 0 -154 67t-61 178q0 113 63 179t157 66q96 0 148 -60q52 -59 52 -145v-10h-354q-1 -7 -1 -30zM263 450q-56 0 -96 -43t-51 -122h287q0 78 -37.5 121.5t-102.5 43.5z" />
    <glyph glyph-name="Ecaron" unicode="&#x11a;" horiz-adv-x="530" 
d="M485 160l-37 -160h-408v20h5q40 0 52.5 13t12.5 52v530q0 39 -12.5 52t-52.5 13h-5v20h398l37 -160l-20 -5q-42 140 -160 140h-60q-39 0 -52 -12t-13 -48v-245h70q43 0 64 15.5t21 54.5v5h20v-175h-20v5q0 39 -21 54.5t-64 15.5h-70v-260q0 -36 13 -48t52 -12h70
q118 0 160 140zM95 905h15l145 -85l145 85h15l-153 -145h-14z" />
    <glyph glyph-name="ecaron" unicode="&#x11b;" horiz-adv-x="516" 
d="M113 230q0 -100 51 -156q52 -54 119 -54q65 0 102 34t49 69l4 12l20 -5q-2 -17 -21 -50q-12 -23 -34 -45q-20 -20 -58.5 -35t-81.5 -15q-93 0 -154 67t-61 178q0 113 63 179t157 66q96 0 148 -60q52 -59 52 -145v-10h-354q-1 -7 -1 -30zM263 450q-56 0 -96 -43t-51 -122
h287q0 78 -37.5 121.5t-102.5 43.5zM113 700h15l135 -85l135 85h15l-143 -145h-14z" />
    <glyph glyph-name="Gcircumflex" unicode="&#x11c;" 
d="M430 285v-285h-20l-25 90q-2 -10 -18 -37q-43 -68 -107 -68q-93 0 -157 99q-63 99 -63 266t63 266q64 99 157 99q25 0 49 -8t35 -18l11 -9l48 30l37 -210l-20 -5q-10 37 -23 67q-12 31 -31 60t-47.5 48.5t-58.5 19.5q-64 0 -107 -90q-43 -87 -43 -250q0 -159 45 -244.5
t115 -85.5q31 0 56.5 21t35.5 47l8 22v175q0 39 -12.5 52t-52.5 13h-5v20h200v-20h-5q-40 0 -52.5 -13t-12.5 -52zM420 760h-15l-145 85l-145 -85h-15l153 145h14z" />
    <glyph glyph-name="gcircumflex" unicode="&#x11d;" horiz-adv-x="545" 
d="M70 315q0 69 49 114q49 46 131 46q68 0 119 -36q42 61 91 61q29 0 44.5 -13t15.5 -32q0 -15 -10 -26t-25 -11q-17 0 -34 16t-36 16q-17 0 -32 -23q47 -44 47 -112t-50 -115q-50 -45 -130 -45q-47 0 -87 17q-43 -22 -43 -47q0 -16 32 -27t96 -25q46 -8 82.5 -18.5t75 -28
t59.5 -45t20 -61.5q0 -62 -66 -103q-64 -42 -154 -42q-103 0 -164 36t-61 99q0 87 115 130q-85 24 -85 65q0 42 74 77q-74 44 -74 133zM435 -95q-4 33 -24 53t-64 35q-31 11 -52 15l-59 13q-41 8 -55 12q-86 -35 -86 -118q0 -53 46 -84t124 -31q77 0 124 32q46 31 46 73z
M162 411q-32 -38 -32 -96q0 -57 32 -97q33 -38 88 -38t87 38q33 39 33 97q0 59 -33 96q-31 39 -87 39q-55 0 -88 -39zM400 560h-15l-135 85l-135 -85h-15l143 145h14z" />
    <glyph glyph-name="Gbreve" unicode="&#x11e;" 
d="M430 285v-285h-20l-25 90q-2 -10 -18 -37q-43 -68 -107 -68q-93 0 -157 99q-63 99 -63 266t63 266q64 99 157 99q25 0 49 -8t35 -18l11 -9l48 30l37 -210l-20 -5q-10 37 -23 67q-12 31 -31 60t-47.5 48.5t-58.5 19.5q-64 0 -107 -90q-43 -87 -43 -250q0 -159 45 -244.5
t115 -85.5q31 0 56.5 21t35.5 47l8 22v175q0 39 -12.5 52t-52.5 13h-5v20h200v-20h-5q-40 0 -52.5 -13t-12.5 -52zM115 885h15q0 -28 33.5 -51.5t91.5 -23.5t91.5 23.5t33.5 51.5h15q0 -45 -39 -86q-38 -39 -101 -39t-102 39q-38 41 -38 86z" />
    <glyph glyph-name="gbreve" unicode="&#x11f;" horiz-adv-x="545" 
d="M70 315q0 69 49 114q49 46 131 46q68 0 119 -36q42 61 91 61q29 0 44.5 -13t15.5 -32q0 -15 -10 -26t-25 -11q-17 0 -34 16t-36 16q-17 0 -32 -23q47 -44 47 -112t-50 -115q-50 -45 -130 -45q-47 0 -87 17q-43 -22 -43 -47q0 -16 32 -27t96 -25q46 -8 82.5 -18.5t75 -28
t59.5 -45t20 -61.5q0 -62 -66 -103q-64 -42 -154 -42q-103 0 -164 36t-61 99q0 87 115 130q-85 24 -85 65q0 42 74 77q-74 44 -74 133zM435 -95q-4 33 -24 53t-64 35q-31 11 -52 15l-59 13q-41 8 -55 12q-86 -35 -86 -118q0 -53 46 -84t124 -31q77 0 124 32q46 31 46 73z
M162 411q-32 -38 -32 -96q0 -57 32 -97q33 -38 88 -38t87 38q33 39 33 97q0 59 -33 96q-31 39 -87 39q-55 0 -88 -39zM110 685h15q0 -26 31 -53t94 -27q62 0 94 27q31 27 31 53h15q0 -47 -39 -89q-38 -41 -101 -41t-102 41q-38 43 -38 89z" />
    <glyph glyph-name="Gdotaccent" unicode="&#x120;" 
d="M430 285v-285h-20l-25 90q-2 -10 -18 -37q-43 -68 -107 -68q-93 0 -157 99q-63 99 -63 266t63 266q64 99 157 99q25 0 49 -8t35 -18l11 -9l48 30l37 -210l-20 -5q-10 37 -23 67q-12 31 -31 60t-47.5 48.5t-58.5 19.5q-64 0 -107 -90q-43 -87 -43 -250q0 -159 45 -244.5
t115 -85.5q31 0 56.5 21t35.5 47l8 22v175q0 39 -12.5 52t-52.5 13h-5v20h200v-20h-5q-40 0 -52.5 -13t-12.5 -52zM224 784q-14 15 -14 36t14 35q15 15 36 15t35 -15q15 -14 15 -35t-15 -36q-14 -14 -35 -14t-36 14z" />
    <glyph glyph-name="gdotaccent" unicode="&#x121;" horiz-adv-x="545" 
d="M70 315q0 69 49 114q49 46 131 46q68 0 119 -36q42 61 91 61q29 0 44.5 -13t15.5 -32q0 -15 -10 -26t-25 -11q-17 0 -34 16t-36 16q-17 0 -32 -23q47 -44 47 -112t-50 -115q-50 -45 -130 -45q-47 0 -87 17q-43 -22 -43 -47q0 -16 32 -27t96 -25q46 -8 82.5 -18.5t75 -28
t59.5 -45t20 -61.5q0 -62 -66 -103q-64 -42 -154 -42q-103 0 -164 36t-61 99q0 87 115 130q-85 24 -85 65q0 42 74 77q-74 44 -74 133zM435 -95q-4 33 -24 53t-64 35q-31 11 -52 15l-59 13q-41 8 -55 12q-86 -35 -86 -118q0 -53 46 -84t124 -31q77 0 124 32q46 31 46 73z
M162 411q-32 -38 -32 -96q0 -57 32 -97q33 -38 88 -38t87 38q33 39 33 97q0 59 -33 96q-31 39 -87 39q-55 0 -88 -39zM219 594q-14 15 -14 36t14 35q15 15 36 15t35 -15q15 -14 15 -35t-15 -36q-14 -14 -35 -14t-36 14z" />
    <glyph glyph-name="Gcommaaccent" unicode="&#x122;" 
d="M430 285v-285h-20l-25 90q-2 -10 -18 -37q-43 -68 -107 -68q-93 0 -157 99q-63 99 -63 266t63 266q64 99 157 99q25 0 49 -8t35 -18l11 -9l48 30l37 -210l-20 -5q-10 37 -23 67q-12 31 -31 60t-47.5 48.5t-58.5 19.5q-64 0 -107 -90q-43 -87 -43 -250q0 -159 45 -244.5
t115 -85.5q31 0 56.5 21t35.5 47l8 22v175q0 39 -12.5 52t-52.5 13h-5v20h200v-20h-5q-40 0 -52.5 -13t-12.5 -52zM250 -50q40 0 63 -35q22 -34 22 -75q0 -42 -17 -77.5t-33.5 -51.5t-34.5 -27l-9 -5l-10 15l20 14q13 8 33 39q21 30 21 63q0 45 -30 45q-1 0 -10.5 -2.5
t-14.5 -2.5q-21 0 -35.5 14.5t-14.5 35.5t14.5 35.5t35.5 14.5z" />
    <glyph glyph-name="gcommaaccent" unicode="&#x123;" horiz-adv-x="545" 
d="M70 315q0 69 49 114q49 46 131 46q68 0 119 -36q42 61 91 61q29 0 44.5 -13t15.5 -32q0 -15 -10 -26t-25 -11q-17 0 -34 16t-36 16q-17 0 -32 -23q47 -44 47 -112t-50 -115q-50 -45 -130 -45q-47 0 -87 17q-43 -22 -43 -47q0 -16 32 -27t96 -25q46 -8 82.5 -18.5t75 -28
t59.5 -45t20 -61.5q0 -62 -66 -103q-64 -42 -154 -42q-103 0 -164 36t-61 99q0 87 115 130q-85 24 -85 65q0 42 74 77q-74 44 -74 133zM435 -95q-4 33 -24 53t-64 35q-31 11 -52 15l-59 13q-41 8 -55 12q-86 -35 -86 -118q0 -53 46 -84t124 -31q77 0 124 32q46 31 46 73z
M162 411q-32 -38 -32 -96q0 -57 32 -97q33 -38 88 -38t87 38q33 39 33 97q0 59 -33 96q-31 39 -87 39q-55 0 -88 -39zM255 580q-40 0 -63 35q-22 34 -22 75q0 100 84 156l10 5l10 -15l-21 -14q-12 -8 -33 -39q-20 -31 -20 -63q0 -45 30 -45q1 0 10.5 2.5t14.5 2.5
q21 0 35.5 -14.5t14.5 -35.5t-14.5 -35.5t-35.5 -14.5z" />
    <glyph glyph-name="Hcircumflex" unicode="&#x124;" horiz-adv-x="560" 
d="M450 615v-530q0 -39 12.5 -52t52.5 -13h5v-20h-200v20h5q40 0 52.5 13t12.5 52v260h-220v-260q0 -39 12.5 -52t52.5 -13h5v-20h-200v20h5q40 0 52.5 13t12.5 52v530q0 39 -12.5 52t-52.5 13h-5v20h200v-20h-5q-40 0 -52.5 -13t-12.5 -52v-245h220v245q0 39 -12.5 52
t-52.5 13h-5v20h200v-20h-5q-40 0 -52.5 -13t-12.5 -52zM440 760h-15l-145 85l-145 -85h-15l153 145h14z" />
    <glyph glyph-name="hcircumflex" unicode="&#x125;" horiz-adv-x="540" 
d="M145 730h10v-355l28 27q18 16 63 45q46 28 79 28q55 0 87.5 -34.5t32.5 -85.5v-270q0 -38 11 -51.5t44 -13.5h5v-20h-175v20h5q33 0 44 13.5t11 51.5v270q0 37 -23 61t-62 24q-29 0 -67 -23t-60 -45l-23 -22v-265q0 -38 11 -51.5t44 -13.5h5v-20h-175v20h5q33 0 44 13.5
t11 51.5v530q0 38 -11 51.5t-44 13.5h-5v20h5q70 0 100 30zM415 760h-15l-135 85l-135 -85h-15l143 145h14z" />
    <glyph glyph-name="Hbar" unicode="&#x126;" horiz-adv-x="560" 
d="M110 545h-70v25h70v45q0 39 -12.5 52t-52.5 13h-5v20h200v-20h-5q-40 0 -52.5 -13t-12.5 -52v-45h220v45q0 39 -12.5 52t-52.5 13h-5v20h200v-20h-5q-40 0 -52.5 -13t-12.5 -52v-45h70v-25h-70v-460q0 -39 12.5 -52t52.5 -13h5v-20h-200v20h5q40 0 52.5 13t12.5 52v260
h-220v-260q0 -39 12.5 -52t52.5 -13h5v-20h-200v20h5q40 0 52.5 13t12.5 52v460zM390 545h-220v-175h220v175z" />
    <glyph glyph-name="hbar" unicode="&#x127;" horiz-adv-x="545" 
d="M150 730h10v-160h110v-25h-110v-170l28 27q18 16 63 45q46 28 79 28q55 0 87.5 -34.5t32.5 -85.5v-270q0 -38 11 -51.5t44 -13.5h5v-20h-175v20h5q33 0 44 13.5t11 51.5v270q0 37 -23 61t-62 24q-29 0 -67 -23q-37 -23 -60 -45l-23 -22v-265q0 -38 11 -51.5t44 -13.5h5
v-20h-175v20h5q33 0 44 13.5t11 51.5v460h-85v25h85v45q0 38 -11 51.5t-44 13.5h-5v20h5q70 0 100 30z" />
    <glyph glyph-name="Itilde" unicode="&#x128;" horiz-adv-x="380" 
d="M350 0h-320v20h25q65 0 84 15q21 15 21 60v510q0 45 -21 60q-19 15 -84 15h-25v20h320v-20h-25q-64 0 -85 -15q-20 -15 -20 -60v-510q0 -45 20 -60q21 -15 85 -15h25v-20zM34 786l-4 -16h-15q0 10 9 40q26 75 91 75q31 0 84 -30t81 -30q25 0 43.5 15.5t22.5 33.5l4 16h15
q0 -10 -10 -40q-9 -31 -31.5 -53t-58.5 -22q-30 0 -84 30t-81 30q-25 0 -43.5 -15.5t-22.5 -33.5z" />
    <glyph glyph-name="itilde" unicode="&#x129;" horiz-adv-x="455" 
d="M255 480h10v-385q0 -49 14 -63q15 -12 81 -12h65v-20h-375v20h65q67 0 80 12q15 14 15 63v300q0 31 -6 38t-39 7h-85v20h45q102 0 130 20zM74 586l-4 -16h-15q0 10 9 40q26 75 91 75q31 0 84 -30t81 -30q25 0 43.5 15.5t22.5 33.5l4 16h15q0 -10 -10 -40
q-9 -31 -31.5 -53t-58.5 -22q-30 0 -84 30q-53 30 -81 30q-25 0 -43.5 -15.5t-22.5 -33.5z" />
    <glyph glyph-name="uni012A" unicode="&#x12a;" horiz-adv-x="380" 
d="M350 0h-320v20h25q65 0 84 15q21 15 21 60v510q0 45 -21 60q-19 15 -84 15h-25v20h320v-20h-25q-64 0 -85 -15q-20 -15 -20 -60v-510q0 -45 20 -60q21 -15 85 -15h25v-20zM350 785h-320v25h320v-25z" />
    <glyph glyph-name="imacron" unicode="&#x12b;" horiz-adv-x="455" 
d="M255 480h10v-385q0 -49 14 -63q15 -12 81 -12h65v-20h-375v20h65q67 0 80 12q15 14 15 63v300q0 31 -6 38t-39 7h-85v20h45q102 0 130 20zM415 595h-380v25h380v-25z" />
    <glyph glyph-name="Ibreve" unicode="&#x12c;" horiz-adv-x="380" 
d="M350 0h-320v20h25q65 0 84 15q21 15 21 60v510q0 45 -21 60q-19 15 -84 15h-25v20h320v-20h-25q-64 0 -85 -15q-20 -15 -20 -60v-510q0 -45 20 -60q21 -15 85 -15h25v-20zM50 885h15q0 -28 33.5 -51.5t91.5 -23.5t91.5 23.5t33.5 51.5h15q0 -45 -39 -86q-38 -39 -101 -39
t-102 39q-38 41 -38 86z" />
    <glyph glyph-name="uni012D" unicode="&#x12d;" horiz-adv-x="455" 
d="M255 480h10v-385q0 -49 14 -63q15 -12 81 -12h65v-20h-375v20h65q67 0 80 12q15 14 15 63v300q0 31 -6 38t-39 7h-85v20h45q102 0 130 20zM80 685h15q0 -26 31 -53q32 -27 94 -27t94 27q31 27 31 53h15q0 -47 -39 -89q-38 -41 -101 -41t-102 41q-38 43 -38 89z" />
    <glyph glyph-name="Iogonek" unicode="&#x12e;" horiz-adv-x="380" 
d="M230 0h-200v20h25q65 0 84 15q21 15 21 60v510q0 45 -21 60q-19 15 -84 15h-25v20h320v-20h-25q-64 0 -85 -15q-20 -15 -20 -60v-510q0 -45 20 -60q21 -15 85 -15h25v-20h-90l-4 -2q-5 -3 -12 -7.5t-15.5 -11t-17 -15.5t-15.5 -19.5t-11.5 -23.5t-4.5 -26
q0 -26 13.5 -40.5t36.5 -14.5q12 0 24 6t16 12l5 7l5 -5q-1 -2 -2.5 -6t-8 -13.5t-14.5 -16.5t-21.5 -13t-28.5 -6q-29 0 -49.5 19.5t-20.5 50.5q0 38 29 71.5t56 47.5z" />
    <glyph glyph-name="iogonek" unicode="&#x12f;" horiz-adv-x="455" 
d="M292 -14l23 14h-265v20h65q67 0 80 12q15 14 15 63v300q0 31 -6 38t-39 7h-85v20h45q102 0 130 20h10v-385q0 -49 14 -63q15 -12 81 -12h65v-20h-80l-5 -2q-4 -3 -11 -7.5t-15.5 -11t-17 -15.5t-15.5 -19.5t-11.5 -23.5t-4.5 -26q0 -26 13.5 -40.5t36.5 -14.5q25 0 41 18
l4 7l5 -5q-1 -2 -2.5 -6t-8 -13.5t-14.5 -16.5t-21.5 -13t-28.5 -6q-29 0 -49.5 19.5t-20.5 50.5q0 33 24 65q23 31 48 46zM189 594q-14 15 -14 36t14 35q15 15 36 15t35 -15q15 -14 15 -35t-15 -36q-14 -14 -35 -14t-36 14z" />
    <glyph glyph-name="Idot" unicode="&#x130;" horiz-adv-x="380" 
d="M350 0h-320v20h25q65 0 84 15q21 15 21 60v510q0 45 -21 60q-19 15 -84 15h-25v20h320v-20h-25q-64 0 -85 -15q-20 -15 -20 -60v-510q0 -45 20 -60q21 -15 85 -15h25v-20zM154 784q-14 15 -14 36t14 35q15 15 36 15t35 -15q15 -14 15 -35t-15 -36q-14 -14 -35 -14t-36 14
z" />
    <glyph glyph-name="dotlessi" unicode="&#x131;" horiz-adv-x="455" 
d="M255 480h10v-385q0 -49 14 -63q15 -12 81 -12h65v-20h-375v20h65q67 0 80 12q15 14 15 63v300q0 31 -6 38t-39 7h-85v20h45q102 0 130 20z" />
    <glyph glyph-name="Jcircumflex" unicode="&#x134;" horiz-adv-x="490" 
d="M211 700h269v-20h-40q-40 0 -52.5 -13t-12.5 -52v-395q0 -113 -47.5 -174t-132.5 -61q-68 0 -114 40t-46 110q0 43 18.5 66.5t44.5 23.5q20 0 33.5 -11.5t13.5 -30.5q0 -18 -9.5 -28.5t-20.5 -14.5t-20.5 -15.5t-9.5 -29.5q0 -36 29.5 -60.5t75.5 -24.5q125 0 125 195
v410q0 39 -12.5 52t-52.5 13h-39v20zM505 760h-15l-145 85l-145 -85h-15l153 145h14z" />
    <glyph glyph-name="jcircumflex" unicode="&#x135;" horiz-adv-x="390" 
d="M260 480h10v-480q0 -105 -49 -165t-126 -60q-70 0 -107 37q-38 36 -38 83q0 31 13 48t34 17q38 0 38 -36q0 -20 -18 -33q-17 -15 -17 -26q0 -25 24 -45t66 -20q125 0 125 200v395q0 31 -6 38t-39 7h-125v20h85q102 0 130 20zM380 560h-15l-135 85l-135 -85h-15l143 145
h14z" />
    <glyph glyph-name="Kcommaaccent" unicode="&#x136;" horiz-adv-x="540" 
d="M340 680h-5v20h170v-20q-37 0 -64 -21t-56 -64l-95 -146l150 -364q15 -37 30.5 -51t44.5 -14h5v-20h-170v20h5q25 0 29.5 13.5t-9.5 51.5l-124 304l-81 -125v-179q0 -39 12.5 -52t52.5 -13h5v-20h-200v20h5q40 0 52.5 13t12.5 52v530q0 39 -12.5 52t-52.5 13h-5v20h200
v-20h-5q-40 0 -52.5 -13t-12.5 -52v-304l187 287q17 25 23 41.5t-2.5 28.5t-37.5 12zM265 -50q40 0 63 -35q22 -34 22 -75q0 -100 -84 -156l-10 -5l-10 15l20 14q14 8 33 39q21 30 21 63q0 45 -30 45q-1 0 -10.5 -2.5t-14.5 -2.5q-21 0 -35.5 14.5t-14.5 35.5t14.5 35.5
t35.5 14.5z" />
    <glyph glyph-name="kcommaaccent" unicode="&#x137;" horiz-adv-x="525" 
d="M145 730h10v-507l167 160q22 22 29.5 33t-0.5 17.5t-36 6.5h-5v20h170v-20q-42 0 -64 -12q-21 -11 -66 -53l-89 -85l149 -215q24 -33 40 -44t45 -11v-20h-162v20h5q17 0 22.5 4t2 15.5t-18.5 34.5l-123 178l-66 -63v-104q0 -38 11 -51.5t44 -13.5h5v-20h-175v20h5
q33 0 44 13.5t11 51.5v530q0 38 -11 51.5t-44 13.5h-5v20h5q70 0 100 30zM250 -50q40 0 63 -35q22 -34 22 -75q0 -42 -17 -77.5t-33.5 -51.5t-34.5 -27l-9 -5l-10 15l20 14q13 8 33 39q21 30 21 63q0 45 -30 45q-1 0 -10.5 -2.5t-14.5 -2.5q-21 0 -35.5 14.5t-14.5 35.5
t14.5 35.5t35.5 14.5z" />
    <glyph glyph-name="Lacute" unicode="&#x139;" horiz-adv-x="505" 
d="M470 160l-37 -160h-393v20h5q40 0 52.5 13t12.5 52v530q0 39 -12.5 52t-52.5 13h-5v20h200v-20h-5q-40 0 -52.5 -13t-12.5 -52v-530q0 -36 13 -48t52 -12h55q118 0 160 140zM130 760h-15l105 160h85z" />
    <glyph glyph-name="lacute" unicode="&#x13a;" horiz-adv-x="445" 
d="M245 730h10v-635q0 -49 14 -63q15 -12 81 -12h65v-20h-375v20h65q67 0 80 12q15 14 15 63v540q0 30 -6 38q-6 7 -39 7h-85v20h45q100 0 130 30zM200 760h-15l105 160h85z" />
    <glyph glyph-name="Lcommaaccent" unicode="&#x13b;" horiz-adv-x="505" 
d="M470 160l-37 -160h-393v20h5q40 0 52.5 13t12.5 52v530q0 39 -12.5 52t-52.5 13h-5v20h200v-20h-5q-40 0 -52.5 -13t-12.5 -52v-530q0 -36 13 -48t52 -12h55q118 0 160 140zM255 -50q40 0 63 -35q22 -34 22 -75q0 -100 -84 -156l-10 -5l-10 15l20 14q14 8 33 39
q21 30 21 63q0 45 -30 45q-1 0 -10.5 -2.5t-14.5 -2.5q-21 0 -35.5 14.5t-14.5 35.5t14.5 35.5t35.5 14.5z" />
    <glyph glyph-name="lcommaaccent" unicode="&#x13c;" horiz-adv-x="445" 
d="M245 730h10v-635q0 -49 14 -63q15 -12 81 -12h65v-20h-375v20h65q67 0 80 12q15 14 15 63v540q0 30 -6 38q-6 7 -39 7h-85v20h45q100 0 130 30zM215 -50q40 0 63 -35q22 -34 22 -75q0 -100 -84 -156l-10 -5l-10 15l20 14q14 8 33 39q21 30 21 63q0 45 -30 45
q-1 0 -10.5 -2.5t-14.5 -2.5q-21 0 -35.5 14.5t-14.5 35.5t14.5 35.5t35.5 14.5z" />
    <glyph glyph-name="Lcaron" unicode="&#x13d;" horiz-adv-x="505" 
d="M470 160l-37 -160h-393v20h5q40 0 52.5 13t12.5 52v530q0 39 -12.5 52t-52.5 13h-5v20h200v-20h-5q-40 0 -52.5 -13t-12.5 -52v-530q0 -36 13 -48t52 -12h55q118 0 160 140zM350 795q40 0 63 -35q22 -34 22 -75q0 -59 -28.5 -100t-56.5 -55l-9 -6l-10 15l20 13
q13 9 33 39q21 31 21 64q0 45 -30 45q-1 0 -10.5 -2.5t-14.5 -2.5q-21 0 -35.5 14.5t-14.5 35.5t14.5 35.5t35.5 14.5z" />
    <glyph glyph-name="lcaron" unicode="&#x13e;" horiz-adv-x="510" 
d="M245 730h10v-635q0 -49 14 -63q15 -12 81 -12h65v-20h-375v20h65q67 0 80 12q15 14 15 63v540q0 30 -6 38q-6 7 -39 7h-85v20h45q100 0 130 30zM380 795q40 0 63 -35q22 -34 22 -75q0 -59 -28.5 -100t-56.5 -55l-9 -6l-10 15l20 13q13 9 33 39q21 31 21 64q0 45 -30 45
q-1 0 -10.5 -2.5t-14.5 -2.5q-21 0 -35.5 14.5t-14.5 35.5t14.5 35.5t35.5 14.5z" />
    <glyph glyph-name="Lslash" unicode="&#x141;" horiz-adv-x="515" 
d="M120 309l-100 -64v30l100 64v276q0 39 -12.5 52t-52.5 13h-5v20h200v-20h-5q-40 0 -52.5 -13t-12.5 -52v-237l150 97v-30l-150 -97v-263q0 -36 13 -48t52 -12h55q118 0 160 140l20 -5l-37 -160h-393v20h5q40 0 52.5 13t12.5 52v224z" />
    <glyph glyph-name="lslash" unicode="&#x142;" horiz-adv-x="445" 
d="M200 329l-130 -84v30l130 84v276q0 30 -6 38q-6 7 -39 7h-85v20h45q100 0 130 30h10v-336l125 81v-30l-125 -81v-269q0 -49 14 -63q15 -12 81 -12h65v-20h-375v20h65q67 0 80 12q15 14 15 63v234z" />
    <glyph glyph-name="Nacute" unicode="&#x143;" horiz-adv-x="525" 
d="M430 595v-595h-20l-280 615v-510q0 -43 15.5 -64t54.5 -21h5v-20h-175v20h5q39 0 54.5 21t15.5 64v490q0 43 -15.5 64t-54.5 21h-5v20h128l247 -543v438q0 43 -15.5 64t-54.5 21h-5v20h175v-20h-5q-39 0 -54.5 -21t-15.5 -64zM240 760h-15l105 160h85z" />
    <glyph glyph-name="nacute" unicode="&#x144;" horiz-adv-x="545" 
d="M150 480h10v-105l28 27q18 16 63 45q46 28 79 28q55 0 87.5 -34.5t32.5 -85.5v-270q0 -38 11 -51.5t44 -13.5h5v-20h-175v20h5q33 0 44 13.5t11 51.5v270q0 37 -23 61t-62 24q-29 0 -67 -23q-37 -23 -60 -45l-23 -22v-265q0 -38 11 -51.5t44 -13.5h5v-20h-175v20h5
q33 0 44 13.5t11 51.5v290q0 38 -11 51.5t-44 13.5h-5v20h5q72 0 100 20zM235 560h-15l105 160h85z" />
    <glyph glyph-name="Ncommaaccent" unicode="&#x145;" horiz-adv-x="525" 
d="M430 595v-595h-20l-280 615v-510q0 -43 15.5 -64t54.5 -21h5v-20h-175v20h5q39 0 54.5 21t15.5 64v490q0 43 -15.5 64t-54.5 21h-5v20h128l247 -543v438q0 43 -15.5 64t-54.5 21h-5v20h175v-20h-5q-39 0 -54.5 -21t-15.5 -64zM260 -50q40 0 63 -35q22 -34 22 -75
q0 -42 -17 -77.5t-33.5 -51.5t-34.5 -27l-9 -5l-10 15l20 14q13 8 33 39q21 30 21 63q0 45 -30 45q-1 0 -10.5 -2.5t-14.5 -2.5q-21 0 -35.5 14.5t-14.5 35.5t14.5 35.5t35.5 14.5z" />
    <glyph glyph-name="ncommaaccent" unicode="&#x146;" horiz-adv-x="545" 
d="M150 480h10v-105l28 27q18 16 63 45q46 28 79 28q55 0 87.5 -34.5t32.5 -85.5v-270q0 -38 11 -51.5t44 -13.5h5v-20h-175v20h5q33 0 44 13.5t11 51.5v270q0 37 -23 61t-62 24q-29 0 -67 -23q-37 -23 -60 -45l-23 -22v-265q0 -38 11 -51.5t44 -13.5h5v-20h-175v20h5
q33 0 44 13.5t11 51.5v290q0 38 -11 51.5t-44 13.5h-5v20h5q72 0 100 20zM265 -50q40 0 63 -35q22 -34 22 -75q0 -100 -84 -156l-10 -5l-10 15l20 14q14 8 33 39q21 30 21 63q0 45 -30 45q-1 0 -10.5 -2.5t-14.5 -2.5q-21 0 -35.5 14.5t-14.5 35.5t14.5 35.5t35.5 14.5z" />
    <glyph glyph-name="Ncaron" unicode="&#x147;" horiz-adv-x="525" 
d="M430 595v-595h-20l-280 615v-510q0 -43 15.5 -64t54.5 -21h5v-20h-175v20h5q39 0 54.5 21t15.5 64v490q0 43 -15.5 64t-54.5 21h-5v20h128l247 -543v438q0 43 -15.5 64t-54.5 21h-5v20h175v-20h-5q-39 0 -54.5 -21t-15.5 -64zM100 905h15l145 -85l145 85h15l-153 -145
h-14z" />
    <glyph glyph-name="ncaron" unicode="&#x148;" horiz-adv-x="545" 
d="M150 480h10v-105l28 27q18 16 63 45q46 28 79 28q55 0 87.5 -34.5t32.5 -85.5v-270q0 -38 11 -51.5t44 -13.5h5v-20h-175v20h5q33 0 44 13.5t11 51.5v270q0 37 -23 61t-62 24q-29 0 -67 -23q-37 -23 -60 -45l-23 -22v-265q0 -38 11 -51.5t44 -13.5h5v-20h-175v20h5
q33 0 44 13.5t11 51.5v290q0 38 -11 51.5t-44 13.5h-5v20h5q72 0 100 20zM120 700h15l135 -85l135 85h15l-143 -145h-14z" />
    <glyph glyph-name="Eng" unicode="&#x14a;" horiz-adv-x="525" 
d="M430 595v-595q0 -225 -130 -225q-44 0 -72 26.5t-28 65.5q0 29 13.5 46t33.5 17q38 0 38 -36q0 -20 -18 -33q-17 -15 -17 -26q0 -15 14 -25t36 -10q105 0 105 200v11l-275 604v-510q0 -43 15.5 -64t54.5 -21h5v-20h-175v20h5q39 0 54.5 21t15.5 64v490q0 43 -15.5 64
t-54.5 21h-5v20h128l247 -543v438q0 43 -15.5 64t-54.5 21h-5v20h175v-20h-5q-39 0 -54.5 -21t-15.5 -64z" />
    <glyph glyph-name="eng" unicode="&#x14b;" horiz-adv-x="515" 
d="M183 372l-23 -22v-265q0 -38 11 -51.5t44 -13.5h5v-20h-175v20h5q33 0 44 13.5t11 51.5v290q0 38 -11 51.5t-44 13.5h-5v20h5q72 0 100 20h10v-105l28 27q18 16 63 45q46 28 79 28q55 0 87.5 -34.5t32.5 -85.5v-355q0 -104 -40.5 -164.5t-109.5 -60.5q-44 0 -72 26.5
t-28 65.5q0 29 13.5 46t33.5 17q38 0 38 -36q0 -20 -18 -33q-17 -15 -17 -26q0 -15 14 -25t36 -10q95 0 95 170v385q0 37 -23 61t-62 24q-29 0 -67 -23q-37 -23 -60 -45z" />
    <glyph glyph-name="Omacron" unicode="&#x14c;" 
d="M103 82q-63 97 -63 268q0 170 63 267q63 98 157 98t157 -98q63 -97 63 -267q0 -171 -63 -268t-157 -97t-157 97zM152 603q-42 -85 -42 -253q0 -167 42 -254q44 -86 108 -86q65 0 107 86q43 86 43 254t-43 253q-42 87 -107 87q-64 0 -108 -87zM430 785h-340v25h340v-25z
" />
    <glyph glyph-name="omacron" unicode="&#x14d;" horiz-adv-x="526" 
d="M110 54q-62 70 -62 176t62 176q62 69 153 69t153 -69q62 -70 62 -176t-62 -176q-62 -69 -153 -69t-153 69zM156 392q-43 -58 -43 -162t43 -162t107 -58t107 58t43 162t-43 162t-107 58t-107 -58zM433 595h-340v25h340v-25z" />
    <glyph glyph-name="Obreve" unicode="&#x14e;" 
d="M103 82q-63 97 -63 268q0 170 63 267q63 98 157 98t157 -98q63 -97 63 -267q0 -171 -63 -268t-157 -97t-157 97zM152 603q-42 -85 -42 -253q0 -167 42 -254q44 -86 108 -86q65 0 107 86q43 86 43 254t-43 253q-42 87 -107 87q-64 0 -108 -87zM120 885h15
q0 -28 33.5 -51.5t91.5 -23.5t91.5 23.5t33.5 51.5h15q0 -45 -39 -86q-37 -39 -101 -39q-63 0 -102 39q-38 41 -38 86z" />
    <glyph glyph-name="obreve" unicode="&#x14f;" horiz-adv-x="526" 
d="M110 54q-62 70 -62 176t62 176q62 69 153 69t153 -69q62 -70 62 -176t-62 -176q-62 -69 -153 -69t-153 69zM156 392q-43 -58 -43 -162t43 -162t107 -58t107 58t43 162t-43 162t-107 58t-107 -58zM123 685h15q0 -26 31 -53q32 -27 94 -27q63 0 94 27t31 53h15
q0 -47 -39 -89q-38 -41 -101 -41t-102 41q-38 43 -38 89z" />
    <glyph glyph-name="Ohungarumlaut" unicode="&#x150;" 
d="M103 82q-63 97 -63 268q0 170 63 267q63 98 157 98t157 -98q63 -97 63 -267q0 -171 -63 -268t-157 -97t-157 97zM152 603q-42 -85 -42 -253q0 -167 42 -254q44 -86 108 -86q65 0 107 86q43 86 43 254t-43 253q-42 87 -107 87q-64 0 -108 -87zM180 760h-15l105 160h85z
M300 760h-15l105 160h85z" />
    <glyph glyph-name="ohungarumlaut" unicode="&#x151;" horiz-adv-x="526" 
d="M110 54q-62 70 -62 176t62 176q62 69 153 69t153 -69q62 -70 62 -176t-62 -176q-62 -69 -153 -69t-153 69zM156 392q-43 -58 -43 -162t43 -162t107 -58t107 58t43 162t-43 162t-107 58t-107 -58zM173 560h-15l105 160h85zM293 560h-15l105 160h85z" />
    <glyph glyph-name="OE" unicode="&#x152;" horiz-adv-x="585" 
d="M545 160l-37 -160h-283q-90 0 -137.5 89.5t-47.5 260.5t47.5 260.5t137.5 89.5h273l37 -160l-20 -5q-22 73 -55.5 106.5t-84.5 33.5q-32 0 -41 -11.5t-9 -48.5v-245h35q43 0 64 15.5t21 54.5v5h20v-175h-20v5q0 39 -21 54.5t-64 15.5h-35v-260q0 -37 9 -48.5t41 -11.5h10
q51 0 84.5 33.5t55.5 106.5zM265 85v530q0 36 -8 48t-32 12q-115 0 -115 -325t115 -325q24 0 32 12t8 48z" />
    <glyph glyph-name="oe" unicode="&#x153;" horiz-adv-x="595" 
d="M330 260v-30q0 -210 105 -210q37 0 60 29t27 57l3 29h20q0 -20 -10 -52q-22 -94 -115 -98q-84 0 -123 74q-38 -74 -107 -74q-65 0 -102.5 66.5t-37.5 178.5t37.5 178.5t102.5 66.5q70 0 108 -78q40 78 117 78q130 0 130 -205v-10h-215zM190 450q-75 0 -75 -220t75 -220
t75 220t-75 220zM410 450q-68 0 -79 -165h149q0 86 -16 125.5t-54 39.5z" />
    <glyph glyph-name="Racute" unicode="&#x154;" horiz-adv-x="535" 
d="M215 345h-45v-260q0 -39 12.5 -52t52.5 -13h5v-20h-200v20h5q40 0 52.5 13t12.5 52v530q0 39 -12.5 52t-52.5 13h-5v20h175q109 0 182 -44q73 -43 73 -131q0 -64 -40.5 -106.5t-111.5 -61.5l112 -272q15 -37 30.5 -51t44.5 -14h5v-20h-110l-142 347q-18 -2 -43 -2z
M215 675q-26 0 -35.5 -13t-9.5 -47v-245h45q34 0 65 7.5t59 24.5t44.5 48.5t16.5 74.5t-16.5 74t-44.5 46.5t-58.5 22.5t-65.5 7zM230 760h-15l105 160h85z" />
    <glyph glyph-name="racute" unicode="&#x155;" horiz-adv-x="510" 
d="M225 560h-15l105 160h85zM305 20v-20h-265v20h5q67 0 80 12q15 14 15 63v300q0 31 -6 38t-39 7h-55v20h15q102 0 130 20h10v-130q6 11 35 43q17 20 37 38q48 44 93 44q49 0 79.5 -25t30.5 -70q0 -24 -11.5 -37t-30.5 -13q-16 0 -27 11t-11 28q0 8 5 24t5 22q0 35 -50 35
q-30 0 -68 -34q-41 -38 -62 -68l-25 -33v-220q0 -49 14 -63q15 -12 81 -12h15z" />
    <glyph glyph-name="Rcommaaccent" unicode="&#x156;" horiz-adv-x="535" 
d="M215 345h-45v-260q0 -39 12.5 -52t52.5 -13h5v-20h-200v20h5q40 0 52.5 13t12.5 52v530q0 39 -12.5 52t-52.5 13h-5v20h175q109 0 182 -44q73 -43 73 -131q0 -64 -40.5 -106.5t-111.5 -61.5l112 -272q15 -37 30.5 -51t44.5 -14h5v-20h-110l-142 347q-18 -2 -43 -2z
M215 675q-26 0 -35.5 -13t-9.5 -47v-245h45q34 0 65 7.5t59 24.5t44.5 48.5t16.5 74.5t-16.5 74t-44.5 46.5t-58.5 22.5t-65.5 7zM265 -50q40 0 63 -35q22 -34 22 -75q0 -100 -84 -156l-10 -5l-10 15l20 14q14 8 33 39q21 30 21 63q0 45 -30 45q-1 0 -10.5 -2.5t-14.5 -2.5
q-21 0 -35.5 14.5t-14.5 35.5t14.5 35.5t35.5 14.5z" />
    <glyph glyph-name="rcommaaccent" unicode="&#x157;" horiz-adv-x="510" 
d="M180 -50q40 0 63 -35q22 -34 22 -75q0 -42 -17 -77.5t-33.5 -51.5t-34.5 -27l-9 -5l-10 15l20 14q13 8 33 39q21 30 21 63q0 45 -30 45q-1 0 -10.5 -2.5t-14.5 -2.5q-21 0 -35.5 14.5t-14.5 35.5t14.5 35.5t35.5 14.5zM305 20v-20h-265v20h5q67 0 80 12q15 14 15 63v300
q0 31 -6 38t-39 7h-55v20h15q102 0 130 20h10v-130q6 11 35 43q17 20 37 38q48 44 93 44q49 0 79.5 -25t30.5 -70q0 -24 -11.5 -37t-30.5 -13q-16 0 -27 11t-11 28q0 8 5 24t5 22q0 35 -50 35q-30 0 -68 -34q-41 -38 -62 -68l-25 -33v-220q0 -49 14 -63q15 -12 81 -12h15z
" />
    <glyph glyph-name="Rcaron" unicode="&#x158;" horiz-adv-x="535" 
d="M215 345h-45v-260q0 -39 12.5 -52t52.5 -13h5v-20h-200v20h5q40 0 52.5 13t12.5 52v530q0 39 -12.5 52t-52.5 13h-5v20h175q109 0 182 -44q73 -43 73 -131q0 -64 -40.5 -106.5t-111.5 -61.5l112 -272q15 -37 30.5 -51t44.5 -14h5v-20h-110l-142 347q-18 -2 -43 -2z
M215 675q-26 0 -35.5 -13t-9.5 -47v-245h45q34 0 65 7.5t59 24.5t44.5 48.5t16.5 74.5t-16.5 74t-44.5 46.5t-58.5 22.5t-65.5 7zM80 905h15l145 -85l145 85h15l-153 -145h-14z" />
    <glyph glyph-name="rcaron" unicode="&#x159;" horiz-adv-x="510" 
d="M120 700h15l135 -85l135 85h15l-143 -145h-14zM305 20v-20h-265v20h5q67 0 80 12q15 14 15 63v300q0 31 -6 38t-39 7h-55v20h15q102 0 130 20h10v-130q6 11 35 43q17 20 37 38q48 44 93 44q49 0 79.5 -25t30.5 -70q0 -24 -11.5 -37t-30.5 -13q-16 0 -27 11t-11 28
q0 8 5 24t5 22q0 35 -50 35q-30 0 -68 -34q-41 -38 -62 -68l-25 -33v-220q0 -49 14 -63q15 -12 81 -12h15z" />
    <glyph glyph-name="Sacute" unicode="&#x15a;" horiz-adv-x="490" 
d="M350 680l48 30l37 -210l-20 -5q-10 35 -24 67q-15 34 -33 60q-19 28 -51.5 48t-66.5 20q-49 0 -90 -32q-40 -31 -40 -93q0 -75 118 -148q50 -30 77 -48t65.5 -51t56.5 -69.5t18 -78.5q0 -89 -55 -137q-56 -48 -135 -48q-65 0 -111 30l-14 10l-48 -35l-37 210l20 5
q8 -28 28 -68q15 -31 37 -59q22 -29 55.5 -48.5t69.5 -19.5q59 0 97 34.5t38 100.5q0 94 -118 168q-7 4 -36 22t-39 24.5t-35 24t-35.5 27.5t-28 27.5t-24.5 31.5t-13 32.5t-6 37.5q0 82 54 128q56 47 131 47q63 0 98 -26zM205 760h-15l105 160h85z" />
    <glyph glyph-name="sacute" unicode="&#x15b;" horiz-adv-x="516" 
d="M158 11l-15 9l-45 -35l-40 170l20 5q9 -23 26 -52q18 -28 36 -46q23 -22 60.5 -37t77.5 -15q62 0 96 29q34 30 34 71t-35 64q-17 11 -41.5 20t-41.5 13t-53.5 11.5t-48.5 10.5q-54 12 -87 41t-33 75q0 55 51 92q53 38 124 38q73 0 108 -26l12 -9l45 35l40 -170l-20 -5
q-9 24 -25 52q-17 29 -34 46q-20 22 -54.5 37t-71.5 15q-55 0 -90 -26.5t-35 -63.5q0 -61 120 -84q26 -5 37.5 -7.5t37 -8t38.5 -11t33.5 -14t31 -19t22 -23.5t16 -30.5t4.5 -37.5q0 -63 -51 -101.5t-134 -38.5q-74 0 -115 26zM213 560h-15l105 160h85z" />
    <glyph glyph-name="Scircumflex" unicode="&#x15c;" horiz-adv-x="490" 
d="M350 680l48 30l37 -210l-20 -5q-10 35 -24 67q-15 34 -33 60q-19 28 -51.5 48t-66.5 20q-49 0 -90 -32q-40 -31 -40 -93q0 -75 118 -148q50 -30 77 -48t65.5 -51t56.5 -69.5t18 -78.5q0 -89 -55 -137q-56 -48 -135 -48q-65 0 -111 30l-14 10l-48 -35l-37 210l20 5
q8 -28 28 -68q15 -31 37 -59q22 -29 55.5 -48.5t69.5 -19.5q59 0 97 34.5t38 100.5q0 94 -118 168q-7 4 -36 22t-39 24.5t-35 24t-35.5 27.5t-28 27.5t-24.5 31.5t-13 32.5t-6 37.5q0 82 54 128q56 47 131 47q63 0 98 -26zM405 760h-15l-145 85l-145 -85h-15l153 145h14z
" />
    <glyph glyph-name="scircumflex" unicode="&#x15d;" horiz-adv-x="516" 
d="M158 11l-15 9l-45 -35l-40 170l20 5q9 -23 26 -52q18 -28 36 -46q23 -22 60.5 -37t77.5 -15q62 0 96 29q34 30 34 71t-35 64q-17 11 -41.5 20t-41.5 13t-53.5 11.5t-48.5 10.5q-54 12 -87 41t-33 75q0 55 51 92q53 38 124 38q73 0 108 -26l12 -9l45 35l40 -170l-20 -5
q-9 24 -25 52q-17 29 -34 46q-20 22 -54.5 37t-71.5 15q-55 0 -90 -26.5t-35 -63.5q0 -61 120 -84q26 -5 37.5 -7.5t37 -8t38.5 -11t33.5 -14t31 -19t22 -23.5t16 -30.5t4.5 -37.5q0 -63 -51 -101.5t-134 -38.5q-74 0 -115 26zM408 560h-15l-135 85l-135 -85h-15l143 145h14
z" />
    <glyph glyph-name="Scedilla" unicode="&#x15e;" horiz-adv-x="490" 
d="M350 680l48 30l37 -210l-20 -5q-10 35 -24 67q-15 34 -33 60q-19 28 -51.5 48t-66.5 20q-49 0 -90 -32q-40 -31 -40 -93q0 -75 118 -148q50 -30 77 -48t65.5 -51t56.5 -69.5t18 -78.5q0 -87 -53 -135q-53 -49 -130 -50l-19 -40q92 -3 92 -75q0 -31 -26.5 -53t-68.5 -22
q-33 0 -54 13l-6 5l8 15q17 -13 44 -13q25 0 39 14.5t14 38.5q0 32 -24 43q-22 10 -41 4l-12 5l32 66q-62 5 -98 30l-12 9l-48 -35l-37 210l20 5q8 -28 28 -68q15 -31 37 -59q22 -29 55.5 -48.5t69.5 -19.5q59 0 97 34.5t38 100.5q0 94 -118 168q-7 4 -36 22t-39 24.5
t-35 24t-35.5 27.5t-28 27.5t-24.5 31.5t-13 32.5t-6 37.5q0 82 54 128q56 47 131 47q63 0 98 -26z" />
    <glyph glyph-name="scedilla" unicode="&#x15f;" horiz-adv-x="516" 
d="M155 13l-12 7l-45 -35l-40 170l20 5q9 -23 26 -52q18 -28 36 -46q23 -22 60.5 -37t77.5 -15q62 0 96 29q34 30 34 71t-35 64q-17 11 -41.5 20t-41.5 13t-53.5 11.5t-48.5 10.5q-54 12 -87 41t-33 75q0 55 51 92q53 38 124 38q73 0 108 -26l12 -9l45 35l40 -170l-20 -5
q-9 24 -25 52q-17 29 -34 46q-20 22 -54.5 37t-71.5 15q-55 0 -90 -26.5t-35 -63.5q0 -61 120 -84q26 -5 37.5 -7.5t37 -8t38.5 -11t33.5 -14t31 -19t22 -23.5t16 -30.5t4.5 -37.5q0 -63 -51 -101.5t-134 -38.5h-3l-19 -40q92 -3 92 -75q0 -31 -26.5 -53t-68.5 -22
q-33 0 -54 13l-6 5l8 15q17 -13 44 -13q25 0 39 14.5t14 38.5q0 32 -24 43q-22 10 -41 4l-12 5l33 66q-56 6 -94 27z" />
    <glyph glyph-name="Scaron" unicode="&#x160;" horiz-adv-x="490" 
d="M350 680l48 30l37 -210l-20 -5q-10 35 -24 67q-15 34 -33 60q-19 28 -51.5 48t-66.5 20q-49 0 -90 -32q-40 -31 -40 -93q0 -75 118 -148q50 -30 77 -48t65.5 -51t56.5 -69.5t18 -78.5q0 -89 -55 -137q-56 -48 -135 -48q-65 0 -111 30l-14 10l-48 -35l-37 210l20 5
q8 -28 28 -68q15 -31 37 -59q22 -29 55.5 -48.5t69.5 -19.5q59 0 97 34.5t38 100.5q0 94 -118 168q-7 4 -36 22t-39 24.5t-35 24t-35.5 27.5t-28 27.5t-24.5 31.5t-13 32.5t-6 37.5q0 82 54 128q56 47 131 47q63 0 98 -26zM85 905h15l145 -85l145 85h15l-153 -145h-14z" />
    <glyph glyph-name="scaron" unicode="&#x161;" horiz-adv-x="516" 
d="M158 11l-15 9l-45 -35l-40 170l20 5q9 -23 26 -52q18 -28 36 -46q23 -22 60.5 -37t77.5 -15q62 0 96 29q34 30 34 71t-35 64q-17 11 -41.5 20t-41.5 13t-53.5 11.5t-48.5 10.5q-54 12 -87 41t-33 75q0 55 51 92q53 38 124 38q73 0 108 -26l12 -9l45 35l40 -170l-20 -5
q-9 24 -25 52q-17 29 -34 46q-20 22 -54.5 37t-71.5 15q-55 0 -90 -26.5t-35 -63.5q0 -61 120 -84q26 -5 37.5 -7.5t37 -8t38.5 -11t33.5 -14t31 -19t22 -23.5t16 -30.5t4.5 -37.5q0 -63 -51 -101.5t-134 -38.5q-74 0 -115 26zM103 700h15l135 -85l135 85h15l-143 -145h-14z
" />
    <glyph glyph-name="Tcommaaccent" unicode="&#x162;" horiz-adv-x="550" 
d="M35 540l37 160h406l37 -160l-20 -5q-20 69 -54.5 104.5t-75.5 35.5h-60v-590q0 -39 12.5 -52t52.5 -13h10v-20h-210v20h10q40 0 52.5 13t12.5 52v590h-60q-41 0 -75.5 -35.5t-54.5 -104.5zM260 -50q40 0 63 -35q22 -34 22 -75q0 -42 -17 -77.5t-33.5 -51.5t-34.5 -27
l-9 -5l-10 15l20 14q13 8 33 39q21 30 21 63q0 45 -30 45q-1 0 -10.5 -2.5t-14.5 -2.5q-21 0 -35.5 14.5t-14.5 35.5t14.5 35.5t35.5 14.5z" />
    <glyph glyph-name="tcommaaccent" unicode="&#x163;" horiz-adv-x="510" 
d="M255 -50q40 0 63 -35q22 -34 22 -75q0 -100 -84 -156l-10 -5l-10 15l20 14q14 8 33 39q21 30 21 63q0 45 -30 45q-1 0 -10.5 -2.5t-14.5 -2.5q-21 0 -35.5 14.5t-14.5 35.5t14.5 35.5t35.5 14.5zM205 640h15v-180h220v-25h-220v-295q0 -120 110 -120q43 0 75 29t41 57
l9 29l20 -5q-2 -17 -18 -50q-40 -92 -147 -95q-66 0 -105.5 41.5t-39.5 113.5v295h-140v25h65q57 0 73 16q17 17 27 74z" />
    <glyph glyph-name="Tcaron" unicode="&#x164;" horiz-adv-x="550" 
d="M35 540l37 160h406l37 -160l-20 -5q-20 69 -54.5 104.5t-75.5 35.5h-60v-590q0 -39 12.5 -52t52.5 -13h10v-20h-210v20h10q40 0 52.5 13t12.5 52v590h-60q-41 0 -75.5 -35.5t-54.5 -104.5zM115 905h15l145 -85l145 85h15l-153 -145h-14z" />
    <glyph glyph-name="tcaron" unicode="&#x165;" horiz-adv-x="510" 
d="M330 795q40 0 63 -35q22 -34 22 -75q0 -59 -28.5 -100t-56.5 -55l-9 -6l-10 15l20 13q13 9 33 39q21 31 21 64q0 45 -30 45q-1 0 -10.5 -2.5t-14.5 -2.5q-21 0 -35.5 14.5t-14.5 35.5t14.5 35.5t35.5 14.5zM205 640h15v-180h220v-25h-220v-295q0 -120 110 -120
q43 0 75 29t41 57l9 29l20 -5q-2 -17 -18 -50q-40 -92 -147 -95q-66 0 -105.5 41.5t-39.5 113.5v295h-140v25h65q57 0 73 16q17 17 27 74z" />
    <glyph glyph-name="Utilde" unicode="&#x168;" 
d="M425 170q0 -89 -44 -137t-116 -48q-82 0 -128.5 47.5t-46.5 137.5v445q0 39 -12.5 52t-52.5 13h-5v20h200v-20h-5q-40 0 -52.5 -13t-12.5 -52v-450q0 -70 33.5 -107.5t91.5 -37.5t91.5 37.5t33.5 107.5v430q0 43 -15.5 64t-54.5 21h-5v20h175v-20h-5q-39 0 -54.5 -21
t-15.5 -64v-425zM114 786l-4 -16h-15q0 10 9 40q26 75 91 75q31 0 84 -30t81 -30q25 0 43.5 15.5t22.5 33.5l4 16h15q0 -10 -10 -40q-9 -31 -31.5 -53t-58.5 -22q-31 0 -85 30q-53 30 -80 30q-25 0 -43.5 -15.5t-22.5 -33.5z" />
    <glyph glyph-name="utilde" unicode="&#x169;" horiz-adv-x="543" 
d="M433 480h10v-395q0 -38 11 -51.5t44 -13.5h5v-20h-5q-76 0 -100 -10h-10v95l-29 -28q-14 -14 -63 -44q-44 -28 -78 -28q-55 0 -87.5 34.5t-32.5 85.5v270q0 38 -11 51.5t-44 13.5h-5v20h5q72 0 100 20h10v-375q0 -37 23 -61t62 -24q29 0 66 22t61 46l23 22v265
q0 38 -11 51.5t-44 13.5h-5v20h5q72 0 100 20zM117 586l-4 -16h-15q0 10 9 40q26 75 91 75q30 0 84 -30t81 -30q25 0 43.5 15.5t22.5 33.5l4 16h15q0 -10 -10 -40q-9 -31 -31.5 -53t-58.5 -22q-30 0 -84 30q-52 30 -81 30q-25 0 -43.5 -15.5t-22.5 -33.5z" />
    <glyph glyph-name="Umacron" unicode="&#x16a;" 
d="M425 170q0 -89 -44 -137t-116 -48q-82 0 -128.5 47.5t-46.5 137.5v445q0 39 -12.5 52t-52.5 13h-5v20h200v-20h-5q-40 0 -52.5 -13t-12.5 -52v-450q0 -70 33.5 -107.5t91.5 -37.5t91.5 37.5t33.5 107.5v430q0 43 -15.5 64t-54.5 21h-5v20h175v-20h-5q-39 0 -54.5 -21
t-15.5 -64v-425zM430 785h-340v25h340v-25z" />
    <glyph glyph-name="umacron" unicode="&#x16b;" horiz-adv-x="543" 
d="M433 480h10v-395q0 -38 11 -51.5t44 -13.5h5v-20h-5q-76 0 -100 -10h-10v95l-29 -28q-14 -14 -63 -44q-44 -28 -78 -28q-55 0 -87.5 34.5t-32.5 85.5v270q0 38 -11 51.5t-44 13.5h-5v20h5q72 0 100 20h10v-375q0 -37 23 -61t62 -24q29 0 66 22t61 46l23 22v265
q0 38 -11 51.5t-44 13.5h-5v20h5q72 0 100 20zM438 595h-340v25h340v-25z" />
    <glyph glyph-name="Ubreve" unicode="&#x16c;" 
d="M425 170q0 -89 -44 -137t-116 -48q-82 0 -128.5 47.5t-46.5 137.5v445q0 39 -12.5 52t-52.5 13h-5v20h200v-20h-5q-40 0 -52.5 -13t-12.5 -52v-450q0 -70 33.5 -107.5t91.5 -37.5t91.5 37.5t33.5 107.5v430q0 43 -15.5 64t-54.5 21h-5v20h175v-20h-5q-39 0 -54.5 -21
t-15.5 -64v-425zM120 885h15q0 -28 33.5 -51.5t91.5 -23.5t91.5 23.5t33.5 51.5h15q0 -45 -39 -86q-37 -39 -101 -39q-63 0 -102 39q-38 41 -38 86z" />
    <glyph glyph-name="ubreve" unicode="&#x16d;" horiz-adv-x="543" 
d="M433 480h10v-395q0 -38 11 -51.5t44 -13.5h5v-20h-5q-76 0 -100 -10h-10v95l-29 -28q-14 -14 -63 -44q-44 -28 -78 -28q-55 0 -87.5 34.5t-32.5 85.5v270q0 38 -11 51.5t-44 13.5h-5v20h5q72 0 100 20h10v-375q0 -37 23 -61t62 -24q29 0 66 22t61 46l23 22v265
q0 38 -11 51.5t-44 13.5h-5v20h5q72 0 100 20zM133 685h15q0 -26 31 -53q32 -27 94 -27q63 0 94 27t31 53h15q0 -47 -39 -89q-38 -41 -101 -41t-102 41q-38 43 -38 89z" />
    <glyph glyph-name="Uring" unicode="&#x16e;" 
d="M425 170q0 -89 -44 -137t-116 -48q-82 0 -128.5 47.5t-46.5 137.5v445q0 39 -12.5 52t-52.5 13h-5v20h200v-20h-5q-40 0 -52.5 -13t-12.5 -52v-450q0 -70 33.5 -107.5t91.5 -37.5t91.5 37.5t33.5 107.5v430q0 43 -15.5 64t-54.5 21h-5v20h175v-20h-5q-39 0 -54.5 -21
t-15.5 -64v-425zM201 771q-26 27 -26 64t26 63q27 27 64 27t63 -27q27 -26 27 -63t-27 -64q-26 -26 -63 -26t-64 26zM219 881q-19 -19 -19 -46t19 -46t46 -19t46 19t19 46t-19 46t-46 19t-46 -19z" />
    <glyph glyph-name="uring" unicode="&#x16f;" horiz-adv-x="543" 
d="M433 480h10v-395q0 -38 11 -51.5t44 -13.5h5v-20h-5q-76 0 -100 -10h-10v95l-29 -28q-14 -14 -63 -44q-44 -28 -78 -28q-55 0 -87.5 34.5t-32.5 85.5v270q0 38 -11 51.5t-44 13.5h-5v20h5q72 0 100 20h10v-375q0 -37 23 -61t62 -24q29 0 66 22t61 46l23 22v265
q0 38 -11 51.5t-44 13.5h-5v20h5q72 0 100 20zM204 581q-26 27 -26 64t26 63q26 27 64 27t64 -27q26 -26 26 -63t-26 -64q-26 -26 -64 -26t-64 26zM222 691q-19 -19 -19 -46t19 -46t46 -19t46 19t19 46t-19 46t-46 19t-46 -19z" />
    <glyph glyph-name="Uhungarumlaut" unicode="&#x170;" 
d="M425 170q0 -89 -44 -137t-116 -48q-82 0 -128.5 47.5t-46.5 137.5v445q0 39 -12.5 52t-52.5 13h-5v20h200v-20h-5q-40 0 -52.5 -13t-12.5 -52v-450q0 -70 33.5 -107.5t91.5 -37.5t91.5 37.5t33.5 107.5v430q0 43 -15.5 64t-54.5 21h-5v20h175v-20h-5q-39 0 -54.5 -21
t-15.5 -64v-425zM190 760h-15l105 160h85zM310 760h-15l105 160h85z" />
    <glyph glyph-name="uhungarumlaut" unicode="&#x171;" horiz-adv-x="543" 
d="M433 480h10v-395q0 -38 11 -51.5t44 -13.5h5v-20h-5q-76 0 -100 -10h-10v95l-29 -28q-14 -14 -63 -44q-44 -28 -78 -28q-55 0 -87.5 34.5t-32.5 85.5v270q0 38 -11 51.5t-44 13.5h-5v20h5q72 0 100 20h10v-375q0 -37 23 -61t62 -24q29 0 66 22t61 46l23 22v265
q0 38 -11 51.5t-44 13.5h-5v20h5q72 0 100 20zM303 560h-15l105 160h85zM183 560h-15l105 160h85z" />
    <glyph glyph-name="Uogonek" unicode="&#x172;" 
d="M425 595v-425q0 -75 -31 -121t-86 -59q-63 -39 -63 -95q0 -26 13.5 -40.5t36.5 -14.5q25 0 41 18l4 7l5 -5q-1 -2 -2.5 -6t-8 -13.5t-14.5 -16.5t-21.5 -13t-28.5 -6q-29 0 -49.5 19.5t-20.5 50.5q0 62 71 110h-6q-82 0 -128.5 47.5t-46.5 137.5v445q0 39 -12.5 52
t-52.5 13h-5v20h200v-20h-5q-40 0 -52.5 -13t-12.5 -52v-450q0 -70 33.5 -107.5t91.5 -37.5t91.5 37.5t33.5 107.5v430q0 43 -15.5 64t-54.5 21h-5v20h175v-20h-5q-39 0 -54.5 -21t-15.5 -64z" />
    <glyph glyph-name="uogonek" unicode="&#x173;" horiz-adv-x="543" 
d="M458 -6l10 6q-52 -2 -70 -10h-10v95l-29 -28q-14 -14 -63 -44q-44 -28 -78 -28q-55 0 -87.5 34.5t-32.5 85.5v270q0 38 -11 51.5t-44 13.5h-5v20h5q72 0 100 20h10v-375q0 -37 23 -61t62 -24q29 0 66 22t61 46l23 22v265q0 38 -11 51.5t-44 13.5h-5v20h5q72 0 100 20h10
v-395q0 -38 11 -51.5t44 -13.5h5v-20h-5l-4 -2q-5 -3 -12 -7.5t-15.5 -11t-17 -15.5t-15.5 -19.5t-11.5 -23.5t-4.5 -26q0 -26 13.5 -40.5t36.5 -14.5q12 0 24 6t16 12l5 7l5 -5q-1 -2 -2.5 -6t-8 -13.5t-14.5 -16.5t-21.5 -13t-28.5 -6q-29 0 -49.5 19.5t-20.5 50.5
q0 38 29 71.5t56 47.5z" />
    <glyph glyph-name="Ycircumflex" unicode="&#x176;" horiz-adv-x="500" 
d="M335 700h155v-20q-42 0 -61 -27q-4 -7 -9 -15l-5 -9l-13 -34l-121 -349v-161q0 -39 12.5 -52t52.5 -13h10v-20h-210v20h10q40 0 52.5 13t12.5 52v144l-129 374q-16 43 -28 58q-14 19 -54 19v20h180v-20h-5q-35 0 -42 -14.5t8 -50.5l115 -336l111 319q19 39 11 60.5
t-48 21.5h-5v20zM415 760h-15l-145 85l-145 -85h-15l153 145h14z" />
    <glyph glyph-name="ycircumflex" unicode="&#x177;" horiz-adv-x="535" 
d="M345 460h160v-20q-44 0 -62 -26q-13 -18 -28 -59l-152 -432q-29 -83 -50 -115q-19 -33 -58 -33q-32 0 -51 20t-19 50q0 22 12 36t28 14q40 0 40 -42q0 -6 -0.5 -14.5t-0.5 -12.5t1 -8.5t3.5 -6t6.5 -1.5q14 0 26 24t39 99l24 67l-154 360q-23 52 -34 63q-17 17 -51 17v20
h175v-20q-29 0 -41 -9q-15 -9 5 -56l127 -297l99 280q28 82 -40 82h-5v20zM425 560h-15l-135 85l-135 -85h-15l143 145h14z" />
    <glyph glyph-name="Ydieresis" unicode="&#x178;" horiz-adv-x="500" 
d="M335 700h155v-20q-42 0 -61 -27q-4 -7 -9 -15l-5 -9l-13 -34l-121 -349v-161q0 -39 12.5 -52t52.5 -13h10v-20h-210v20h10q40 0 52.5 13t12.5 52v144l-129 374q-16 43 -28 58q-14 19 -54 19v20h180v-20h-5q-35 0 -42 -14.5t8 -50.5l115 -336l111 319q19 39 11 60.5
t-48 21.5h-5v20zM314 784q-14 15 -14 36t14 35q15 15 36 15t35 -15q15 -14 15 -35t-15 -36q-14 -14 -35 -14t-36 14zM124 784q-14 15 -14 36t14 35q15 15 36 15t35 -15q15 -14 15 -35t-15 -36q-14 -14 -35 -14t-36 14z" />
    <glyph glyph-name="Zacute" unicode="&#x179;" horiz-adv-x="500" 
d="M40 540l37 160h378v-10l-345 -665h175q118 0 160 140l20 -5l-37 -160h-393v10l345 665h-160q-118 0 -160 -140zM225 760h-15l105 160h85z" />
    <glyph glyph-name="zacute" unicode="&#x17a;" horiz-adv-x="525" 
d="M470 135l-37 -135h-378v10l325 425h-175q-93 0 -130 -115l-20 5l37 135h368v-10l-325 -425h185q93 0 130 115zM235 560h-15l105 160h85z" />
    <glyph glyph-name="Zdotaccent" unicode="&#x17b;" horiz-adv-x="500" 
d="M40 540l37 160h378v-10l-345 -665h175q118 0 160 140l20 -5l-37 -160h-393v10l345 665h-160q-118 0 -160 -140zM214 784q-14 15 -14 36t14 35q15 15 36 15t35 -15q15 -14 15 -35t-15 -36q-14 -14 -35 -14t-36 14z" />
    <glyph glyph-name="zdotaccent" unicode="&#x17c;" horiz-adv-x="525" 
d="M470 135l-37 -135h-378v10l325 425h-175q-93 0 -130 -115l-20 5l37 135h368v-10l-325 -425h185q93 0 130 115zM227 594q-14 15 -14 36t14 35q15 15 36 15t35 -15q15 -14 15 -35t-15 -36q-14 -14 -35 -14t-36 14z" />
    <glyph glyph-name="Zcaron" unicode="&#x17d;" horiz-adv-x="500" 
d="M40 540l37 160h378v-10l-345 -665h175q118 0 160 140l20 -5l-37 -160h-393v10l345 665h-160q-118 0 -160 -140zM85 905h15l145 -85l145 85h15l-153 -145h-14z" />
    <glyph glyph-name="zcaron" unicode="&#x17e;" horiz-adv-x="525" 
d="M110 700h15l135 -85l135 85h15l-143 -145h-14zM470 135l-37 -135h-378v10l325 425h-175q-93 0 -130 -115l-20 5l37 135h368v-10l-325 -425h185q93 0 130 115z" />
    <glyph glyph-name="Scommaaccent" unicode="&#x218;" horiz-adv-x="490" 
d="M350 680l48 30l37 -210l-20 -5q-10 35 -24 67q-15 34 -33 60q-19 28 -51.5 48t-66.5 20q-49 0 -90 -32q-40 -31 -40 -93q0 -75 118 -148q50 -30 77 -48t65.5 -51t56.5 -69.5t18 -78.5q0 -89 -55 -137q-56 -48 -135 -48q-65 0 -111 30l-14 10l-48 -35l-37 210l20 5
q8 -28 28 -68q15 -31 37 -59q22 -29 55.5 -48.5t69.5 -19.5q59 0 97 34.5t38 100.5q0 94 -118 168q-7 4 -36 22t-39 24.5t-35 24t-35.5 27.5t-28 27.5t-24.5 31.5t-13 32.5t-6 37.5q0 82 54 128q56 47 131 47q63 0 98 -26zM250 -50q40 0 63 -35q22 -34 22 -75
q0 -42 -17 -77.5t-33.5 -51.5t-34.5 -27l-9 -5l-10 15l20 14q13 8 33 39q21 30 21 63q0 45 -30 45q-1 0 -10.5 -2.5t-14.5 -2.5q-21 0 -35.5 14.5t-14.5 35.5t14.5 35.5t35.5 14.5z" />
    <glyph glyph-name="scommaaccent" unicode="&#x219;" horiz-adv-x="516" 
d="M158 11l-15 9l-45 -35l-40 170l20 5q9 -23 26 -52q18 -28 36 -46q23 -22 60.5 -37t77.5 -15q62 0 96 29q34 30 34 71t-35 64q-17 11 -41.5 20t-41.5 13t-53.5 11.5t-48.5 10.5q-54 12 -87 41t-33 75q0 55 51 92q53 38 124 38q73 0 108 -26l12 -9l45 35l40 -170l-20 -5
q-9 24 -25 52q-17 29 -34 46q-20 22 -54.5 37t-71.5 15q-55 0 -90 -26.5t-35 -63.5q0 -61 120 -84q26 -5 37.5 -7.5t37 -8t38.5 -11t33.5 -14t31 -19t22 -23.5t16 -30.5t4.5 -37.5q0 -63 -51 -101.5t-134 -38.5q-74 0 -115 26zM253 -50q40 0 63 -35q22 -34 22 -75
q0 -100 -84 -156l-10 -5l-10 15l20 14q14 8 33 39q21 30 21 63q0 45 -30 45q-1 0 -10.5 -2.5t-14.5 -2.5q-21 0 -35.5 14.5t-14.5 35.5t14.5 35.5t35.5 14.5z" />
    <glyph glyph-name="pi" unicode="&#x3c0;" horiz-adv-x="530" 
d="M210 410h-1q-40 0 -64 -14.5t-50 -60.5l-15 5l24 58q14 35 39 48.5t70 13.5h292l-20 -50h-87l-57 -305q-9 -53 -3.5 -74t26.5 -21q36 0 51 80l5 26h20l-5 -26q-19 -105 -81 -105q-90 0 -68 120l57 305h-108q-89 -425 -174 -425q-17 0 -26.5 10t-9.5 25q0 14 7 24
q6 11 12 16t26 18q49 34 79 102q31 65 61 230z" />
    <glyph glyph-name="afii10023" unicode="&#x401;" horiz-adv-x="530" 
d="M485 160l-37 -160h-408v20h5q40 0 52.5 13t12.5 52v530q0 39 -12.5 52t-52.5 13h-5v20h398l37 -160l-20 -5q-42 140 -160 140h-60q-39 0 -52 -12t-13 -48v-245h70q43 0 64 15.5t21 54.5v5h20v-175h-20v5q0 39 -21 54.5t-64 15.5h-70v-260q0 -36 13 -48t52 -12h70
q118 0 160 140zM319 784q-14 15 -14 36t14 35q15 15 36 15t35 -15q15 -14 15 -35t-15 -36q-14 -14 -35 -14t-36 14zM129 784q-14 15 -14 36t14 35q15 15 36 15t35 -15q15 -14 15 -35t-15 -36q-14 -14 -35 -14t-36 14z" />
    <glyph glyph-name="afii10051" unicode="&#x402;" horiz-adv-x="565" 
d="M35 540l37 160h341l37 -160l-20 -5q-20 69 -54.5 104.5t-75.5 35.5h-30v-346q67 61 130 61q50 0 80 -31.5t30 -98.5v-100q0 -75 -17 -139t-39.5 -103.5t-53.5 -71t-50.5 -44.5t-37.5 -22l-12 -5l-5 15q21 8 54 38q29 28 47 59q22 37 38 102.5t16 140.5v100
q0 69 -15.5 99.5t-54.5 30.5q-48 0 -110 -51v-224q0 -35 6 -51q8 -14 44 -14h5v-20h-170v20h5q34 0 42 11t8 54v590h-25q-41 0 -75.5 -35.5t-54.5 -104.5z" />
    <glyph glyph-name="afii10052" unicode="&#x403;" horiz-adv-x="505" 
d="M433 700l37 -160l-20 -5q-42 140 -160 140h-55q-39 0 -52 -12t-13 -48v-530q0 -39 12.5 -52t52.5 -13h5v-20h-200v20h5q40 0 52.5 13t12.5 52v530q0 39 -12.5 52t-52.5 13h-5v20h393zM210 760h-15l105 160h85z" />
    <glyph glyph-name="afii10053" unicode="&#x404;" horiz-adv-x="480" 
d="M260 690q-64 0 -105.5 -85.5t-44.5 -234.5h85q43 0 64 15.5t21 54.5v5h20v-175h-20v5q0 39 -21 54.5t-64 15.5h-85q1 -156 46 -240.5t114 -84.5q36 0 64.5 17t45 43.5t25 49t12.5 42.5l3 18l20 -5q-2 -23 -21 -70q-14 -35 -31 -61q-20 -29 -54.5 -49t-73.5 -20
q-93 0 -157 99q-63 99 -63 266t63 266q64 99 157 99q25 0 49 -8t35 -18l11 -9l48 30l37 -210l-20 -5q-10 37 -23 67q-12 31 -31 60t-47.5 48.5t-58.5 19.5z" />
    <glyph glyph-name="afii10054" unicode="&#x405;" horiz-adv-x="490" 
d="M350 680l48 30l37 -210l-20 -5q-10 35 -24 67q-15 34 -33 60q-19 28 -51.5 48t-66.5 20q-49 0 -90 -32q-40 -31 -40 -93q0 -75 118 -148q50 -30 77 -48t65.5 -51t56.5 -69.5t18 -78.5q0 -89 -55 -137q-56 -48 -135 -48q-65 0 -111 30l-14 10l-48 -35l-37 210l20 5
q8 -28 28 -68q15 -31 37 -59q22 -29 55.5 -48.5t69.5 -19.5q59 0 97 34.5t38 100.5q0 94 -118 168q-7 4 -36 22t-39 24.5t-35 24t-35.5 27.5t-28 27.5t-24.5 31.5t-13 32.5t-6 37.5q0 82 54 128q56 47 131 47q63 0 98 -26z" />
    <glyph glyph-name="uni0406" unicode="&#x406;" horiz-adv-x="380" 
d="M350 0h-320v20h45q54 0 70 14q15 15 15 61v510q0 47 -15 60q-15 15 -70 15h-45v20h320v-20h-45q-55 0 -70 -15q-15 -13 -15 -60v-510q0 -46 15 -61q16 -14 70 -14h45v-20z" />
    <glyph glyph-name="afii10056" unicode="&#x407;" horiz-adv-x="380" 
d="M59 784q-14 15 -14 36t14 35q15 15 36 15t35 -15q15 -14 15 -35t-15 -36q-14 -14 -35 -14t-36 14zM249 784q-14 15 -14 36t14 35q15 15 36 15t35 -15q15 -14 15 -35t-15 -36q-14 -14 -35 -14t-36 14zM350 0h-320v20h45q54 0 70 14q15 15 15 61v510q0 47 -15 60
q-15 15 -70 15h-45v20h320v-20h-45q-55 0 -70 -15q-15 -13 -15 -60v-510q0 -46 15 -61q16 -14 70 -14h45v-20z" />
    <glyph glyph-name="afii10057" unicode="&#x408;" horiz-adv-x="490" 
d="M211 700h269v-20h-40q-40 0 -52.5 -13t-12.5 -52v-395q0 -113 -47.5 -174t-132.5 -61q-68 0 -114 40t-46 110q0 43 18.5 66.5t44.5 23.5q20 0 33.5 -11.5t13.5 -30.5q0 -18 -9.5 -28.5t-20.5 -14.5t-20.5 -15.5t-9.5 -29.5q0 -36 29.5 -60.5t75.5 -24.5q125 0 125 195
v410q0 39 -12.5 52t-52.5 13h-39v20z" />
    <glyph glyph-name="afii10058" unicode="&#x409;" horiz-adv-x="560" 
d="M85 680v20h305v-20q-33 0 -44 -13.5t-11 -51.5v-245h35q74 0 114.5 -49t40.5 -136t-40.5 -136t-114.5 -49h-150v20q33 0 44 13.5t11 51.5v530q0 37 -8 48.5t-37 11.5t-37 -11.5t-8 -48.5v-115q0 -329 -15 -422t-77 -93q-35 0 -54 19.5t-19 50.5q0 22 12 36t28 14
q40 0 40 -42q0 -6 -0.5 -14.5t-0.5 -12.5t1 -8.5t5 -6t10 -1.5q27 0 36 107.5t9 367.5v120q0 35 -14 50t-51 15h-10zM370 345h-35v-260q0 -36 7 -48t28 -12q90 0 90 160t-90 160z" />
    <glyph glyph-name="afii10059" unicode="&#x40a;" horiz-adv-x="575" 
d="M155 615v-245h135v245q0 38 -11 51.5t-44 13.5v20h170v-20q-33 0 -44 -13.5t-11 -51.5v-245h35q74 0 114.5 -49t40.5 -136t-40.5 -136t-114.5 -49h-150v20q33 0 44 13.5t11 51.5v260h-135v-260q0 -38 11 -51.5t44 -13.5v-20h-170v20q33 0 44 13.5t11 51.5v530
q0 38 -11 51.5t-44 13.5v20h170v-20q-33 0 -44 -13.5t-11 -51.5zM385 345h-35v-260q0 -36 7 -48t28 -12q90 0 90 160t-90 160z" />
    <glyph glyph-name="afii10060" unicode="&#x40b;" horiz-adv-x="580" 
d="M35 540l37 160h341l37 -160l-20 -5q-20 69 -54.5 104.5t-75.5 35.5h-30v-345q57 60 120 60q100 0 100 -130v-175q0 -35 6 -51q8 -14 44 -14h5v-20h-170v20h5q34 0 42 11t8 54v145q0 75 -11.5 102.5t-48.5 27.5q-50 0 -100 -50v-225q0 -35 6 -51q8 -14 44 -14h5v-20h-170
v20h5q34 0 42 11t8 54v590h-25q-41 0 -75.5 -35.5t-54.5 -104.5z" />
    <glyph glyph-name="afii10061" unicode="&#x40c;" horiz-adv-x="540" 
d="M340 680h-5v20h170v-20q-37 0 -64 -21t-56 -64l-95 -146l150 -364q15 -37 30.5 -51t44.5 -14h5v-20h-170v20h5q25 0 29.5 13.5t-9.5 51.5l-124 304l-81 -125v-179q0 -39 12.5 -52t52.5 -13h5v-20h-200v20h5q40 0 52.5 13t12.5 52v530q0 39 -12.5 52t-52.5 13h-5v20h200
v-20h-5q-40 0 -52.5 -13t-12.5 -52v-304l187 287q17 25 23 41.5t-2.5 28.5t-37.5 12zM240 760h-15l105 160h85z" />
    <glyph glyph-name="afii10062" unicode="&#x40e;" horiz-adv-x="510" 
d="M340 700h160v-20q-43 0 -61 -26q-13 -18 -24 -59l-130 -462q-21 -78 -43 -115q-20 -33 -57 -33q-32 0 -51 20t-19 50q0 22 12 36t28 14q40 0 40 -42q0 -6 -0.5 -14.5t-0.5 -12.5t1 -8.5t3.5 -6t6.5 -1.5q13 0 24 24t33 99l-162 457q-19 52 -30 64q-16 16 -50 16v20h180
v-20h-5q-33 0 -41 -14.5t5 -50.5l131 -371l100 354q22 82 -45 82h-5v20zM140 850q0 27 14.5 43.5t35.5 16.5q18 0 29 -10t11 -25q0 -13 -7 -21.5t-15.5 -11.5t-15.5 -8.5t-7 -13.5q0 -20 23 -32.5t62 -12.5t62 12.5t23 32.5q0 10 -11.5 15.5t-22.5 14t-11 25.5q0 15 11 25
t29 10q21 0 35.5 -16.5t14.5 -43.5q0 -42 -35.5 -68.5t-94.5 -26.5t-94.5 26.5t-35.5 68.5z" />
    <glyph glyph-name="afii10145" unicode="&#x40f;" horiz-adv-x="560" 
d="M287 -130h-14l-15 100q-3 19 -9.5 24.5t-25.5 5.5h-183v20h5q40 0 52.5 13t12.5 52v530q0 39 -12.5 52t-52.5 13h-5v20h200v-20h-5q-40 0 -52.5 -13t-12.5 -52v-530q0 -36 13 -48t52 -12h90q39 0 52 12t13 48v530q0 39 -12.5 52t-52.5 13h-5v20h200v-20h-5
q-40 0 -52.5 -13t-12.5 -52v-530q0 -39 12.5 -52t52.5 -13h5v-20h-183q-19 0 -25.5 -5.5t-9.5 -24.5z" />
    <glyph glyph-name="afii10017" unicode="&#x410;" horiz-adv-x="500" 
d="M95 105l147 605h20l149 -613q12 -47 26.5 -62t52.5 -15v-20h-185v20h5q35 0 44 14t-1 51l-37 150h-164l-32 -133q-13 -40 -2 -61t52 -21h5v-20h-165v20q39 0 57 19.5t28 65.5zM310 260l-76 313l-76 -313h152z" />
    <glyph glyph-name="afii10018" unicode="&#x411;" horiz-adv-x="540" 
d="M40 680v20h398l37 -160l-20 -5q-42 140 -160 140h-60q-39 0 -52 -12t-13 -48v-245h60q112 0 186 -48t74 -137t-74 -137t-186 -48h-190v20h5q40 0 52.5 13t12.5 52v530q0 39 -12.5 52t-52.5 13h-5zM215 25h15q36 0 68 8t60.5 25t45 49.5t16.5 77.5t-16.5 77.5t-45 49.5
t-60.5 25t-68 8h-60v-260q0 -34 9.5 -47t35.5 -13z" />
    <glyph glyph-name="afii10019" unicode="&#x412;" horiz-adv-x="545" 
d="M255 0h-215v20h5q40 0 52.5 13t12.5 52v530q0 39 -12.5 52t-52.5 13h-5v20h215q102 0 161 -46t59 -119q0 -38 -14.5 -67.5t-37.5 -46.5t-41 -26t-37 -14l-15 -3v-5q18 -2 57 -22q31 -15 50 -31q24 -20 41 -54.5t17 -73.5q0 -88 -64.5 -140t-175.5 -52zM255 360h-85v-275
q0 -34 9.5 -47t35.5 -13h40q78 0 124 42.5t46 124.5q0 78 -49 123q-48 45 -121 45zM255 675h-40q-26 0 -35.5 -13t-9.5 -47v-230h85q63 0 109 38q46 39 46 107q0 67 -43.5 106t-111.5 39z" />
    <glyph glyph-name="afii10020" unicode="&#x413;" horiz-adv-x="505" 
d="M40 680v20h393l37 -160l-20 -5q-42 140 -160 140h-55q-39 0 -52 -12t-13 -48v-530q0 -39 12.5 -52t52.5 -13h5v-20h-200v20h5q40 0 52.5 13t12.5 52v530q0 39 -12.5 52t-52.5 13h-5z" />
    <glyph glyph-name="afii10021" unicode="&#x414;" horiz-adv-x="530" 
d="M50 -30l-25 -100h-15v155h20q34 3 49.5 16.5t25.5 41.5q70 180 70 512v20q0 35 -14 50t-51 15h-10v20h390v-20h-5q-40 0 -52.5 -13t-12.5 -52v-530q0 -39 12.5 -52t52.5 -13h20v-150h-15l-25 100q-4 17 -14 23.5t-31 6.5h-325q-21 0 -31 -6.5t-14 -23.5zM200 615v-15
q0 -331 -67 -520q-15 -28 -10 -41.5t37 -13.5h135q39 0 52 12t13 48v530q0 36 -13 48t-52 12h-30q-39 0 -52 -12t-13 -48z" />
    <glyph glyph-name="afii10022" unicode="&#x415;" horiz-adv-x="530" 
d="M485 160l-37 -160h-408v20h5q40 0 52.5 13t12.5 52v530q0 39 -12.5 52t-52.5 13h-5v20h398l37 -160l-20 -5q-42 140 -160 140h-60q-39 0 -52 -12t-13 -48v-245h70q43 0 64 15.5t21 54.5v5h20v-175h-20v5q0 39 -21 54.5t-64 15.5h-70v-260q0 -36 13 -48t52 -12h70
q118 0 160 140z" />
    <glyph glyph-name="afii10024" unicode="&#x416;" horiz-adv-x="550" 
d="M245 85v530q0 38 -11 51.5t-44 13.5v20h170v-20q-33 0 -44 -13.5t-11 -51.5v-255l109 239q22 47 19 64t-33 17v20h125v-20q-29 0 -46 -17.5t-39 -67.5l-93 -202l123 -308q16 -41 25.5 -53t29.5 -12v-20h-122v20q22 0 24.5 13t-12.5 50l-110 277v-275q0 -38 11 -51.5
t44 -13.5v-20h-170v20q33 0 44 13.5t11 51.5zM25 680v20h125v-20q-30 0 -33 -17t19 -64l109 -239l-110 -277q-15 -37 -12.5 -50t24.5 -13v-20h-122v20q20 0 29.5 12t25.5 53l122 308l-92 202q-22 50 -39 67.5t-46 17.5z" />
    <glyph glyph-name="afii10025" unicode="&#x417;" horiz-adv-x="515" 
d="M170 360v25h70q65 0 105 41.5t40 108.5t-41 111t-104 44q-24 0 -54 -10q-13 -4 -22 -13q-3 -3 -8 -6.5t-7 -5.5l-5.5 -5.5t-6.5 -8l-7 -10.5q-19 -32 -26 -48q-6 -17 -11 -27q-1 -5 -12 -31l-11 -30l-20 5l37 210l48 -30q46 35 105 35q100 0 155 -52q55 -51 55 -123
q0 -38 -14 -68t-36 -48t-40 -27.5t-36 -14.5l-14 -4v-5q19 -2 54 -19q30 -15 47 -32q22 -20 38 -57t16 -80q0 -90 -61 -145t-164 -55q-65 0 -102 26l-13 9l-48 -30l-37 210l20 5q39 -103 63 -135q43 -60 117 -60q71 0 113 48.5t42 126.5t-42 126.5t-113 48.5h-70z" />
    <glyph glyph-name="afii10026" unicode="&#x418;" horiz-adv-x="560" 
d="M450 615v-530q0 -39 12.5 -52t52.5 -13h5v-20h-200v20h5q40 0 52.5 13t12.5 52v464l-220 -454v-10q0 -39 12.5 -52t52.5 -13h5v-20h-200v20h5q40 0 52.5 13t12.5 52v530q0 39 -12.5 52t-52.5 13h-5v20h200v-20h-5q-40 0 -52.5 -13t-12.5 -52v-464l220 454v10
q0 39 -12.5 52t-52.5 13h-5v20h200v-20h-5q-40 0 -52.5 -13t-12.5 -52z" />
    <glyph glyph-name="afii10027" unicode="&#x419;" horiz-adv-x="560" 
d="M450 615v-530q0 -39 12.5 -52t52.5 -13h5v-20h-200v20h5q40 0 52.5 13t12.5 52v464l-220 -454v-10q0 -39 12.5 -52t52.5 -13h5v-20h-200v20h5q40 0 52.5 13t12.5 52v530q0 39 -12.5 52t-52.5 13h-5v20h200v-20h-5q-40 0 -52.5 -13t-12.5 -52v-464l220 454v10
q0 39 -12.5 52t-52.5 13h-5v20h200v-20h-5q-40 0 -52.5 -13t-12.5 -52zM150 850q0 27 14.5 43.5t35.5 16.5q18 0 29 -10t11 -25q0 -13 -7 -21.5t-15.5 -11.5t-15.5 -8.5t-7 -13.5q0 -20 23 -32.5t62 -12.5t62 12.5t23 32.5q0 10 -11.5 15.5t-22.5 14t-11 25.5q0 15 11 25
t29 10q21 0 35.5 -16.5t14.5 -43.5q0 -42 -35.5 -68.5t-94.5 -26.5t-94.5 26.5t-35.5 68.5z" />
    <glyph glyph-name="afii10028" unicode="&#x41a;" horiz-adv-x="540" 
d="M340 680h-5v20h170v-20q-37 0 -64 -21t-56 -64l-95 -146l150 -364q15 -37 30.5 -51t44.5 -14h5v-20h-170v20h5q25 0 29.5 13.5t-9.5 51.5l-124 304l-81 -125v-179q0 -39 12.5 -52t52.5 -13h5v-20h-200v20h5q40 0 52.5 13t12.5 52v530q0 39 -12.5 52t-52.5 13h-5v20h200
v-20h-5q-40 0 -52.5 -13t-12.5 -52v-304l187 287q17 25 23 41.5t-2.5 28.5t-37.5 12z" />
    <glyph glyph-name="afii10029" unicode="&#x41b;" horiz-adv-x="535" 
d="M115 680v20h380v-20h-5q-40 0 -52.5 -13t-12.5 -52v-530q0 -39 12.5 -52t52.5 -13h5v-20h-200v20h5q40 0 52.5 13t12.5 52v530q0 36 -13 48t-52 12h-20q-39 0 -52 -12t-13 -48v-115q0 -289 -28 -401q-27 -114 -104 -114q-33 0 -53 20t-20 50q0 22 12 36t28 14
q40 0 40 -42q0 -6 -0.5 -14.5t-0.5 -12.5t1 -8.5t5 -6t10 -1.5q85 0 85 475v120q0 35 -14 50t-51 15h-10z" />
    <glyph glyph-name="afii10030" unicode="&#x41c;" horiz-adv-x="570" 
d="M40 700h129l118 -564l114 564h129v-20q-40 0 -52.5 -13t-12.5 -52v-530q0 -39 12.5 -52t52.5 -13v-20h-190v20q40 0 52.5 13t12.5 52v510l-120 -595h-20l-130 595v-490q0 -43 15.5 -64t54.5 -21v-20h-165v20q39 0 54.5 21t15.5 64v490q0 43 -15.5 64t-54.5 21v20z" />
    <glyph glyph-name="afii10031" unicode="&#x41d;" horiz-adv-x="560" 
d="M450 615v-530q0 -39 12.5 -52t52.5 -13h5v-20h-200v20h5q40 0 52.5 13t12.5 52v260h-220v-260q0 -39 12.5 -52t52.5 -13h5v-20h-200v20h5q40 0 52.5 13t12.5 52v530q0 39 -12.5 52t-52.5 13h-5v20h200v-20h-5q-40 0 -52.5 -13t-12.5 -52v-245h220v245q0 39 -12.5 52
t-52.5 13h-5v20h200v-20h-5q-40 0 -52.5 -13t-12.5 -52z" />
    <glyph glyph-name="afii10032" unicode="&#x41e;" 
d="M103 82q-63 97 -63 268q0 170 63 267q63 98 157 98t157 -98q63 -97 63 -267q0 -171 -63 -268t-157 -97t-157 97zM152 603q-42 -85 -42 -253q0 -167 42 -254q44 -86 108 -86q65 0 107 86q43 86 43 254t-43 253q-42 87 -107 87q-64 0 -108 -87z" />
    <glyph glyph-name="afii10033" unicode="&#x41f;" horiz-adv-x="560" 
d="M40 680v20h480v-20h-5q-40 0 -52.5 -13t-12.5 -52v-530q0 -39 12.5 -52t52.5 -13h5v-20h-200v20h5q40 0 52.5 13t12.5 52v530q0 36 -13 48t-52 12h-90q-39 0 -52 -12t-13 -48v-530q0 -39 12.5 -52t52.5 -13h5v-20h-200v20h5q40 0 52.5 13t12.5 52v530q0 39 -12.5 52
t-52.5 13h-5z" />
    <glyph glyph-name="afii10034" unicode="&#x420;" horiz-adv-x="525" 
d="M225 345h-55v-260q0 -39 12.5 -52t52.5 -13h5v-20h-200v20h5q40 0 52.5 13t12.5 52v530q0 39 -12.5 52t-52.5 13h-5v20h185q113 0 187 -44q73 -43 73 -131t-74 -135q-73 -45 -186 -45zM225 675h-10q-26 0 -35.5 -13t-9.5 -47v-245h55q79 0 135 36q55 37 55 119
q0 81 -54.5 115.5t-135.5 34.5z" />
    <glyph glyph-name="afii10035" unicode="&#x421;" horiz-adv-x="480" 
d="M110 350q0 -159 45 -244.5t115 -85.5q36 0 64.5 17t45 43.5t25 49t12.5 42.5l3 18l20 -5q-2 -23 -21 -70q-14 -35 -31 -61q-20 -29 -54.5 -49t-73.5 -20q-93 0 -157 99q-63 99 -63 266t63 266q64 99 157 99q25 0 49 -8t35 -18l11 -9l48 30l37 -210l-20 -5q-10 37 -23 67
q-12 31 -31 60t-47.5 48.5t-58.5 19.5q-64 0 -107 -90q-43 -87 -43 -250z" />
    <glyph glyph-name="afii10036" unicode="&#x422;" horiz-adv-x="550" 
d="M35 540l37 160h406l37 -160l-20 -5q-20 69 -54.5 104.5t-75.5 35.5h-60v-590q0 -39 12.5 -52t52.5 -13h10v-20h-210v20h10q40 0 52.5 13t12.5 52v590h-60q-41 0 -75.5 -35.5t-54.5 -104.5z" />
    <glyph glyph-name="afii10037" unicode="&#x423;" horiz-adv-x="510" 
d="M340 700h160v-20q-43 0 -61 -26q-13 -18 -24 -59l-130 -462q-21 -78 -43 -115q-20 -33 -57 -33q-32 0 -51 20t-19 50q0 22 12 36t28 14q40 0 40 -42q0 -6 -0.5 -14.5t-0.5 -12.5t1 -8.5t3.5 -6t6.5 -1.5q13 0 24 24t33 99l-162 457q-19 52 -30 64q-16 16 -50 16v20h180
v-20h-5q-33 0 -41 -14.5t5 -50.5l131 -371l100 354q22 82 -45 82h-5v20z" />
    <glyph glyph-name="afii10038" unicode="&#x424;" horiz-adv-x="530" 
d="M295 615v-25q75 0 135 -64q60 -65 60 -176q0 -112 -60 -176t-135 -64v-25q0 -39 12.5 -52t52.5 -13h5v-20h-200v20h5q40 0 52.5 13t12.5 52v25q-75 0 -135 64q-60 65 -60 176q0 112 60 176t135 64v25q0 39 -12.5 52t-52.5 13h-5v20h200v-20h-5q-40 0 -52.5 -13t-12.5 -52
zM235 130v440q-50 0 -87 -61q-38 -61 -38 -159t38 -160q38 -60 87 -60zM295 570v-440q49 0 87 60q38 62 38 160t-38 159q-37 61 -87 61z" />
    <glyph glyph-name="afii10039" unicode="&#x425;" horiz-adv-x="525" 
d="M315 680h-5v20h175v-20q-39 0 -62 -20t-43 -65l-97 -209l128 -289q20 -43 37 -61q17 -16 57 -16v-20h-195v20h5q37 0 45.5 15t-7.5 50l-102 231l-99 -214q-37 -82 38 -82h5v-20h-175v20q39 0 62 20t43 65l112 242l-113 256q-19 43 -38 60q-17 17 -56 17v20h195v-20h-5
q-37 0 -45.5 -15t7.5 -50l87 -198l84 181q20 36 11 59t-49 23z" />
    <glyph glyph-name="afii10040" unicode="&#x426;" horiz-adv-x="560" 
d="M530 -130h-15l-25 100q-4 17 -14 23.5t-31 6.5h-405v20h5q40 0 52.5 13t12.5 52v530q0 39 -12.5 52t-52.5 13h-5v20h200v-20h-5q-40 0 -52.5 -13t-12.5 -52v-530q0 -36 13 -48t52 -12h90q39 0 52 12t13 48v530q0 39 -12.5 52t-52.5 13h-5v20h200v-20h-5q-40 0 -52.5 -13
t-12.5 -52v-530q0 -39 12.5 -52t52.5 -13h15v-150z" />
    <glyph glyph-name="afii10041" unicode="&#x427;" horiz-adv-x="535" 
d="M425 615v-530q0 -39 12.5 -52t52.5 -13h5v-20h-200v20h5q40 0 52.5 13t12.5 52v283q-52 -58 -130 -58q-60 0 -106 38q-44 39 -44 122v145q0 39 -12.5 52t-52.5 13h-5v20h200v-20h-5q-40 0 -52.5 -13t-12.5 -52v-145q0 -130 110 -130q63 0 110 47v228q0 39 -12.5 52
t-52.5 13h-5v20h200v-20h-5q-40 0 -52.5 -13t-12.5 -52z" />
    <glyph glyph-name="afii10042" unicode="&#x428;" horiz-adv-x="590" 
d="M440 85v530q0 27 -0.5 34t-4.5 16.5t-11.5 11t-23.5 3.5v20h140v-20q-27 0 -33.5 -11.5t-6.5 -53.5v-530q0 -27 0.5 -34t4.5 -16.5t11.5 -11t23.5 -3.5v-20h-490v20q27 0 33.5 11.5t6.5 53.5v530q0 27 -0.5 34t-4.5 16.5t-11.5 11t-23.5 3.5v20h140v-20
q-27 0 -33.5 -11.5t-6.5 -53.5v-530q0 -38 5 -50q6 -10 35 -10h35q30 0 34 10q6 11 6 50v530q0 27 -0.5 34t-4.5 16.5t-11.5 11t-23.5 3.5v20h140v-20q-27 0 -33.5 -11.5t-6.5 -53.5v-530q0 -38 5 -50q6 -10 35 -10h35q30 0 34 10q6 11 6 50z" />
    <glyph glyph-name="afii10043" unicode="&#x429;" horiz-adv-x="590" 
d="M555 -130h-15l-25 100q-4 17 -14 23.5t-31 6.5h-420v20q27 0 33.5 11.5t6.5 53.5v530q0 27 -0.5 34t-4.5 16.5t-11.5 11t-23.5 3.5v20h140v-20q-27 0 -33.5 -11.5t-6.5 -53.5v-530q0 -38 5 -50q6 -10 35 -10h30q30 0 34 10q6 11 6 50v530q0 27 -0.5 34t-4.5 16.5
t-11.5 11t-23.5 3.5v20h140v-20q-27 0 -33.5 -11.5t-6.5 -53.5v-530q0 -38 5 -50q6 -10 35 -10h30q30 0 34 10q6 11 6 50v530q0 27 -0.5 34t-4.5 16.5t-11.5 11t-23.5 3.5v20h140v-20q-27 0 -33.5 -11.5t-6.5 -53.5v-530q0 -27 0.5 -34t4.5 -16.5t11.5 -11t23.5 -3.5h25
v-150z" />
    <glyph glyph-name="afii10044" unicode="&#x42a;" horiz-adv-x="555" 
d="M260 615v-245h45q95 0 153 -53q57 -53 57 -132q0 -81 -57 -133q-56 -52 -153 -52h-175v20h5q40 0 52.5 13t12.5 52v590h-25q-41 0 -75.5 -35.5t-54.5 -104.5l-20 5l37 160h268v-20h-5q-40 0 -52.5 -13t-12.5 -52zM305 25q63 0 101.5 42.5t38.5 117.5t-38.5 117.5
t-101.5 42.5h-45v-260q0 -34 9.5 -47t35.5 -13z" />
    <glyph glyph-name="afii10045" unicode="&#x42b;" horiz-adv-x="570" 
d="M160 615v-245h35q74 0 114.5 -49t40.5 -136t-40.5 -136t-114.5 -49h-150v20q33 0 44 13.5t11 51.5v530q0 38 -11 51.5t-44 13.5v20h170v-20q-33 0 -44 -13.5t-11 -51.5zM195 345h-35v-260q0 -36 7 -48t28 -12q90 0 90 160t-90 160zM470 615v-530q0 -38 11 -51.5t44 -13.5
v-20h-170v20q33 0 44 13.5t11 51.5v530q0 38 -11 51.5t-44 13.5v20h170v-20q-33 0 -44 -13.5t-11 -51.5z" />
    <glyph glyph-name="afii10046" unicode="&#x42c;" horiz-adv-x="525" 
d="M170 615v-245h55q113 0 186 -48q74 -48 74 -137t-74 -137q-73 -48 -186 -48h-185v20h5q40 0 52.5 13t12.5 52v530q0 39 -12.5 52t-52.5 13h-5v20h200v-20h-5q-40 0 -52.5 -13t-12.5 -52zM215 25h10q36 0 68 8t60.5 25t45 49.5t16.5 77.5t-16.5 77.5t-45 49.5t-60.5 25
t-68 8h-55v-260q0 -34 9.5 -47t35.5 -13z" />
    <glyph glyph-name="afii10047" unicode="&#x42d;" horiz-adv-x="470" 
d="M215 690q-42 0 -76.5 -35.5t-49.5 -70.5t-24 -69l-5 -20l-20 5l37 210l48 -30q30 35 90 35q93 0 154 -99q61 -97 61 -266q0 -168 -64 -266q-63 -99 -156 -99q-42 0 -75.5 19.5t-53.5 52t-30 57t-17 50.5l-4 21l20 5q2 -21 15 -59q36 -107 135 -111q69 0 114 84.5
t46 240.5h-85q-43 0 -64 -15.5t-21 -54.5v-5h-20v175h20v-5q0 -39 21 -54.5t64 -15.5h85q-3 149 -43.5 234.5t-101.5 85.5z" />
    <glyph glyph-name="afii10048" unicode="&#x42e;" horiz-adv-x="570" 
d="M160 615v-245h70q1 152 41 249q39 96 109 96q72 0 111 -102t39 -263t-39 -263t-111 -102t-111 100q-37 100 -39 260h-70v-260q0 -38 11 -51.5t44 -13.5v-20h-170v20q33 0 44 13.5t11 51.5v530q0 38 -11 51.5t-44 13.5v20h170v-20q-33 0 -44 -13.5t-11 -51.5zM380 690
q-80 0 -80 -340t80 -340t80 340t-80 340z" />
    <glyph glyph-name="afii10049" unicode="&#x42f;" horiz-adv-x="535" 
d="M365 85v260h-45q-24 0 -44 2l-141 -347h-110v20h5q29 0 44.5 14t30.5 51l112 272q-72 18 -112 60.5t-40 107.5q0 87 72 131q74 44 183 44h175v-20h-5q-40 0 -52.5 -13t-12.5 -52v-530q0 -39 12.5 -52t52.5 -13h5v-20h-200v20h5q40 0 52.5 13t12.5 52zM320 675
q-35 0 -65.5 -7t-58.5 -22.5t-44.5 -46.5t-16.5 -74t16.5 -74.5t44.5 -48.5t59 -24.5t65 -7.5h45v245q0 34 -9.5 47t-35.5 13z" />
    <glyph glyph-name="afii10065" unicode="&#x430;" 
d="M415 355v-270q0 -38 11 -51.5t44 -13.5h5v-20h-115v65l-26 -15l-28 -17l-33 -19q-60 -33 -107 -29q-50 0 -78 24t-28 66q0 55 54.5 100.5t175.5 104.5l70 34v41q-1 58 -18 76q-16 19 -67 19q-49 0 -95 -23q-45 -23 -45 -52q0 -5 2.5 -22t2.5 -19q2 -24 -18 -34t-40 0
t-17 35q0 44 71 92q72 48 154 48q76 0 100 -30q25 -29 25 -90zM331 68l29 17v210l-70 -35q-170 -86 -170 -170q0 -34 22.5 -52t57.5 -18q19 0 42 6.5t39 14.5t32 17t18 10z" />
    <glyph glyph-name="afii10066" unicode="&#x431;" horiz-adv-x="515" 
d="M153 373q-43 -55 -43 -153t43 -154q44 -56 107 -56q62 0 106 56q44 58 44 154q0 97 -44 153q-44 57 -106 57q-64 0 -107 -57zM260 -15q-95 0 -155 71q-60 70 -60 204q0 126 49 210t156 140q30 16 64 30l55 23q46 20 46 52h15q5 -52 -32 -91q-8 -8 -30 -21l-35 -18
l-48 -20q-103 -45 -142 -88q-40 -43 -63 -142h5q9 21 23 41q50 76 162 79q88 0 146 -67q59 -68 59 -168t-62 -168q-61 -67 -153 -67z" />
    <glyph glyph-name="afii10067" unicode="&#x432;" horiz-adv-x="490" 
d="M45 440v20h200q91 0 135.5 -32t44.5 -83q0 -39 -29.5 -66.5t-80.5 -35.5v-5q60 -9 95 -37.5t35 -75.5q0 -55 -52 -90t-148 -35h-200v20h5q33 0 44 13.5t11 51.5v290q0 38 -11 51.5t-44 13.5h-5zM205 25h40q135 0 135 100q0 48 -35.5 74t-99.5 26h-85v-140q0 -34 9.5 -47
t35.5 -13zM245 435h-40q-26 0 -35.5 -13t-9.5 -47v-125h85q61 0 90.5 25.5t29.5 69.5q0 90 -120 90z" />
    <glyph glyph-name="afii10068" unicode="&#x433;" horiz-adv-x="470" 
d="M45 440v20h353l37 -135l-20 -5q-37 115 -130 115h-70q-34 0 -44.5 -11.5t-10.5 -48.5v-290q0 -38 11 -51.5t44 -13.5h5v-20h-175v20h5q33 0 44 13.5t11 51.5v290q0 38 -11 51.5t-44 13.5h-5z" />
    <glyph glyph-name="afii10069" unicode="&#x434;" 
d="M405 375v-290q0 -38 11 -51.5t44 -13.5h25v-150h-10l-30 100q-5 18 -14.5 24t-30.5 6h-300q-21 0 -30.5 -6t-14.5 -24l-30 -100h-10v155h30q24 0 39.5 11.5t27.5 38.5q53 123 53 290v10q0 36 -10.5 50.5t-44.5 14.5h-10v20h365v-20h-5q-33 0 -44 -13.5t-11 -51.5zM350 85
v290q0 37 -10.5 48.5t-44.5 11.5h-40q-39 0 -52 -12t-13 -48v-10q0 -160 -54 -295q-13 -22 -10 -33.5t29 -11.5h140q34 0 44.5 11.5t10.5 48.5z" />
    <glyph glyph-name="afii10070" unicode="&#x435;" horiz-adv-x="510" 
d="M110 230q0 -100 51 -156q53 -54 119 -54q65 0 102 34t49 69l4 12l20 -5q-2 -17 -21 -50q-12 -23 -34 -45q-20 -20 -58.5 -35t-81.5 -15q-93 0 -154 67t-61 178q0 113 63 179t157 66q95 0 148 -60q52 -59 52 -145v-10h-354q-1 -7 -1 -30zM260 450q-56 0 -96 -43t-51 -122
h287q0 77 -38 121t-102 44z" />
    <glyph glyph-name="afii10072" unicode="&#x436;" horiz-adv-x="550" 
d="M248 85v290q0 27 -0.5 34t-4.5 16.5t-11.5 11t-23.5 3.5v20h134v-20q-27 0 -33.5 -11.5t-6.5 -53.5v-135l111 155q33 45 -8 45h-5v20h120v-20q-25 0 -43.5 -12.5t-44.5 -47.5l-87 -121l122 -194q18 -29 28.5 -37t29.5 -8v-20h-126v20q17 0 22.5 5.5t3 13.5t-11.5 21l-3 4
l-108 176v-155q0 -27 0.5 -34t4.5 -16.5t11.5 -11t23.5 -3.5v-20h-134v20q27 0 33.5 11.5t6.5 53.5zM30 440v20h120v-20h-5q-41 0 -8 -45l111 -155l-108 -176q-16 -30 -13.5 -37t24.5 -7v-20h-126v20q19 0 29.5 8t28.5 37l121 194l-86 121q-26 35 -44.5 47.5t-43.5 12.5z
" />
    <glyph glyph-name="afii10073" unicode="&#x437;" horiz-adv-x="480" 
d="M230 10q63 0 101.5 30t38.5 82q0 50 -36 76.5t-99 26.5h-65v25h65q56 0 88 27.5t32 72.5t-32 72.5t-88 27.5q-33 0 -61.5 -15t-47 -38.5t-29.5 -43t-17 -37.5l-5 -16l-20 5l40 170l45 -35q41 35 105 35q85 0 128 -38q42 -37 42 -87q0 -42 -29.5 -71t-80.5 -36v-5
q130 -16 130 -116q0 -53 -54 -95t-146 -42q-86 0 -138 37t-52 88q0 24 11.5 37t30.5 13q17 0 27.5 -10.5t10.5 -28.5q0 -8 -5 -26.5t-5 -24.5q0 -25 29 -42.5t86 -17.5z" />
    <glyph glyph-name="afii10074" unicode="&#x438;" horiz-adv-x="540" 
d="M435 375v-290q0 -38 11 -51.5t44 -13.5h5v-20h-175v20h5q33 0 44 13.5t11 51.5v255l-220 -255q0 -38 11 -51.5t44 -13.5h5v-20h-175v20h5q33 0 44 13.5t11 51.5v290q0 38 -11 51.5t-44 13.5h-5v20h175v-20h-5q-33 0 -44 -13.5t-11 -51.5v-255l220 255q0 38 -11 51.5
t-44 13.5h-5v20h175v-20h-5q-33 0 -44 -13.5t-11 -51.5z" />
    <glyph glyph-name="afii10075" unicode="&#x439;" horiz-adv-x="540" 
d="M435 375v-290q0 -38 11 -51.5t44 -13.5h5v-20h-175v20h5q33 0 44 13.5t11 51.5v255l-220 -255q0 -38 11 -51.5t44 -13.5h5v-20h-175v20h5q33 0 44 13.5t11 51.5v290q0 38 -11 51.5t-44 13.5h-5v20h175v-20h-5q-33 0 -44 -13.5t-11 -51.5v-255l220 255q0 38 -11 51.5
t-44 13.5h-5v20h175v-20h-5q-33 0 -44 -13.5t-11 -51.5zM140 610q0 27 14.5 43.5t35.5 16.5q18 0 29 -10t11 -25q0 -13 -7 -21.5t-15.5 -11.5t-15.5 -8.5t-7 -13.5q0 -20 23 -32.5t62 -12.5t62 12.5t23 32.5q0 10 -11.5 15.5t-22.5 14t-11 25.5q0 15 11 25t29 10
q21 0 35.5 -16.5t14.5 -43.5q0 -42 -35.5 -68.5t-94.5 -26.5t-94.5 26.5t-35.5 68.5z" />
    <glyph glyph-name="afii10076" unicode="&#x43a;" horiz-adv-x="515" 
d="M320 440h-5v20h170v-20q-41 0 -64 -12q-21 -11 -66 -53l-89 -85l149 -215q24 -33 40 -44t45 -11v-20h-162v20h5q17 0 22.5 4t2 15.5t-18.5 34.5l-123 178l-66 -63v-104q0 -38 11 -51.5t44 -13.5h5v-20h-175v20h5q33 0 44 13.5t11 51.5v290q0 38 -11 51.5t-44 13.5h-5v20
h175v-20h-5q-33 0 -44 -13.5t-11 -51.5v-152l167 160q22 22 29.5 33t-0.5 17.5t-36 6.5z" />
    <glyph glyph-name="afii10077" unicode="&#x43b;" horiz-adv-x="535" 
d="M430 375v-290q0 -38 11 -51.5t44 -13.5h5v-20h-175v20h5q33 0 44 13.5t11 51.5v290q0 37 -10.5 48.5t-44.5 11.5h-35q-39 0 -52 -12t-13 -48v-15q0 -189 -28 -282t-95 -93q-33 0 -52.5 17.5t-19.5 43.5q0 22 11.5 35.5t27.5 13.5q36 0 36 -37q0 -33 20 -33q38 0 56 94
q19 92 19 236v20q0 36 -10.5 50.5t-44.5 14.5h-10v20h360v-20h-5q-33 0 -44 -13.5t-11 -51.5z" />
    <glyph glyph-name="afii10078" unicode="&#x43c;" horiz-adv-x="560" 
d="M460 375v-290q0 -38 11 -51.5t44 -13.5v-20h-165v20q33 0 44 13.5t11 51.5v294l-125 -379h-20l-130 378v-273q-1 -42 10.5 -62t49.5 -23v-20h-145v20q35 0 47.5 20.5t12.5 64.5v250q1 42 -10.5 62t-49.5 23v20h115l125 -364l120 364h110v-20q-33 0 -44 -13.5t-11 -51.5z
" />
    <glyph glyph-name="afii10079" unicode="&#x43d;" horiz-adv-x="540" 
d="M435 375v-290q0 -38 11 -51.5t44 -13.5h5v-20h-175v20h5q33 0 44 13.5t11 51.5v140h-220v-140q0 -38 11 -51.5t44 -13.5h5v-20h-175v20h5q33 0 44 13.5t11 51.5v290q0 38 -11 51.5t-44 13.5h-5v20h175v-20h-5q-33 0 -44 -13.5t-11 -51.5v-125h220v125q0 38 -11 51.5
t-44 13.5h-5v20h175v-20h-5q-33 0 -44 -13.5t-11 -51.5z" />
    <glyph glyph-name="afii10080" unicode="&#x43e;" 
d="M107 54q-62 70 -62 176t62 176q61 69 153 69t153 -69q62 -70 62 -176t-62 -176q-61 -69 -153 -69t-153 69zM153 392q-43 -58 -43 -162t43 -162t107 -58t107 58t43 162t-43 162t-107 58t-107 -58z" />
    <glyph glyph-name="afii10081" unicode="&#x43f;" horiz-adv-x="540" 
d="M435 375v-290q0 -38 11 -51.5t44 -13.5h5v-20h-175v20h5q33 0 44 13.5t11 51.5v290q0 37 -10.5 48.5t-44.5 11.5h-110q-34 0 -44.5 -11.5t-10.5 -48.5v-290q0 -38 11 -51.5t44 -13.5h5v-20h-175v20h5q33 0 44 13.5t11 51.5v290q0 38 -11 51.5t-44 13.5h-5v20h450v-20h-5
q-33 0 -44 -13.5t-11 -51.5z" />
    <glyph glyph-name="afii10082" unicode="&#x440;" horiz-adv-x="535" 
d="M161 22l-11 13v-160q0 -38 11 -51.5t44 -13.5h10v-20h-180v20h5q33 0 44 13.5t11 51.5v500q0 38 -11 51.5t-44 13.5h-5v20h5q72 0 100 20h10v-80q18 23 20 26q45 49 115 49q93 0 149 -68t56 -177t-59 -177t-156 -68q-37 0 -69 11.5t-45 25.5zM275 450q-57 0 -91 -42
q-34 -41 -34 -98v-210q0 -30 31 -60t94 -30q70 0 110 58t40 162t-40 162t-110 58z" />
    <glyph glyph-name="afii10083" unicode="&#x441;" horiz-adv-x="495" 
d="M431 123l4 12l20 -5q-2 -17 -21 -50q-12 -23 -34 -45q-20 -20 -58.5 -35t-81.5 -15q-93 0 -154 67t-61 178q0 110 63 178q63 67 162 67q70 0 117 -38q48 -37 48 -87q0 -24 -11.5 -37t-30.5 -13q-17 0 -27.5 10.5t-10.5 28.5q0 8 5 26.5t5 24.5q0 25 -26 42.5t-74 17.5
q-69 0 -112 -57.5t-43 -162.5q0 -100 51 -156q53 -54 119 -54q65 0 102 34t49 69z" />
    <glyph glyph-name="afii10084" unicode="&#x442;" 
d="M35 325l37 135h376l37 -135l-20 -5q-37 115 -130 115h-48v-350q0 -39 12.5 -52t52.5 -13h10v-20h-204v20h10q40 0 52.5 13t12.5 52v350h-48q-93 0 -130 -115z" />
    <glyph glyph-name="afii10085" unicode="&#x443;" horiz-adv-x="525" 
d="M350 460h160v-20q-44 0 -62 -26q-13 -18 -28 -59l-152 -432q-29 -83 -51.5 -115.5t-56.5 -32.5q-32 0 -51 20t-19 50q0 22 12 36t28 14q40 0 40 -42q0 -6 -0.5 -14.5t-0.5 -12.5t1 -8.5t3.5 -6t6.5 -1.5q14 0 26 24t39 99l24 67l-154 360q-23 52 -34 63q-17 17 -51 17v20
h175v-20q-29 0 -41 -9q-15 -9 5 -56l127 -297l99 280q28 82 -40 82h-5v20z" />
    <glyph glyph-name="afii10086" unicode="&#x444;" horiz-adv-x="585" 
d="M266 -65v112q-27 -62 -81 -62q-67 0 -101 65.5t-34 179.5t34 179.5t101 65.5q40 0 61 -30q16 -22 20 -35v125q0 64 -15.5 98.5t-50.5 56.5l5 10q59 -20 87 -65q-1 3 8 14t31 26.5t49 24.5l5 -10q-35 -22 -50.5 -56.5t-15.5 -98.5v-124q3 10 9.5 22.5t26 27t45.5 14.5
q67 0 101 -65.5t34 -179.5t-34 -179.5t-101 -65.5q-57 0 -81 63v-113q0 -64 15.5 -98.5t50.5 -56.5l-5 -10q-26 9 -47 24t-29.5 25t-10.5 16q-2 -5 -10 -15t-30 -25.5t-48 -24.5l-5 10q35 22 50.5 56.5t15.5 98.5zM195 10q31 0 51 42q20 43 20 98v160q0 55 -20 98
q-20 42 -51 42q-42 0 -63.5 -59t-21.5 -161t21.5 -161t63.5 -59zM390 10q42 0 63.5 59t21.5 161t-21.5 161t-63.5 59q-32 0 -52 -42q-19 -41 -19 -98v-160q0 -57 19 -98q20 -42 52 -42z" />
    <glyph glyph-name="afii10087" unicode="&#x445;" 
d="M310 440h-5v20h170v-20q-34 0 -57 -15t-48 -50l-85 -115l130 -183q24 -33 45 -45t50 -12v-20h-190v20h5q37 0 41.5 12.5t-18.5 43.5l-98 137l-93 -127q-50 -66 28 -66h5v-20h-170v20q34 0 57 15t48 50l110 149l-105 149q-24 33 -45 45t-50 12v20h190v-20h-5
q-36 0 -41.5 -13t18.5 -43l73 -103l68 93q48 66 -28 66z" />
    <glyph glyph-name="afii10088" unicode="&#x446;" horiz-adv-x="550" 
d="M515 -130h-10l-30 100q-5 18 -14.5 24t-30.5 6h-385v20h5q33 0 44 13.5t11 51.5v290q0 38 -11 51.5t-44 13.5h-5v20h175v-20h-5q-33 0 -44 -13.5t-11 -51.5v-290q0 -37 10.5 -48.5t44.5 -11.5h110q34 0 44.5 11.5t10.5 48.5v290q0 38 -11 51.5t-44 13.5h-5v20h175v-20h-5
q-33 0 -44 -13.5t-11 -51.5v-290q0 -38 11 -51.5t44 -13.5h25v-150z" />
    <glyph glyph-name="afii10089" unicode="&#x447;" 
d="M346 240l14 10v125q0 38 -11 51.5t-44 13.5h-5v20h175v-20h-5q-33 0 -44 -13.5t-11 -51.5v-290q0 -38 11 -51.5t44 -13.5h5v-20h-175v20h5q33 0 44 13.5t11 51.5v145q-12 -10 -19 -14q-16 -10 -49 -22q-37 -14 -72 -14q-60 0 -97.5 34.5t-37.5 90.5v70q0 38 -11 51.5
t-44 13.5h-5v20h175v-20h-5q-33 0 -44 -13.5t-11 -51.5v-65q0 -100 100 -100q60 0 106 30z" />
    <glyph glyph-name="afii10090" unicode="&#x448;" horiz-adv-x="590" 
d="M95 85v290q0 27 -0.5 34t-4.5 16.5t-11.5 11t-23.5 3.5v20h135v-20q-27 0 -33.5 -11.5t-6.5 -53.5v-290q0 -38 5 -50q6 -10 35 -10h38q30 0 34 10q6 11 6 50v290q0 27 -0.5 34t-4.5 16.5t-11.5 11t-23.5 3.5v20h134v-20q-27 0 -33.5 -11.5t-6.5 -53.5v-290q0 -38 5 -50
q6 -10 35 -10h38q30 0 34 10q6 11 6 50v290q0 27 -0.5 34t-4.5 16.5t-11.5 11t-23.5 3.5v20h135v-20q-27 0 -33.5 -11.5t-6.5 -53.5v-290q0 -27 0.5 -34t4.5 -16.5t11.5 -11t23.5 -3.5v-20h-480v20q27 0 33.5 11.5t6.5 53.5z" />
    <glyph glyph-name="afii10091" unicode="&#x449;" horiz-adv-x="590" 
d="M555 -130h-10l-30 100q-5 18 -14.5 24t-30.5 6h-415v20q27 0 33.5 11.5t6.5 53.5v290q0 27 -0.5 34t-4.5 16.5t-11.5 11t-23.5 3.5v20h135v-20q-27 0 -33.5 -11.5t-6.5 -53.5v-290q0 -38 5 -50q6 -10 35 -10h36q30 0 34 10q6 11 6 50v290q0 27 -0.5 34t-4.5 16.5
t-11.5 11t-23.5 3.5v20h134v-20q-27 0 -33.5 -11.5t-6.5 -53.5v-290q0 -38 5 -50q6 -10 35 -10h36q30 0 34 10q6 11 6 50v290q0 27 -0.5 34t-4.5 16.5t-11.5 11t-23.5 3.5v20h135v-20q-27 0 -33.5 -11.5t-6.5 -53.5v-290q0 -43 5 -54t27 -11h32v-150z" />
    <glyph glyph-name="afii10092" unicode="&#x44a;" 
d="M30 325l37 135h243v-20h-5q-33 0 -44 -13.5t-11 -51.5v-125h50q86 0 135.5 -35.5t49.5 -89.5t-49.5 -89.5t-135.5 -35.5h-165v20h5q33 0 44 13.5t11 51.5v350h-15q-93 0 -130 -115zM295 25h5q57 0 88.5 26t31.5 74t-31.5 74t-88.5 26h-50v-140q0 -34 9.5 -47t35.5 -13z
" />
    <glyph glyph-name="afii10093" unicode="&#x44b;" horiz-adv-x="580" 
d="M160 375v-125h50q67 0 103.5 -34.5t36.5 -90.5t-36.5 -90.5t-103.5 -34.5h-165v20h5q33 0 44 13.5t11 51.5v290q0 38 -11 51.5t-44 13.5h-5v20h175v-20h-5q-33 0 -44 -13.5t-11 -51.5zM205 25h5q38 0 59 26t21 74t-21 74t-59 26h-50v-140q0 -34 9.5 -47t35.5 -13z
M475 375v-290q0 -38 11 -51.5t44 -13.5h5v-20h-175v20h5q33 0 44 13.5t11 51.5v290q0 38 -11 51.5t-44 13.5h-5v20h175v-20h-5q-33 0 -44 -13.5t-11 -51.5z" />
    <glyph glyph-name="afii10094" unicode="&#x44c;" horiz-adv-x="475" 
d="M160 375v-125h80q96 0 148 -35t52 -90t-52 -90t-148 -35h-195v20h5q33 0 44 13.5t11 51.5v290q0 38 -11 51.5t-44 13.5h-5v20h175v-20h-5q-33 0 -44 -13.5t-11 -51.5zM205 25h35q135 0 135 100t-135 100h-80v-140q0 -34 9.5 -47t35.5 -13z" />
    <glyph glyph-name="afii10095" unicode="&#x44d;" horiz-adv-x="490" 
d="M145 225v25h234q-4 92 -52 146q-47 54 -112 54q-56 0 -95 -45t-54 -89l-6 -16l-20 5l40 170l45 -35q35 35 105 35q91 0 153 -68t62 -177q0 -110 -62 -178q-61 -67 -153 -67q-91 0 -140 51q-42 44 -51 79l-4 15l20 5q1 -10 19 -40q40 -72 136 -75q67 0 118 51
q50 52 52 154h-235z" />
    <glyph glyph-name="afii10096" unicode="&#x44e;" horiz-adv-x="555" 
d="M150 375v-125h70q4 103 43 164t102 61q67 0 106 -68q39 -67 39 -177t-39 -178q-39 -67 -106 -67q-66 0 -105 65.5t-40 174.5h-70v-140q0 -40 8 -52.5t37 -12.5h5v-20h-155v20h5q29 0 37 12.5t8 52.5v290q0 40 -8 52.5t-37 12.5h-5v20h155v-20h-5q-29 0 -37 -12.5
t-8 -52.5zM303 393q-23 -58 -23 -163t23 -163q23 -57 62 -57t62 57q23 58 23 163t-23 163q-23 57 -62 57t-62 -57z" />
    <glyph glyph-name="afii10097" unicode="&#x44f;" horiz-adv-x="515" 
d="M355 85v140h-111l-116 -225h-98v20h5q22 0 38.5 14t36.5 51l75 147q-115 24 -115 103q0 54 53.5 89.5t146.5 35.5h200v-20h-5q-33 0 -44 -13.5t-11 -51.5v-290q0 -38 11 -51.5t44 -13.5h5v-20h-175v20h5q33 0 44 13.5t11 51.5zM310 435h-40q-65 0 -100 -26.5t-35 -73.5
q0 -85 135 -85h85v125q0 34 -9.5 47t-35.5 13z" />
    <glyph glyph-name="afii10071" unicode="&#x451;" horiz-adv-x="510" 
d="M110 230q0 -100 51 -156q53 -54 119 -54q65 0 102 34t49 69l4 12l20 -5q-2 -17 -21 -50q-12 -23 -34 -45q-20 -20 -58.5 -35t-81.5 -15q-93 0 -154 67t-61 178q0 113 63 179t157 66q95 0 148 -60q52 -59 52 -145v-10h-354q-1 -7 -1 -30zM260 450q-56 0 -96 -43t-51 -122
h287q0 77 -38 121t-102 44zM119 594q-14 15 -14 36t14 35q15 15 36 15t35 -15q15 -14 15 -35t-15 -36q-14 -14 -35 -14t-36 14zM319 594q-14 15 -14 36t14 35q15 15 36 15t35 -15q15 -14 15 -35t-15 -36q-14 -14 -35 -14t-36 14z" />
    <glyph glyph-name="afii10099" unicode="&#x452;" 
d="M105 545h-85v25h85v45q0 38 -11 51.5t-44 13.5h-5v20h5q70 0 100 30h10v-160h110v-25h-110v-170l28 27q18 16 63 45q46 28 79 28q120 0 120 -140v-175q0 -166 -75 -277q-43 -69 -105 -103l-10 -5l-5 15q19 10 49 44q23 26 42 62q20 37 34.5 100.5t14.5 133.5v205
q0 105 -85 105q-29 0 -67 -23q-37 -23 -60 -45l-23 -22v-265q0 -38 11 -51.5t44 -13.5h5v-20h-175v20h5q33 0 44 13.5t11 51.5v460z" />
    <glyph glyph-name="afii10100" unicode="&#x453;" horiz-adv-x="470" 
d="M45 440v20h353l37 -135l-20 -5q-37 115 -130 115h-70q-34 0 -44.5 -11.5t-10.5 -48.5v-290q0 -38 11 -51.5t44 -13.5h5v-20h-175v20h5q33 0 44 13.5t11 51.5v290q0 38 -11 51.5t-44 13.5h-5zM185 560h-15l105 160h85z" />
    <glyph glyph-name="afii10101" unicode="&#x454;" horiz-adv-x="495" 
d="M110 250h235v-25h-235q2 -102 52 -154q51 -51 118 -51q65 0 102 34t49 69l4 12l20 -5q-2 -17 -21 -50q-12 -23 -34 -45q-20 -20 -58.5 -35t-81.5 -15q-93 0 -154 67t-61 178q0 110 61 177q62 68 154 68q29 0 56 -8t38 -18l11 -9l45 35l40 -170l-20 -5q-12 31 -23 52
q-47 94 -132 98q-67 0 -114 -54q-46 -52 -51 -146z" />
    <glyph glyph-name="afii10102" unicode="&#x455;" horiz-adv-x="516" 
d="M158 11l-15 9l-45 -35l-40 170l20 5q9 -23 26 -52q18 -28 36 -46q23 -22 60.5 -37t77.5 -15q62 0 96 29q34 30 34 71t-35 64q-17 11 -41.5 20t-41.5 13t-53.5 11.5t-48.5 10.5q-54 12 -87 41t-33 75q0 55 51 92q53 38 124 38q73 0 108 -26l12 -9l45 35l40 -170l-20 -5
q-9 24 -25 52q-17 29 -34 46q-20 22 -54.5 37t-71.5 15q-55 0 -90 -26.5t-35 -63.5q0 -61 120 -84q26 -5 37.5 -7.5t37 -8t38.5 -11t33.5 -14t31 -19t22 -23.5t16 -30.5t4.5 -37.5q0 -63 -51 -101.5t-134 -38.5q-74 0 -115 26z" />
    <glyph glyph-name="afii10103" unicode="&#x456;" horiz-adv-x="455" 
d="M255 480h10v-385q0 -49 14 -63q15 -12 81 -12h65v-20h-375v20h65q67 0 80 12q15 14 15 63v300q0 31 -6 38t-39 7h-85v20h45q102 0 130 20zM189 594q-14 15 -14 36t14 35q15 15 36 15t35 -15q15 -14 15 -35t-15 -36q-14 -14 -35 -14t-36 14z" />
    <glyph glyph-name="afii10104" unicode="&#x457;" horiz-adv-x="455" 
d="M255 480h10v-385q0 -49 14 -63q15 -12 81 -12h65v-20h-375v20h65q67 0 80 12q15 14 15 63v300q0 31 -6 38t-39 7h-85v20h45q102 0 130 20zM69 594q-14 15 -14 36t14 35q15 15 36 15t35 -15q15 -14 15 -35t-15 -36q-14 -14 -35 -14t-36 14zM299 594q-14 15 -14 36t14 35
q15 15 36 15t35 -15q15 -14 15 -35t-15 -36q-14 -14 -35 -14t-36 14z" />
    <glyph glyph-name="afii10105" unicode="&#x458;" horiz-adv-x="400" 
d="M260 480h10v-480q0 -105 -49 -165t-126 -60q-70 0 -107 37q-38 36 -38 83q0 31 13 48t34 17q38 0 38 -36q0 -20 -18 -33q-17 -15 -17 -26q0 -25 24 -45t66 -20q125 0 125 200v395q0 31 -6 38t-39 7h-125v20h85q102 0 130 20zM194 594q-14 15 -14 36t14 35q15 15 36 15
t35 -15q15 -14 15 -35t-15 -36q-14 -14 -35 -14t-36 14z" />
    <glyph glyph-name="afii10106" unicode="&#x459;" horiz-adv-x="565" 
d="M335 375v-125h55q67 0 103.5 -34.5t36.5 -90.5t-36.5 -90.5t-103.5 -34.5h-155v20h5q27 0 33.5 11.5t6.5 53.5v290q0 39 -6 50q-4 10 -34 10h-10q-34 0 -42 -11t-8 -49v-15q0 -126 -3 -181q-1 -71 -11 -115q-9 -43 -26.5 -61t-48.5 -18q-32 0 -49 17.5t-17 43.5
q0 22 11.5 35.5t27.5 13.5q36 0 36 -37q0 -28 7 -32q2 -1 8 -1q29 0 35 104q4 51 4 99q1 29 1 127v20q1 37 -6.5 49t-38.5 16h-10v20h280v-20h-5q-27 0 -33.5 -11.5t-6.5 -53.5zM380 25h10q38 0 59 26t21 74t-21 74t-59 26h-55v-140q0 -34 9.5 -47t35.5 -13z" />
    <glyph glyph-name="afii10107" unicode="&#x45a;" horiz-adv-x="565" 
d="M145 375v-125h135v125q0 27 -0.5 34t-4.5 16.5t-11.5 11t-23.5 3.5h-5v20h145v-20h-5q-27 0 -33.5 -11.5t-6.5 -53.5v-125h55q67 0 103.5 -34.5t36.5 -90.5t-36.5 -90.5t-103.5 -34.5h-155v20h5q27 0 33.5 11.5t6.5 53.5v140h-135v-140q0 -27 0.5 -34t4.5 -16.5t11.5 -11
t23.5 -3.5h5v-20h-145v20h5q27 0 33.5 11.5t6.5 53.5v290q0 27 -0.5 34t-4.5 16.5t-11.5 11t-23.5 3.5h-5v20h145v-20h-5q-27 0 -33.5 -11.5t-6.5 -53.5zM380 25h10q38 0 59 26t21 74t-21 74t-59 26h-55v-140q0 -34 9.5 -47t35.5 -13z" />
    <glyph glyph-name="afii10108" unicode="&#x45b;" horiz-adv-x="545" 
d="M150 730h10v-160h110v-25h-110v-170l28 27q18 16 63 45q46 28 79 28q55 0 87.5 -34.5t32.5 -85.5v-270q0 -38 11 -51.5t44 -13.5h5v-20h-175v20h5q33 0 44 13.5t11 51.5v270q0 37 -23 61t-62 24q-29 0 -67 -23q-37 -23 -60 -45l-23 -22v-265q0 -38 11 -51.5t44 -13.5h5
v-20h-175v20h5q33 0 44 13.5t11 51.5v460h-85v25h85v45q0 38 -11 51.5t-44 13.5h-5v20h5q70 0 100 30z" />
    <glyph glyph-name="afii10109" unicode="&#x45c;" horiz-adv-x="515" 
d="M320 440h-5v20h170v-20q-41 0 -64 -12q-21 -11 -66 -53l-89 -85l149 -215q24 -33 40 -44t45 -11v-20h-162v20h5q17 0 22.5 4t2 15.5t-18.5 34.5l-123 178l-66 -63v-104q0 -38 11 -51.5t44 -13.5h5v-20h-175v20h5q33 0 44 13.5t11 51.5v290q0 38 -11 51.5t-44 13.5h-5v20
h175v-20h-5q-33 0 -44 -13.5t-11 -51.5v-152l167 160q22 22 29.5 33t-0.5 17.5t-36 6.5zM215 560h-15l105 160h85z" />
    <glyph glyph-name="afii10110" unicode="&#x45e;" horiz-adv-x="525" 
d="M350 460h160v-20q-44 0 -62 -26q-13 -18 -28 -59l-152 -432q-29 -83 -51.5 -115.5t-56.5 -32.5q-32 0 -51 20t-19 50q0 22 12 36t28 14q40 0 40 -42q0 -6 -0.5 -14.5t-0.5 -12.5t1 -8.5t3.5 -6t6.5 -1.5q14 0 26 24t39 99l24 67l-154 360q-23 52 -34 63q-17 17 -51 17v20
h175v-20q-29 0 -41 -9q-15 -9 5 -56l127 -297l99 280q28 82 -40 82h-5v20zM150 610q0 27 14.5 43.5t35.5 16.5q18 0 29 -10t11 -25q0 -13 -7 -21.5t-15.5 -11.5t-15.5 -8.5t-7 -13.5q0 -20 23 -32.5t62 -12.5t62 12.5t23 32.5q0 10 -11.5 15.5t-22.5 14t-11 25.5q0 15 11 25
t29 10q21 0 35.5 -16.5t14.5 -43.5q0 -42 -35.5 -68.5t-94.5 -26.5t-94.5 26.5t-35.5 68.5z" />
    <glyph glyph-name="afii10193" unicode="&#x45f;" horiz-adv-x="540" 
d="M277 -130h-14l-15 100q-3 19 -9.5 24.5t-25.5 5.5h-168v20h5q33 0 44 13.5t11 51.5v290q0 38 -11 51.5t-44 13.5h-5v20h175v-20h-5q-33 0 -44 -13.5t-11 -51.5v-290q0 -37 10.5 -48.5t44.5 -11.5h110q34 0 44.5 11.5t10.5 48.5v290q0 38 -11 51.5t-44 13.5h-5v20h175v-20
h-5q-33 0 -44 -13.5t-11 -51.5v-290q0 -38 11 -51.5t44 -13.5h5v-20h-168q-19 0 -25.5 -5.5t-9.5 -24.5z" />
    <glyph glyph-name="afii10050" unicode="&#x490;" horiz-adv-x="505" 
d="M425 730l25 100h15v-155h-230q-39 0 -52 -12t-13 -48v-530q0 -39 12.5 -52t52.5 -13h5v-20h-200v20h5q40 0 52.5 13t12.5 52v530q0 39 -12.5 52t-52.5 13h-5v20h340q21 0 31 6.5t14 23.5z" />
    <glyph glyph-name="afii10098" unicode="&#x491;" horiz-adv-x="440" 
d="M365 490l30 100h10v-155h-190q-34 0 -44.5 -11.5t-10.5 -48.5v-290q0 -38 11 -51.5t44 -13.5h5v-20h-175v20h5q33 0 44 13.5t11 51.5v290q0 38 -11 51.5t-44 13.5h-5v20h275q21 0 30.5 6t14.5 24z" />
    <glyph glyph-name="uni0492" unicode="&#x492;" horiz-adv-x="515" 
d="M120 345h-100v25h100v245q0 39 -12.5 52t-52.5 13h-5v20h393l37 -160l-20 -5q-42 140 -160 140h-55q-39 0 -52 -12t-13 -48v-245h140v-25h-140v-260q0 -39 12.5 -52t52.5 -13h5v-20h-200v20h5q40 0 52.5 13t12.5 52v260z" />
    <glyph glyph-name="uni0493" unicode="&#x493;" horiz-adv-x="490" 
d="M125 225h-100v25h100v125q0 38 -11 51.5t-44 13.5h-5v20h353l37 -135l-20 -5q-37 115 -130 115h-70q-34 0 -44.5 -11.5t-10.5 -48.5v-125h145v-25h-145v-140q0 -38 11 -51.5t44 -13.5h5v-20h-175v20h5q33 0 44 13.5t11 51.5v140z" />
    <glyph glyph-name="uni0496" unicode="&#x496;" horiz-adv-x="550" 
d="M245 85v530q0 38 -11 51.5t-44 13.5v20h170v-20q-33 0 -44 -13.5t-11 -51.5v-255l109 239q22 47 19 64t-33 17v20h125v-20q-29 0 -46 -17.5t-39 -67.5l-93 -202l123 -308q16 -41 25.5 -53t29.5 -12v-150h-15l-25 100q-4 17 -14 23.5t-31 6.5h-37v20q22 0 24.5 13
t-12.5 50l-110 277v-275q0 -38 11 -51.5t44 -13.5v-20h-170v20q33 0 44 13.5t11 51.5zM25 680v20h125v-20q-30 0 -33 -17t19 -64l109 -239l-110 -277q-15 -37 -12.5 -50t24.5 -13v-20h-122v20q20 0 29.5 12t25.5 53l122 308l-92 202q-22 50 -39 67.5t-46 17.5z" />
    <glyph glyph-name="uni0497" unicode="&#x497;" horiz-adv-x="550" 
d="M248 85v290q0 27 -0.5 34t-4.5 16.5t-11.5 11t-23.5 3.5v20h134v-20q-27 0 -33.5 -11.5t-6.5 -53.5v-135l111 155q33 45 -8 45h-5v20h120v-20q-25 0 -43.5 -12.5t-44.5 -47.5l-87 -121l122 -194q18 -29 28.5 -37t29.5 -8v-150h-10l-30 100q-5 18 -14.5 24t-30.5 6h-41v20
q17 0 22.5 5.5t3 13.5t-11.5 21l-3 4l-108 176v-155q0 -27 0.5 -34t4.5 -16.5t11.5 -11t23.5 -3.5v-20h-134v20q27 0 33.5 11.5t6.5 53.5zM30 440v20h120v-20h-5q-41 0 -8 -45l111 -155l-108 -176q-16 -30 -13.5 -37t24.5 -7v-20h-126v20q19 0 29.5 8t28.5 37l121 194
l-86 121q-26 35 -44.5 47.5t-43.5 12.5z" />
    <glyph glyph-name="uni0498" unicode="&#x498;" horiz-adv-x="515" 
d="M170 360v25h70q65 0 105 41.5t40 108.5t-41 111t-104 44q-24 0 -54 -10q-13 -4 -22 -13q-3 -3 -8 -6.5t-7 -5.5l-5.5 -5.5t-6.5 -8l-7 -10.5q-19 -32 -26 -48q-6 -17 -11 -27q-1 -5 -12 -31l-11 -30l-20 5l37 210l48 -30q46 35 105 35q100 0 155 -52q55 -51 55 -123
q0 -38 -14 -68t-36 -48t-40 -27.5t-36 -14.5l-14 -4v-5q19 -2 54 -19q30 -15 47 -32q22 -20 38 -57t16 -80q0 -86 -58 -141q-56 -54 -155 -59l-19 -40q92 -3 92 -75q0 -31 -26.5 -53t-68.5 -22q-33 0 -54 13l-6 5l8 15q17 -13 44 -13q25 0 39 14.5t14 38.5q0 32 -24 43
q-22 10 -41 4l-12 5l32 65q-56 2 -93 27l-12 8l-48 -30l-37 210l20 5q39 -103 63 -135q43 -60 117 -60q71 0 113 48.5t42 126.5t-42 126.5t-113 48.5h-70z" />
    <glyph glyph-name="uni0499" unicode="&#x499;" horiz-adv-x="480" 
d="M230 10q63 0 101.5 30t38.5 82q0 50 -36 76.5t-99 26.5h-65v25h65q56 0 88 27.5t32 72.5t-32 72.5t-88 27.5q-33 0 -61.5 -15t-47 -38.5t-29.5 -43t-17 -37.5l-5 -16l-20 5l40 170l45 -35q41 35 105 35q85 0 128 -38q42 -37 42 -87q0 -42 -29.5 -71t-80.5 -36v-5
q130 -16 130 -116q0 -52 -52 -94q-54 -42 -141 -43l-19 -40q92 -3 92 -75q0 -31 -26.5 -53t-68.5 -22q-33 0 -54 13l-6 5l8 15q17 -13 44 -13q25 0 39 14.5t14 38.5q0 32 -24 43q-22 10 -41 4l-12 5l32 66q-80 3 -128 39q-47 36 -47 85q0 24 11.5 37t30.5 13
q17 0 27.5 -10.5t10.5 -28.5q0 -8 -5 -26.5t-5 -24.5q0 -25 29 -42.5t86 -17.5z" />
    <glyph glyph-name="uni049A" unicode="&#x49a;" horiz-adv-x="545" 
d="M530 -130h-15l-25 100q-4 17 -14 23.5t-31 6.5h-95v20h5q25 0 29.5 13.5t-9.5 51.5l-124 304l-81 -125v-179q0 -39 12.5 -52t52.5 -13h5v-20h-200v20h5q40 0 52.5 13t12.5 52v530q0 39 -12.5 52t-52.5 13h-5v20h200v-20h-5q-40 0 -52.5 -13t-12.5 -52v-304l187 287
q17 25 23 41.5t-2.5 28.5t-37.5 12h-5v20h170v-20q-37 0 -64 -21t-56 -64l-95 -146l150 -364q15 -37 30.5 -51t44.5 -14h15v-150z" />
    <glyph glyph-name="uni049B" unicode="&#x49b;" 
d="M505 -130h-10l-30 100q-5 18 -14.5 24t-30.5 6h-82v20h5q17 0 22.5 4t2 15.5t-18.5 34.5l-123 178l-66 -63v-104q0 -38 11 -51.5t44 -13.5h5v-20h-175v20h5q33 0 44 13.5t11 51.5v290q0 38 -11 51.5t-44 13.5h-5v20h175v-20h-5q-33 0 -44 -13.5t-11 -51.5v-152l167 160
q22 22 29.5 33t-0.5 17.5t-36 6.5h-5v20h170v-20q-41 0 -64 -12q-21 -11 -66 -53l-89 -85l149 -215q24 -33 40 -44t45 -11h5v-150z" />
    <glyph glyph-name="uni04A0" unicode="&#x4a0;" horiz-adv-x="540" 
d="M235 615v-253l132 236q46 82 -32 82h-5v20h170v-20q-27 0 -50 -14q-20 -13 -30 -28q-8 -12 -25 -43l-78 -139l133 -371q15 -40 26.5 -52.5t38.5 -12.5h5v-20h-170v20h5q53 0 30 65l-105 305l-45 -81v-224q0 -39 12.5 -52t52.5 -13h5v-20h-200v20h5q40 0 52.5 13t12.5 52
v590h-5q-41 0 -75.5 -35.5t-54.5 -104.5l-20 5l37 160h248v-20h-5q-40 0 -52.5 -13t-12.5 -52z" />
    <glyph glyph-name="uni04A1" unicode="&#x4a1;" horiz-adv-x="540" 
d="M25 325l37 135h218v-20h-5q-33 0 -44 -13.5t-11 -51.5v-138l137 146q20 22 26.5 33t-1.5 17.5t-37 6.5h-5v20h170v-20q-40 0 -63 -12q-20 -9 -62 -53l-71 -75l136 -225q21 -35 34 -45t41 -10v-20h-162v20h5q26 0 29.5 9.5t-13.5 44.5l-109 185l-55 -59v-115
q0 -38 11 -51.5t44 -13.5h5v-20h-175v20h5q33 0 44 13.5t11 51.5v350h-5q-78 0 -115 -115z" />
    <glyph glyph-name="uni04A2" unicode="&#x4a2;" horiz-adv-x="560" 
d="M530 -130h-15l-25 100q-4 17 -14 23.5t-31 6.5h-125v20h5q40 0 52.5 13t12.5 52v260h-220v-260q0 -39 12.5 -52t52.5 -13h5v-20h-200v20h5q40 0 52.5 13t12.5 52v530q0 39 -12.5 52t-52.5 13h-5v20h200v-20h-5q-40 0 -52.5 -13t-12.5 -52v-245h220v245q0 39 -12.5 52
t-52.5 13h-5v20h200v-20h-5q-40 0 -52.5 -13t-12.5 -52v-530q0 -39 12.5 -52t52.5 -13h15v-150z" />
    <glyph glyph-name="uni04A3" unicode="&#x4a3;" horiz-adv-x="550" 
d="M515 -130h-10l-30 100q-5 18 -14.5 24t-30.5 6h-110v20h5q33 0 44 13.5t11 51.5v140h-220v-140q0 -38 11 -51.5t44 -13.5h5v-20h-175v20h5q33 0 44 13.5t11 51.5v290q0 38 -11 51.5t-44 13.5h-5v20h175v-20h-5q-33 0 -44 -13.5t-11 -51.5v-125h220v125q0 38 -11 51.5
t-44 13.5h-5v20h175v-20h-5q-33 0 -44 -13.5t-11 -51.5v-290q0 -38 11 -51.5t44 -13.5h25v-150z" />
    <glyph glyph-name="uni04AA" unicode="&#x4aa;" horiz-adv-x="480" 
d="M110 350q0 -159 45 -244.5t115 -85.5q36 0 64.5 17t45 43.5t25 49t12.5 42.5l3 18l20 -5q-2 -21 -20 -69q-14 -35 -31 -61q-20 -29 -54 -49t-73 -21l-19 -40q92 -3 92 -75q0 -31 -26.5 -53t-68.5 -22q-33 0 -54 13l-6 5l8 15q17 -13 44 -13q25 0 39 14.5t14 38.5
q0 32 -24 43q-22 10 -41 4l-12 5l33 66q-87 10 -144 108q-57 97 -57 256q0 167 63 266q64 99 157 99q25 0 49 -8t35 -18l11 -9l48 30l37 -210l-20 -5q-10 37 -23 67q-12 31 -31 60t-47.5 48.5t-58.5 19.5q-64 0 -107 -90q-43 -87 -43 -250z" />
    <glyph glyph-name="uni04AB" unicode="&#x4ab;" horiz-adv-x="495" 
d="M431 123l4 12l20 -5q-2 -17 -21 -50q-46 -89 -172 -95l-19 -40q92 -3 92 -75q0 -31 -26.5 -53t-68.5 -22q-33 0 -54 13l-6 5l8 15q17 -13 44 -13q25 0 39 14.5t14 38.5q0 32 -24 43q-22 10 -41 4l-12 5l33 66q-86 8 -141 73q-55 67 -55 171q0 110 63 178q63 67 162 67
q70 0 117 -38q48 -37 48 -87q0 -24 -11.5 -37t-30.5 -13q-17 0 -27.5 10.5t-10.5 28.5q0 8 5 26.5t5 24.5q0 25 -26 42.5t-74 17.5q-69 0 -112 -57.5t-43 -162.5q0 -100 51 -156q53 -54 119 -54q65 0 102 34t49 69z" />
    <glyph glyph-name="uni04AE" unicode="&#x4ae;" horiz-adv-x="500" 
d="M335 700h155v-20q-42 0 -61 -27q-4 -7 -9 -15l-5 -9l-13 -34l-121 -349v-161q0 -39 12.5 -52t52.5 -13h10v-20h-210v20h10q40 0 52.5 13t12.5 52v144l-129 374q-16 43 -28 58q-14 19 -54 19v20h180v-20h-5q-35 0 -42 -14.5t8 -50.5l115 -336l111 319q19 39 11 60.5
t-48 21.5h-5v20z" />
    <glyph glyph-name="uni04AF" unicode="&#x4af;" horiz-adv-x="540" 
d="M364 460h161v-20q-43 0 -63 -27q-15 -19 -30 -58l-127 -316v-164q0 -38 11 -51.5t44 -13.5h5v-20h-175v20h5q33 0 44 13.5t11 51.5v152l-135 333l-15 35q-6 11 -14 22q-16 23 -56 23v20h175v-20q-17 0 -25 -1.5t-15.5 -7.5t-6 -20t10.5 -37l122 -302l116 287
q31 81 -38 81h-5v20z" />
    <glyph glyph-name="uni04B0" unicode="&#x4b0;" horiz-adv-x="500" 
d="M221 215h-141v25h137l-125 363q-16 43 -28 58q-14 19 -54 19v20h180v-20h-5q-35 0 -42 -14.5t8 -50.5l115 -335l111 318q19 39 11 60.5t-48 21.5h-5v20h155v-20q-42 0 -61 -27q-4 -7 -9 -15l-5 -9l-13 -34l-121 -348v-7h139v-25h-139v-130q0 -39 12.5 -52t52.5 -13h10
v-20h-210v20h10q40 0 52.5 13t12.5 52v130z" />
    <glyph glyph-name="uni04B1" unicode="&#x4b1;" horiz-adv-x="540" 
d="M250 0h-145v25h145v2l-135 333l-15 35q-6 11 -14 22q-16 23 -56 23v20h175v-20q-17 0 -25 -1.5t-15.5 -7.5t-6 -20t10.5 -37l122 -302l116 287q31 81 -38 81h-5v20h161v-20q-43 0 -63 -27q-15 -19 -30 -58l-127 -315v-15h140v-25h-140v-125q0 -38 11 -51.5t44 -13.5h5
v-20h-175v20h5q33 0 44 13.5t11 51.5v125z" />
    <glyph glyph-name="uni04B2" unicode="&#x4b2;" horiz-adv-x="525" 
d="M505 -130h-15l-25 100q-4 17 -14 23.5t-31 6.5h-110v20h19q6 0 8 2q19 3 23 13q4 7 3 18q0 1 -0.5 3.5t-0.5 4.5l-1 2q0 1 -1 3.5t-2 5.5l-2 6l-3 7l-102 231l-99 -214q-12 -24 -14 -44v-5q0 -4 1 -5q3 -21 31 -27q6 0 7 -1h18v-20h-175v20h13q11 2 26 7l12 6l16 12
q19 19 38 60l112 242l-113 256l-4 8q0 1 -5 11l-8 16q-1 2 -3 5q-2 2 -2 3q-21 30 -57 33q-1 0 -4 1h-3h-8v20h195v-20h-12h-5l-2 -1h-3q-21 -3 -28 -13l-3 -7q-2 -5 0 -12q1 -13 10 -32l87 -198l84 181q9 22 10 27l3 12v15q-1 1 -1 5l-3 6q-8 11 -24 15q-18 2 -23 2h-5v20
h175v-20h-5q-17 -1 -31 -6q-14 -6 -21 -11q-3 -2 -10 -9q-3 -2 -5 -5q-7 -7 -20 -28l-13 -26l-97 -209l128 -289q2 -7 3 -8q1 -2 2 -4.5t2 -4t1 -2.5l9 -16q6 -12 14 -20t15 -12l10 -5l12 -3q1 -1 7 -1q3 -1 19 -1v-150z" />
    <glyph glyph-name="uni04B3" unicode="&#x4b3;" 
d="M510 -130h-10l-30 100q-5 18 -14.5 24t-30.5 6h-105v20h5q37 0 41.5 12.5t-18.5 43.5l-98 137l-93 -127q-50 -66 28 -66h5v-20h-170v20q34 0 57 15t48 50l110 149l-105 149q-24 33 -45 45t-50 12v20h190v-20h-5q-36 0 -41.5 -13t18.5 -43l73 -103l68 93q48 66 -28 66h-5
v20h170v-20q-34 0 -57 -15t-48 -50l-85 -115l130 -183q24 -33 45 -45t50 -12v-150z" />
    <glyph glyph-name="uni04BA" unicode="&#x4ba;" horiz-adv-x="535" 
d="M110 85v530q0 39 -12.5 52t-52.5 13h-5v20h200v-20h-5q-40 0 -52.5 -13t-12.5 -52v-283q55 58 130 58q62 0 105 -39q45 -37 45 -121v-145q0 -39 12.5 -52t52.5 -13h5v-20h-200v20h5q40 0 52.5 13t12.5 52v145q0 130 -110 130q-65 0 -110 -48v-227q0 -39 12.5 -52
t52.5 -13h5v-20h-200v20h5q40 0 52.5 13t12.5 52z" />
    <glyph glyph-name="uni04BB" unicode="&#x4bb;" horiz-adv-x="540" 
d="M145 730h10v-355l28 27q18 16 63 45q46 28 79 28q55 0 87.5 -34.5t32.5 -85.5v-270q0 -38 11 -51.5t44 -13.5h5v-20h-175v20h5q33 0 44 13.5t11 51.5v270q0 37 -23 61t-62 24q-29 0 -67 -23t-60 -45l-23 -22v-265q0 -38 11 -51.5t44 -13.5h5v-20h-175v20h5q33 0 44 13.5
t11 51.5v530q0 38 -11 51.5t-44 13.5h-5v20h5q70 0 100 30z" />
    <glyph glyph-name="uni04D8" unicode="&#x4d8;" horiz-adv-x="500" 
d="M40 350v20h350q-3 149 -43.5 234.5t-101.5 85.5q-42 0 -76.5 -35.5t-49.5 -70.5t-24 -69l-5 -20l-20 5l37 210l48 -30q30 35 90 35q93 0 154 -99q61 -97 61 -266q0 -171 -59 -269q-59 -96 -151 -96q-94 0 -152 96q-58 97 -58 269zM250 10q64 0 101.5 86t38.5 249h-280
q1 -164 38 -249.5t102 -85.5z" />
    <glyph glyph-name="afii10846" unicode="&#x4d9;" horiz-adv-x="510" 
d="M400 230q0 102 -52 155q-51 55 -118 55q-35 0 -63.5 -11.5t-46 -29.5t-27 -33t-14.5 -29l-4 -12l-20 5q2 17 21 50q12 23 33 44q22 22 60 36.5t81 14.5q91 0 153 -68t62 -177q0 -113 -63 -179t-157 -66q-95 0 -148 60q-52 59 -52 145v10h354q0 2 0.5 14t0.5 16zM250 10
q56 0 95.5 43t50.5 122h-286q0 -77 38 -121t102 -44z" />
    <glyph glyph-name="uni04E8" unicode="&#x4e8;" 
d="M103 82q-63 97 -63 268q0 170 63 267q63 98 157 98t157 -98q63 -97 63 -267q0 -171 -63 -268t-157 -97t-157 97zM410 345h-300q1 -160 42.5 -247.5t107.5 -87.5t107.5 87.5t42.5 247.5zM260 690q-65 0 -106 -83t-44 -237h300q-3 152 -44.5 236t-105.5 84z" />
    <glyph glyph-name="uni04E9" unicode="&#x4e9;" 
d="M107 54q-62 70 -62 176t62 176q61 69 153 69t153 -69q62 -70 62 -176t-62 -176q-61 -69 -153 -69t-153 69zM410 225h-300q1 -100 43 -157.5t107 -57.5t107 57.5t43 157.5zM110 250h299q-4 92 -46 146t-103 54q-62 0 -104 -54t-46 -146z" />
    <glyph glyph-name="endash" unicode="&#x2013;" horiz-adv-x="550" 
d="M470 255h-390v25h390v-25z" />
    <glyph glyph-name="emdash" unicode="&#x2014;" 
d="M520 255h-520v25h520v-25z" />
    <glyph glyph-name="quoteleft" unicode="&#x2018;" horiz-adv-x="295" 
d="M165 444q-40 0 -63 35q-22 34 -22 75q0 100 84 156l10 5l10 -15l-21 -14q-12 -8 -33 -39q-20 -31 -20 -63q0 -45 30 -45q1 0 10.5 2.5t14.5 2.5q21 0 35.5 -14.5t14.5 -35.5t-14.5 -35.5t-35.5 -14.5z" />
    <glyph glyph-name="quoteright" unicode="&#x2019;" horiz-adv-x="295" 
d="M130 710q40 0 63 -35q22 -34 22 -75q0 -42 -17 -77.5t-33.5 -51.5t-34.5 -27l-9 -5l-10 15l20 13q13 9 33 39q21 32 21 64q0 45 -30 45q-1 0 -10.5 -2.5t-14.5 -2.5q-21 0 -35.5 14.5t-14.5 35.5t14.5 35.5t35.5 14.5z" />
    <glyph glyph-name="quotesinglbase" unicode="&#x201a;" horiz-adv-x="295" 
d="M130 90q40 0 63 -35q22 -34 22 -75q0 -42 -17 -77.5t-33.5 -51.5t-34.5 -27l-9 -5l-10 15l20 14q13 8 33 39q21 30 21 63q0 45 -30 45q-1 0 -10.5 -2.5t-14.5 -2.5q-21 0 -35.5 14.5t-14.5 35.5t14.5 35.5t35.5 14.5z" />
    <glyph glyph-name="quotedblleft" unicode="&#x201c;" horiz-adv-x="460" 
d="M330 444q-40 0 -63 35q-22 34 -22 75q0 42 17 77.5t33.5 51.5t34.5 27l9 5l10 -15l-21 -14q-12 -8 -33 -39q-20 -31 -20 -63q0 -45 30 -45q1 0 10.5 2.5t14.5 2.5q21 0 35.5 -14.5t14.5 -35.5t-14.5 -35.5t-35.5 -14.5zM165 444q-40 0 -63 35q-22 34 -22 75q0 100 84 156
l10 5l10 -15l-21 -14q-12 -8 -33 -39q-20 -31 -20 -63q0 -45 30 -45q1 0 10.5 2.5t14.5 2.5q21 0 35.5 -14.5t14.5 -35.5t-14.5 -35.5t-35.5 -14.5z" />
    <glyph glyph-name="quotedblright" unicode="&#x201d;" horiz-adv-x="460" 
d="M130 710q40 0 63 -35q22 -34 22 -75q0 -42 -17 -77.5t-33.5 -51.5t-34.5 -27l-9 -5l-10 15l20 13q13 9 33 39q21 32 21 64q0 45 -30 45q-1 0 -10.5 -2.5t-14.5 -2.5q-21 0 -35.5 14.5t-14.5 35.5t14.5 35.5t35.5 14.5zM295 710q40 0 63 -35q22 -34 22 -75
q0 -100 -84 -156l-10 -5l-10 15l20 13q14 9 33 39q21 32 21 64q0 45 -30 45q-1 0 -10.5 -2.5t-14.5 -2.5q-21 0 -35.5 14.5t-14.5 35.5t14.5 35.5t35.5 14.5z" />
    <glyph glyph-name="quotedblbase" unicode="&#x201e;" horiz-adv-x="460" 
d="M130 90q40 0 63 -35q22 -34 22 -75q0 -42 -17 -77.5t-33.5 -51.5t-34.5 -27l-9 -5l-10 15l20 14q13 8 33 39q21 30 21 63q0 45 -30 45q-1 0 -10.5 -2.5t-14.5 -2.5q-21 0 -35.5 14.5t-14.5 35.5t14.5 35.5t35.5 14.5zM295 90q40 0 63 -35q22 -34 22 -75q0 -100 -84 -156
l-10 -5l-10 15l20 14q14 8 33 39q21 30 21 63q0 45 -30 45q-1 0 -10.5 -2.5t-14.5 -2.5q-21 0 -35.5 14.5t-14.5 35.5t14.5 35.5t35.5 14.5z" />
    <glyph glyph-name="dagger" unicode="&#x2020;" horiz-adv-x="440" 
d="M95 600q16 0 47 -15q31 -13 68 -15q-1 39 -16 78q-14 37 -14 52q0 19 11 32t29 13t29 -13t11 -32q0 -16 -15 -52q-13 -36 -15 -78q37 2 68 15q32 15 47 15q19 0 32 -11t13 -29t-13 -29t-32 -11q-15 0 -48 14q-34 15 -67 16q1 -84 40 -135q-8 -17 -15 -57q-5 -28 -17 -138
q-8 -89 -13 -220h-10q-5 136 -14 220q-9 92 -17 138q-8 44 -14 57q39 57 40 135q-34 -1 -68 -16q-33 -14 -47 -14q-19 0 -32 11t-13 29t13 29t32 11z" />
    <glyph glyph-name="daggerdbl" unicode="&#x2021;" horiz-adv-x="440" 
d="M180 130q0 14 14 51q15 41 16 79q-34 -1 -68 -16q-33 -14 -47 -14q-19 0 -32 11t-13 29t13 29t32 11q16 0 47 -15q31 -13 68 -15q0 26 -3.5 47.5t-9 36.5t-10 23.5t-10.5 17.5t-7 10l4 5l4.5 7.5t5.5 8.5t6 11t5.5 13t5.5 17t4 20t3.5 24.5t1.5 28.5q-34 -1 -68 -16
q-33 -14 -47 -14q-19 0 -32 11t-13 29t13 29t32 11q16 0 47 -15q31 -13 68 -15q-1 39 -16 78q-14 37 -14 52q0 19 11 32t29 13t29 -13t11 -32q0 -16 -15 -52q-13 -36 -15 -78q37 2 68 15q32 15 47 15q19 0 32 -11t13 -29t-13 -29t-32 -11q-15 0 -48 14q-34 15 -67 16
q1 -84 40 -135l-4 -6q-15 -20 -19 -33q-17 -49 -17 -96q35 1 67 15q31 15 48 15q19 0 32 -11t13 -29t-13 -29t-32 -11q-15 0 -48 14q-34 15 -67 16q1 -41 15 -79q15 -36 15 -51q0 -19 -11 -32t-29 -13t-29 13t-11 32z" />
    <glyph glyph-name="bullet" unicode="&#x2022;" horiz-adv-x="380" 
d="M133 298q-23 24 -23 57t23 56q24 24 57 24t56 -24q24 -23 24 -56t-24 -57q-23 -23 -56 -23t-57 23z" />
    <glyph glyph-name="ellipsis" unicode="&#x2026;" horiz-adv-x="600" 
d="M264 4q-14 15 -14 36t14 35q15 15 36 15t35 -15q15 -14 15 -35t-15 -36q-14 -14 -35 -14t-36 14zM94 4q-14 15 -14 36t14 35q15 15 36 15t35 -15q15 -14 15 -35t-15 -36q-14 -14 -35 -14t-36 14zM434 4q-14 15 -14 36t14 35q15 15 36 15t35 -15q15 -14 15 -35t-15 -36
q-14 -14 -35 -14t-36 14z" />
    <glyph glyph-name="perthousand" unicode="&#x2030;" horiz-adv-x="890" 
d="M75 0l431 700h29l-431 -700h-29zM85 510q-35 37 -35 85q0 49 35 84q34 36 85 36q50 0 85 -36q35 -35 35 -84q0 -48 -35 -85q-35 -35 -85 -35t-85 35zM103 662q-28 -28 -28 -67t28 -67t67 -28t67 28t28 67t-28 67t-67 28t-67 -28zM355 20q-35 37 -35 85q0 49 35 84
q35 36 85 36t85 -36q35 -35 35 -84q0 -48 -35 -85q-35 -35 -85 -35t-85 35zM373 172q-28 -28 -28 -67t28 -67t67 -28t67 28t28 67t-28 67t-67 28t-67 -28zM635 20q-35 37 -35 85q0 49 35 84q35 36 85 36t85 -36q35 -35 35 -84q0 -48 -35 -85q-35 -35 -85 -35t-85 35z
M653 172q-28 -28 -28 -67t28 -67t67 -28t67 28t28 67t-28 67t-67 28t-67 -28z" />
    <glyph glyph-name="uni2031" unicode="&#x2031;" horiz-adv-x="1170" 
d="M75 0l431 700h29l-431 -700h-29zM85 510q-35 37 -35 85q0 49 35 84q34 36 85 36q50 0 85 -36q35 -35 35 -84q0 -48 -35 -85q-35 -35 -85 -35t-85 35zM103 662q-28 -28 -28 -67t28 -67t67 -28t67 28t28 67t-28 67t-67 28t-67 -28zM355 20q-35 37 -35 85q0 49 35 84
q35 36 85 36t85 -36q35 -35 35 -84q0 -48 -35 -85q-35 -35 -85 -35t-85 35zM373 172q-28 -28 -28 -67t28 -67t67 -28t67 28t28 67t-28 67t-67 28t-67 -28zM635 20q-35 37 -35 85q0 49 35 84q35 36 85 36t85 -36q35 -35 35 -84q0 -48 -35 -85q-35 -35 -85 -35t-85 35z
M653 172q-28 -28 -28 -67t28 -67t67 -28t67 28t28 67t-28 67t-67 28t-67 -28zM915 20q-35 37 -35 85q0 49 35 84q35 36 85 36t85 -36q35 -35 35 -84q0 -48 -35 -85q-35 -35 -85 -35t-85 35zM933 172q-28 -28 -28 -67t28 -67t67 -28t67 28t28 67t-28 67t-67 28t-67 -28z" />
    <glyph glyph-name="guilsinglleft" unicode="&#x2039;" horiz-adv-x="405" 
d="M163 270l132 -190h-15l-190 190l190 190h15z" />
    <glyph glyph-name="guilsinglright" unicode="&#x203a;" horiz-adv-x="405" 
d="M315 270l-190 -190h-15l132 190l-132 190h15z" />
    <glyph glyph-name="uni203B" unicode="&#x203b;" horiz-adv-x="585" 
d="M292 339l-178 -178l-18 17l179 179l-179 179l18 17l178 -179l180 180l17 -18l-179 -179l179 -179l-17 -18zM257 169q-14 15 -14 36t14 35q15 15 36 15t35 -15q15 -14 15 -35t-15 -36q-14 -14 -35 -14t-36 14zM175 321q-14 -14 -35 -14t-36 14q-14 15 -14 36t14 35
q15 15 36 15t35 -15q15 -14 15 -35t-15 -36zM480 321q-14 -14 -35 -14t-36 14q-14 15 -14 36t14 35q15 15 36 15t35 -15q15 -14 15 -35t-15 -36zM257 474q-14 15 -14 36t14 35q15 15 36 15t35 -15q15 -14 15 -35t-15 -36q-14 -14 -35 -14t-36 14z" />
    <glyph glyph-name="uni203D" unicode="&#x203d;" horiz-adv-x="490" 
d="M248 195v-10h-20v105q0 44 -11 152t-11 133q0 50 33 50t33 -50q0 -29 -12 -133t-12 -152v-7q17 35 76 113q46 63 46 149q0 63 -39 104q-38 41 -96 41q-62 0 -99 -34q-36 -33 -36 -71q0 -18 9.5 -29.5t20.5 -15.5t20.5 -14.5t9.5 -28.5q0 -19 -13.5 -30.5t-33.5 -11.5
q-26 0 -44.5 23.5t-18.5 66.5q0 69 53 119q54 51 132 51q90 0 147 -51q58 -49 58 -129q0 -76 -68 -148l-23 -23l-25.5 -25.5t-22 -24t-22 -28.5t-15.5 -27t-12.5 -32t-3.5 -32zM207 4q-14 15 -14 36t14 35q15 15 36 15t35 -15q15 -14 15 -35t-15 -36q-14 -14 -35 -14t-36 14
z" />
    <glyph glyph-name="uni2042" unicode="&#x2042;" horiz-adv-x="610" 
d="M188 667q15 27 45 9q4 -2 22.5 -23.5t38.5 -34.5q-2 23 -10.5 50t-8.5 32q0 15 8 25t22 10t22 -10t8 -25q0 -5 -9 -32t-11 -50q21 13 40 34.5t22 23.5q30 18 45 -9q15 -25 -15 -43q-5 -3 -32.5 -8t-48.5 -16q21 -12 49.5 -17t31.5 -7q30 -18 15 -44q-6 -11 -20 -13t-25 5
q-4 2 -22.5 23.5t-39.5 34.5q2 -23 11 -50t9 -32q0 -15 -8 -25t-22 -10t-22 10t-8 25q0 5 8.5 32t10.5 50q-20 -13 -38.5 -34.5t-22.5 -23.5q-11 -7 -25 -5t-20 13q-15 26 15 44q3 2 30.5 7t50.5 17q-21 11 -49 16t-32 8q-30 18 -15 43zM321 437q15 27 45 9q4 -2 22.5 -23.5
t38.5 -34.5q-2 23 -10.5 50t-8.5 32q-2 21 14 30t32 0t14 -30q0 -5 -9 -32t-11 -50q21 13 40 34.5t22 23.5q30 18 45 -9q15 -25 -15 -43q-5 -3 -32.5 -8t-48.5 -16q21 -12 49.5 -17t31.5 -7q30 -18 15 -44q-6 -11 -20 -13t-25 5q-4 2 -22.5 23.5t-39.5 34.5q2 -23 11 -50
t9 -32q0 -15 -8 -25t-22 -10t-22 10t-8 25q0 5 8.5 32t10.5 50q-20 -13 -38.5 -34.5t-22.5 -23.5q-11 -7 -25 -5t-20 13q-15 26 15 44q3 2 30.5 7t50.5 17q-21 11 -49 16t-32 8q-30 18 -15 43zM55 437q15 27 45 9q4 -2 22.5 -23.5t38.5 -34.5q-2 23 -10.5 50t-8.5 32
q-2 21 14 30t32 0t14 -30q0 -5 -9 -32t-11 -50q21 13 40 34.5t22 23.5q30 18 45 -9q15 -25 -15 -43q-5 -3 -32.5 -8t-48.5 -16q21 -12 49.5 -17t31.5 -7q30 -18 15 -44q-6 -11 -20 -13t-25 5q-4 2 -22.5 23.5t-39.5 34.5q2 -23 11 -50t9 -32q0 -15 -8 -25t-22 -10t-22 10
t-8 25q0 5 8.5 32t10.5 50q-20 -13 -38.5 -34.5t-22.5 -23.5q-11 -7 -25 -5t-20 13q-15 26 15 44q3 2 30.5 7t50.5 17q-21 11 -49 16t-32 8q-30 18 -15 43z" />
    <glyph glyph-name="uni2051" unicode="&#x2051;" horiz-adv-x="364" 
d="M65 667q15 27 45 9q4 -2 22.5 -23.5t38.5 -34.5q-2 23 -10.5 50t-8.5 32q0 15 8 25t22 10t22 -10t8 -25q0 -5 -9 -32t-11 -50q21 13 40 34.5t22 23.5q30 18 45 -9q15 -25 -15 -43q-5 -3 -32.5 -8t-48.5 -16q21 -12 49.5 -17t31.5 -7q30 -18 15 -44q-6 -11 -20 -13t-25 5
q-4 2 -22.5 23.5t-39.5 34.5q2 -23 11 -50t9 -32q0 -15 -8 -25t-22 -10t-22 10t-8 25q0 5 8.5 32t10.5 50q-20 -13 -38.5 -34.5t-22.5 -23.5q-11 -7 -25 -5t-20 13q-15 26 15 44q3 2 30.5 7t50.5 17q-21 11 -49 16t-32 8q-30 18 -15 43zM65 377q15 27 45 9q4 -2 22.5 -23.5
t38.5 -34.5q-2 23 -10.5 50t-8.5 32q0 15 8 25t22 10t22 -10t8 -25q0 -5 -9 -32t-11 -50q21 13 40 34.5t22 23.5q30 18 45 -9q15 -25 -15 -43q-5 -3 -32.5 -8t-48.5 -16q21 -12 49.5 -17t31.5 -7q30 -18 15 -44q-6 -11 -20 -13t-25 5q-4 2 -22.5 23.5t-39.5 34.5
q2 -23 11 -50t9 -32q0 -15 -8 -25t-22 -10t-22 10t-8 25q0 5 8.5 32t10.5 50q-20 -13 -38.5 -34.5t-22.5 -23.5q-11 -7 -25 -5t-20 13q-15 26 15 44q3 2 30.5 7t50.5 17q-21 11 -49 16t-32 8q-30 18 -15 43z" />
    <glyph glyph-name="Euro" unicode="&#x20ac;" horiz-adv-x="550" 
d="M110 380h-80v25h82q11 145 71 226q61 84 147 84q25 0 49 -8t35 -18l11 -9l48 30l37 -210l-20 -5q-10 37 -23 67q-12 31 -31 60t-47.5 48.5t-58.5 19.5q-58 0 -99.5 -76t-49.5 -209h199v-25h-200v-45h200v-25h-199q6 -140 49.5 -215t109.5 -75q36 0 64.5 17t45 43.5t25 49
t12.5 42.5l3 18l20 -5q-2 -23 -21 -70q-14 -35 -31 -61q-20 -29 -54.5 -49t-73.5 -20q-87 0 -149 87q-63 90 -70 238h-81v25h80v45z" />
    <glyph glyph-name="afii61352" unicode="&#x2116;" horiz-adv-x="560" 
d="M310 595v-595h-20l-160 593v-488q0 -30 3 -49q8 -36 47 -36h5v-20h-135v20h5q25 0 39 16q6 10 7 20q4 19 4 49v490q0 31 -4 48q-5 37 -46 37h-5v20h108l127 -471v366q0 31 -4 48q-5 37 -46 37h-5v20h135v-20h-5q-26 0 -39 -17q-5 -7 -8 -20q-3 -17 -3 -48zM387 514
q-22 29 -22 81t22 80q23 30 58 30t57 -30q23 -29 23 -80q0 -50 -23 -81q-23 -29 -57 -29q-35 0 -58 29zM445 685q-38 0 -38 -90t38 -90t38 90t-38 90zM525 425h-160v25h160v-25z" />
    <glyph glyph-name="trademark" unicode="&#x2122;" horiz-adv-x="600" 
d="M272 700h96l45 -151l44 151h93v-20q-22 0 -31 -7.5t-9 -27.5v-130q0 -20 9 -27.5t31 -7.5v-20h-119v20q21 0 27.5 7t6.5 28v123l-51 -178h-20l-57 188v-113q0 -34 7 -44.5t33 -10.5v-20h-105v20q26 0 33 10.5t7 44.5v90q0 34 -7 44.5t-33 10.5v20zM50 620l20 80h189
l20 -80l-20 -5q-15 37 -28 48.5t-39 11.5h-5v-160q0 -21 7 -28t28 -7h10v-20h-135v20h10q21 0 28 7t7 28v160h-5q-26 0 -39 -11.5t-28 -48.5z" />
    <glyph glyph-name="arrowleft" unicode="&#x2190;" 
d="M85 370h415v-25h-415l60 -80l-7 -6l-118 98l118 98l7 -5z" />
    <glyph glyph-name="arrowup" unicode="&#x2191;" 
d="M273 532v-415h-25v415l-80 -60l-6 7l98 118l98 -118l-5 -7z" />
    <glyph glyph-name="arrowright" unicode="&#x2192;" 
d="M435 345h-415v25h415l-60 80l7 5l118 -98l-118 -98l-7 6z" />
    <glyph glyph-name="arrowdown" unicode="&#x2193;" 
d="M247 182v415h25v-415l80 60l6 -7l-98 -118l-98 118l5 7z" />
    <glyph glyph-name="arrowboth" unicode="&#x2194;" 
d="M435 345h-350l60 -80l-7 -6l-118 98l118 98l7 -5l-60 -80h350l-60 80l7 5l118 -98l-118 -98l-7 6z" />
    <glyph glyph-name="arrowupdn" unicode="&#x2195;" 
d="M167 242l81 -60v350l-80 -60l-6 7l98 118l98 -118l-5 -7l-80 60v-350l79 60l6 -7l-98 -118l-98 118z" />
    <glyph glyph-name="uni2196" unicode="&#x2196;" 
d="M145 490l294 -294l-18 -17l-293 293l-14 -99l-10 1l-14 153l153 -14l1 -9z" />
    <glyph glyph-name="uni2197" unicode="&#x2197;" 
d="M401 472l-293 -293l-18 17l294 294l-99 14l1 9l153 14l-14 -153l-10 -1z" />
    <glyph glyph-name="uni2198" unicode="&#x2198;" 
d="M384 216l-294 294l18 17l293 -293l14 99l10 -1l14 -153l-153 14l-1 9z" />
    <glyph glyph-name="uni2199" unicode="&#x2199;" 
d="M128 234l293 293l18 -17l-294 -294l99 -14l-1 -9l-153 -14l14 153l10 1z" />
    <glyph glyph-name="uni21B0" unicode="&#x21b0;" 
d="M350 370v-315h-25v290h-240l60 -80l-7 -6l-118 98l118 98l7 -5l-60 -80h265z" />
    <glyph glyph-name="uni21B1" unicode="&#x21b1;" 
d="M195 345v-290h-25v315h265l-60 80l7 5l118 -98l-118 -98l-7 6l60 80h-240z" />
    <glyph glyph-name="uni21B2" unicode="&#x21b2;" 
d="M325 370v290h25v-315h-265l60 -80l-7 -5l-118 98l118 98l7 -6l-60 -80h240z" />
    <glyph glyph-name="uni21B3" unicode="&#x21b3;" 
d="M170 345v315h25v-290h240l-60 80l7 6l118 -98l-118 -98l-7 5l60 80h-265z" />
    <glyph glyph-name="uni21B4" unicode="&#x21b4;" 
d="M310 345h-290v25h315v-265l80 60l5 -7l-98 -118l-98 118l6 7l80 -60v240z" />
    <glyph glyph-name="uni21BA" unicode="&#x21ba;" 
d="M461 506l-99 -14q20 -15 27 -23q51 -47 51 -119q0 -74 -53 -127t-127 -53t-127 53t-53 127t53 127l17 -18q-45 -45 -45 -109t45 -110q46 -45 110 -45t109 45q46 46 46 110q0 36 -16.5 67.5t-36.5 44.5l-17 13l-14 -100l-10 1l-14 153l153 -14z" />
    <glyph glyph-name="uni21BB" unicode="&#x21bb;" 
d="M138 478l20 14l-99 14l1 9l153 14l-14 -153l-10 -1l-14 100q-16 -12 -24 -20q-46 -42 -46 -105q0 -64 45 -110q46 -45 110 -45t109 45q46 46 46 110t-45 109l17 18q53 -53 53 -127t-53 -127t-127 -53t-127 53t-53 127q0 39 18 75t40 53z" />
    <glyph glyph-name="uni21C4" unicode="&#x21c4;" 
d="M435 435h-415v25h415l-60 80l7 5l118 -98l-118 -98l-7 6zM500 255h-415l60 -80l-7 -6l-118 98l118 98l7 -5l-60 -80h415v-25z" />
    <glyph glyph-name="uni21C5" unicode="&#x21c5;" 
d="M183 532v-415h-25v415l-80 -60l-6 7l98 118l98 -118l-5 -7zM337 182v415h25v-415l80 60l6 -7l-98 -118l-98 118l5 7z" />
    <glyph glyph-name="increment" unicode="&#x2206;" 
d="M480 0h-440v10l210 690h20l210 -690v-10zM412 25l-171 560l-171 -560h342z" />
    <glyph glyph-name="summation" unicode="&#x2211;" horiz-adv-x="500" 
d="M35 690v10h383l37 -160l-20 -5q-42 140 -160 140h-161l185 -290l-204 -325h214q65 0 91 16q27 16 50 69l15 -5l-33 -140h-397v10l214 342z" />
    <glyph glyph-name="minus" unicode="&#x2212;" horiz-adv-x="530" 
d="M460 345h-390v25h390v-25z" />
    <glyph glyph-name="radical" unicode="&#x221a;" horiz-adv-x="540" 
d="M116 345h-86v25h108l131 -308l250 638h30l-279 -715z" />
    <glyph glyph-name="infinity" unicode="&#x221e;" horiz-adv-x="600" 
d="M437 242q-46 0 -76.5 22t-60.5 69q-32 -48 -62 -69.5t-75 -21.5q-48 0 -80.5 32.5t-32.5 82.5t32.5 82.5t80.5 32.5q45 0 75 -21.5t62 -69.5q30 47 60.5 69t76.5 22q48 0 80.5 -32.5t32.5 -82.5t-32.5 -82.5t-80.5 -32.5zM437 447q-40 0 -66.5 -21t-55.5 -69
q29 -48 55.5 -69t66.5 -21q37 0 62.5 26t25.5 64t-25.5 64t-62.5 26zM163 447q-37 0 -62.5 -26t-25.5 -64t25.5 -64t62.5 -26q39 0 64.5 20.5t57.5 69.5q-25 36 -32 45q-33 45 -90 45z" />
    <glyph glyph-name="approxequal" unicode="&#x2248;" horiz-adv-x="530" 
d="M99 402l-4 -17h-25q0 9 9 31q25 59 91 59q40 0 99 -38q58 -37 96 -37q25 0 43.5 15t22.5 33l4 17h25q0 -9 -10 -32q-25 -58 -90 -58q-41 0 -99 37q-59 38 -96 38q-25 0 -43.5 -15t-22.5 -33zM99 272l-4 -17h-25q0 9 9 31q25 59 91 59q40 0 99 -38q58 -37 96 -37
q25 0 43.5 15t22.5 33l4 17h25q0 -9 -10 -32q-25 -58 -90 -58q-41 0 -99 37q-59 38 -96 38q-25 0 -43.5 -15t-22.5 -33z" />
    <glyph glyph-name="notequal" unicode="&#x2260;" horiz-adv-x="530" 
d="M293 435l78 140h29l-78 -140h138v-25h-152l-58 -105h210v-25h-224l-77 -140h-29l77 140h-137v25h151l58 105h-209v25h223z" />
    <glyph glyph-name="lessequal" unicode="&#x2264;" horiz-adv-x="455" 
d="M345 197l-16 -20l-249 195l248 233l17 -18l-227 -213zM329 67l-249 195l15 20l250 -195z" />
    <glyph glyph-name="greaterequal" unicode="&#x2265;" horiz-adv-x="455" 
d="M127 605l248 -233l-249 -195l-16 20l226 177l-226 213zM110 87l250 195l15 -20l-249 -195z" />
    <glyph glyph-name="uni25FC" unicode="&#x25fc;" horiz-adv-x="460" 
d="M0 0v460h460v-460h-460z" />
    <glyph glyph-name="uni2605" unicode="&#x2605;" horiz-adv-x="600" 
d="M550 460l-155 -113l60 -182l-155 113l-155 -113l59 182l-154 113h190l59 181l59 -181h192z" />
    <glyph glyph-name="uni261C" unicode="&#x261c;" 
d="M130 360l220 180v-360z" />
    <glyph glyph-name="uni261D" unicode="&#x261d;" 
d="M260 520l180 -220h-360z" />
    <glyph glyph-name="uni261E" unicode="&#x261e;" 
d="M390 360l-220 -180v360z" />
    <glyph glyph-name="uni261F" unicode="&#x261f;" 
d="M260 240l-180 220h360z" />
    <glyph glyph-name="smileface" unicode="&#x263a;" horiz-adv-x="590" 
d="M114 49q-74 76 -74 181q0 106 74 180q75 75 181 75q107 0 180 -75q75 -74 75 -180t-75 -181q-74 -74 -180 -74q-105 0 -181 74zM132 392q-67 -67 -67 -162q0 -96 67 -163t163 -67q95 0 162 67q68 68 68 163q0 94 -68 162t-162 68q-95 0 -163 -68zM125 205h10
q2 -10 19 -32q27 -33 75 -49q66 -20 132 0q69 23 90 72l4 9h10q-2 -13 -20 -44q-25 -44 -79 -68q-71 -28 -142 0q-39 16 -63 45t-32 54zM190 275q-16 14 -8.5 34t24.5 25t33 -10q16 -14 9.5 -33t-24.5 -24.5t-34 8.5zM350 275q-16 14 -8.5 34t24.5 25t33 -10q16 -14 9.5 -33
t-24.5 -24.5t-34 8.5z" />
    <glyph glyph-name="uni2713" unicode="&#x2713;" horiz-adv-x="570" 
d="M510 700h10l-315 -715l-165 315h10l150 -210z" />
    <glyph glyph-name="uni2E2E" unicode="&#x2e2e;" horiz-adv-x="490" 
d="M285 75q15 -14 15 -35t-15 -36q-14 -14 -35 -14t-36 14q-14 15 -14 36t14 35q15 15 36 15t35 -15zM270 195v-10h-20v10q0 70 -71 136q-4 4 -21 20t-23.5 22t-20.5 21.5t-20.5 25t-17 25t-15 28t-8 29t-3.5 33.5q0 79 57 129q58 51 148 51q79 0 131 -51q54 -50 54 -119
q0 -43 -18.5 -66.5t-44.5 -23.5q-20 0 -33.5 11.5t-13.5 30.5q0 18 9.5 28.5t20.5 14.5t20.5 15.5t9.5 29.5q0 38 -37 71q-35 34 -98 34q-58 0 -97 -41q-38 -41 -38 -104q0 -85 53 -156q4 -5 21 -26.5t23.5 -30t19.5 -28.5t18 -34t10 -34.5t5 -40.5z" />
    <glyph glyph-name="uni3008" unicode="&#x3008;" horiz-adv-x="440" 
d="M108 320l252 -530h-28l-252 530l252 530h28z" />
    <glyph glyph-name="uni3009" unicode="&#x3009;" horiz-adv-x="440" 
d="M360 320l-252 -530h-28l252 530l-252 530h28z" />
    <glyph glyph-name="uni300A" unicode="&#x300a;" horiz-adv-x="580" 
d="M248 320l252 -530h-28l-252 530l252 530h28zM108 320l252 -530h-28l-252 530l252 530h28z" />
    <glyph glyph-name="uni300B" unicode="&#x300b;" horiz-adv-x="580" 
d="M360 320l-252 -530h-28l252 530l-252 530h28zM500 320l-252 -530h-28l252 530l-252 530h28z" />
    <glyph glyph-name="testmark1" unicode="&#xe009;" horiz-adv-x="1020" 
d="M138 23l372 312l-397 -279q-8 10 -24 37l421 242l-440 -205q-6 13 -16 39l456 166l-469 -125q-2 20 -9 40l478 85l-484 -43q-1 9 -1 43h485l-484 42l6 42l478 -84l-469 125l13 41l456 -166l-440 205l19 37l421 -242l-397 278q12 20 25 34l372 -312l-343 343q3 3 9.5 8.5
t11.5 10.5t10 9l312 -371l-279 397q19 13 37 23l242 -420l-205 439q31 15 39 17l166 -456l-125 468q18 6 40 9l85 -477l-43 483q38 2 43 2v-485l42 483q20 -2 42 -6l-84 -477l125 468q16 -4 41 -12l-166 -456l205 439l38 -19l-243 -420l278 397q7 -4 34 -26l-312 -371
l343 343l28 -31l-371 -312l397 278q5 -8 23 -36l-420 -242l439 205q14 -29 17 -39l-456 -166l468 125q6 -24 9 -41l-477 -84l483 42q2 -38 2 -42h-485l483 -43q-1 -21 -6 -42l-477 85l468 -125q-4 -20 -12 -41l-456 166l439 -205q-14 -31 -19 -38l-420 243l397 -279l-26 -33
l-371 312l343 -343l-31 -28l-312 371l278 -397q-8 -5 -36 -23l-242 420l205 -439q-29 -14 -39 -17l-166 456l125 -468q-24 -6 -41 -9l-84 477l42 -483q-38 -2 -42 -2v485l-43 -483q-21 2 -42 6l85 477l-125 -468q-20 4 -41 12l166 456l-205 -439l-37 19l242 420l-279 -397
l-33 26l312 371l-343 -343q-17 17 -29 31z" />
    <glyph glyph-name="testmark2" unicode="&#xe00a;" horiz-adv-x="1020" 
d="M606 -141l-24 -4l-60 341v-346h-24v346l-60 -341l-24 4l60 339l-119 -323l-22 8l118 324l-173 -298l-21 12l172 298l-221 -264l-19 16l221 264l-264 -221l-16 19l264 221l-298 -172l-12 21l299 172l-325 -118l-8 23l326 119l-342 -60l-4 24l341 60h-346v24h346l-341 60
l4 24l342 -60l-326 119l8 23l325 -119l-299 173l12 21l298 -172l-264 221l16 19l264 -222l-221 265l19 16l221 -264l-172 298l21 12l172 -299l-118 325l23 8l120 -328l-61 344l24 4l60 -341v346h24v-346l60 341l24 -4l-61 -344l120 328l23 -8l-118 -325l172 299l21 -12
l-172 -298l221 264l19 -16l-221 -265l264 222l16 -19l-264 -221l298 172l12 -21l-299 -173l325 119l8 -23l-326 -119l342 60l4 -24l-341 -60h346v-24h-346l341 -60l-4 -24l-342 60l326 -119l-8 -23l-325 118l299 -172l-12 -21l-298 172l264 -221l-16 -19l-264 221l221 -264
l-19 -16l-221 264l172 -298l-21 -12l-173 298l118 -324l-22 -8l-119 323z" />
    <glyph glyph-name="_1" horiz-adv-x="0" 
 />
    <glyph glyph-name="CR" horiz-adv-x="333" 
 />
    <glyph glyph-name="copyleft" horiz-adv-x="590" 
d="M114 159q-74 76 -74 181q0 106 74 180q75 75 181 75q107 0 180 -75q75 -74 75 -180t-75 -181q-74 -74 -180 -74q-105 0 -181 74zM412 266l2 8l13 -4q-3 -13 -15 -35q-34 -65 -120 -65q-55 0 -96 35l-40 -48q61 -47 139 -47q95 0 162 67q68 68 68 163q0 100 -74 169
l-45 -54q8 -18 8 -32q0 -34 -30 -34q-17 0 -23 12l-140 -167q34 -40 85 -40q45 0 70.5 23.5t35.5 48.5zM65 340q0 -101 74 -169l42 50q-39 47 -39 119q0 77 43.5 123.5t113.5 46.5q59 0 93 -37l42 50q-64 47 -139 47q-95 0 -163 -68q-67 -67 -67 -162zM188 340q0 -51 20 -86
l155 185q2 8 2 12q0 17 -18 29.5t-52 12.5q-47 0 -77 -40t-30 -113z" />
    <glyph glyph-name="bitcoin" horiz-adv-x="545" 
d="M292 698v152h25v-156q75 -13 116.5 -56t41.5 -103q0 -38 -14.5 -67.5t-37.5 -46.5t-41 -26t-37 -14l-15 -3v-5q18 -2 57 -22q31 -15 50 -31q24 -20 41 -54.5t17 -73.5q0 -75 -47 -124t-131 -63v-155h-25v151q-8 -1 -37 -1h-18v-150h-25v150h-172v20h5q40 0 52.5 13
t12.5 52v530q0 39 -12.5 52t-52.5 13h-5v20h172v150h25v-150h18q5 0 37 -2zM255 360h-85v-275q0 -34 9.5 -47t35.5 -13h40q78 0 124 42.5t46 124.5q0 78 -49 123q-48 45 -121 45zM255 675h-40q-26 0 -35.5 -13t-9.5 -47v-230h85q63 0 109 38q46 39 46 107q0 67 -43.5 106
t-111.5 39z" />
    <glyph glyph-name="ruble" horiz-adv-x="550" 
d="M135 345h-105v25h105v245q0 39 -12.5 52t-52.5 13h-5v20h185q113 0 187 -44q73 -43 73 -131t-74 -135q-74 -45 -186 -45h-55v-45h200v-25h-200v-190q0 -39 12.5 -52t52.5 -13h5v-20h-200v20h5q40 0 52.5 13t12.5 52v190h-105v25h105v45zM250 675h-10q-26 0 -35.5 -13
t-9.5 -47v-245h55q78 0 134 36q56 38 56 119t-54.5 115.5t-135.5 34.5z" />
    <glyph glyph-name="caps_dash" horiz-adv-x="460" 
d="M390 345h-320v25h320v-25z" />
    <glyph glyph-name="caps_endash" horiz-adv-x="550" 
d="M470 345h-390v25h390v-25z" />
    <glyph glyph-name="caps_emdash" 
d="M520 345h-520v25h520v-25z" />
    <glyph glyph-name="caps_quoteleft" horiz-adv-x="570" 
d="M328 350l132 -190h-15l-190 190l190 190h15zM163 350l132 -190h-15l-190 190l190 190h15z" />
    <glyph glyph-name="caps_quoteright" horiz-adv-x="570" 
d="M315 350l-190 -190h-15l132 190l-132 190h15zM480 350l-190 -190h-15l132 190l-132 190h15z" />
    <glyph glyph-name="caps_singleleft" horiz-adv-x="405" 
d="M163 350l132 -190h-15l-190 190l190 190h15z" />
    <glyph glyph-name="caps_singleright" horiz-adv-x="405" 
d="M315 350l-190 -190h-15l132 190l-132 190h15z" />
    <glyph glyph-name="caps_at" horiz-adv-x="590" 
d="M284 120q43 0 67 65q24 64 24 155q0 90 -24 155t-67 65q-42 0 -61 -64q-18 -64 -18 -156t18 -156q19 -64 61 -64zM525 340q0 177 -68 304q-67 126 -162 126q-96 0 -163 -126q-67 -125 -67 -304t67 -304q67 -126 163 -126q45 0 86.5 32t72.5 89l21 -13q-75 -133 -180 -133
q-69 0 -128 61t-93 166q-34 103 -34 228t34 228q34 105 93 166t128 61q67 3 127 -59.5t94.5 -169t33.5 -226.5q0 -116 -28.5 -180.5t-71.5 -64.5q-30 0 -47.5 25t-17.5 70v5h-5q-3 -17 -12 -35q-31 -65 -88 -65t-96 69t-39 176q0 98 39 172q40 73 96 73q49 0 75.5 -40.5
t32.5 -80.5l2 -14h5l19 125h16v-365q0 -85 30 -85q23 0 44 62q21 61 21 153z" />
    <glyph glyph-name="zero.mono" 
d="M103 82q-63 97 -63 268q0 170 63 267q63 98 157 98t157 -98q63 -97 63 -267q0 -171 -63 -268t-157 -97t-157 97zM152 603q-42 -85 -42 -253q0 -167 42 -254q44 -86 108 -86q65 0 107 86q43 86 43 254t-43 253q-42 87 -107 87q-64 0 -108 -87zM224 314q-14 15 -14 36
t14 35q15 15 36 15t35 -15q15 -14 15 -35t-15 -36q-14 -14 -35 -14t-36 14z" />
    <glyph glyph-name="one.mono" 
d="M275 715h15v-620q0 -46 15 -61q16 -14 70 -14h55v-20h-340v20h55q54 0 70 14q15 15 15 61v495q0 30 -6 38q-6 7 -39 7h-55v20h15q61 0 88.5 12.5t41.5 47.5z" />
    <glyph glyph-name="two.mono" 
d="M40 0v10l147 164q132 147 169 217q39 71 39 149q0 67 -39.5 108.5t-105.5 41.5q-67 0 -107 -38q-38 -38 -38 -77q0 -22 9.5 -35.5t20.5 -18t20.5 -15.5t9.5 -29t-12 -30t-30 -12q-30 0 -49 27t-19 73q0 73 57 126q58 54 143 54q84 0 147 -51q63 -50 63 -124
q0 -69 -40 -125q-39 -57 -220 -259l-86 -96h247q46 0 66 13q22 13 43 62l15 -5l-31 -130h-419z" />
    <glyph glyph-name="three.mono" 
d="M250 715q100 0 155 -52q55 -51 55 -123q0 -38 -14 -68t-36 -48t-40 -27.5t-36 -14.5l-14 -4v-5q19 -2 54 -19q30 -15 47 -32q22 -20 38 -57t16 -80q0 -89 -63 -144q-62 -56 -162 -56q-88 0 -144 49q-56 50 -56 116q0 46 18 70.5t45 24.5q20 0 33.5 -11.5t13.5 -30.5
q0 -18 -9.5 -28.5t-20.5 -14.5t-20.5 -15.5t-9.5 -29.5q0 -38 40 -72q40 -33 110 -33q71 0 113 48.5t42 126.5t-42 126.5t-113 48.5h-70v25h70q65 0 105 41.5t40 108.5t-41 111t-104 44q-62 0 -101 -28.5t-39 -66.5q0 -18 9.5 -29.5t20.5 -15.5t20.5 -14.5t9.5 -28.5
q0 -19 -13.5 -30.5t-33.5 -11.5q-26 0 -44.5 23.5t-18.5 66.5q0 64 56 112t134 48z" />
    <glyph glyph-name="four.mono" 
d="M335 715h15v-490h130v-30h-130v-110q0 -39 12.5 -52t52.5 -13h5v-20h-200v20h5q40 0 52.5 13t12.5 52v110h-250v15zM290 589l-213 -364h213v364z" />
    <glyph glyph-name="five.mono" 
d="M455 740l-24 -100h-312l-26 -253q59 78 157 78q88 0 154 -63q66 -62 66 -177q0 -106 -64 -173q-63 -67 -161 -67q-88 0 -144 49q-56 50 -56 116q0 46 18 70.5t45 24.5q20 0 33.5 -11.5t13.5 -30.5q0 -18 -9.5 -28.5t-20.5 -14.5t-20.5 -15.5t-9.5 -29.5q0 -38 40 -72
q41 -33 110 -33q72 0 113.5 57t41.5 153t-45.5 152.5t-123.5 57.5q-52 0 -87 -23.5t-50 -48.5l-5 -8l-25 5l36 345h238q52 0 72.5 7t34.5 33h10z" />
    <glyph glyph-name="six.mono" 
d="M280 690q-74 0 -119 -98q-45 -100 -46 -267q58 90 160 90q89 0 144 -58q56 -59 56 -157q0 -88 -61 -152q-60 -63 -149 -63q-102 0 -161 85.5t-59 254.5q0 165 65 278q66 112 175 112q75 0 122 -46q48 -47 48 -99q0 -26 -12.5 -43t-31.5 -17q-18 0 -29.5 12.5t-11.5 31.5
q0 8 5 26.5t5 24.5q0 12 -3.5 24t-12.5 27t-31 24.5t-53 9.5zM265 390q-93 0 -150 -100q2 -148 41.5 -214t118.5 -66q54 0 92 53t38 137q0 89 -38.5 139.5t-101.5 50.5z" />
    <glyph glyph-name="seven.mono" 
d="M45 570l31 130h409v-10l-24 -34q-13 -22 -51 -93q-38 -72 -66 -142q-28 -71 -54 -176q-23 -101 -25 -202q0 -58 -36 -58t-38 56q0 30 4 49q14 75 42 158q25 74 61 151q61 127 112 210l20 31h-261q-45 0 -67 -13q-22 -14 -42 -62z" />
    <glyph glyph-name="eight.mono" 
d="M45 175q0 89 65 142q54 43 102 62q-67 39 -99.5 79t-32.5 92q0 78 55 121q56 44 125 44q70 0 125 -40t55 -110t-65 -115q-46 -33 -82 -47q25 -14 54 -32q18 -11 47 -34q31 -24 43 -42q38 -51 38 -110q0 -95 -65 -148q-64 -52 -155 -52q-81 0 -146 51q-64 51 -64 139z
M420 160q0 69 -55 117q-39 35 -118 81l-16 9q-21 -11 -49 -34q-21 -18 -48 -64q-24 -43 -24 -94q0 -83 45 -124q47 -41 110 -41q65 0 109 37q46 37 46 113zM135 570q0 -46 33 -80.5t108 -77.5q104 62 104 153q0 58 -35 91.5t-90 33.5q-53 0 -86.5 -34t-33.5 -86z" />
    <glyph glyph-name="nine.mono" 
d="M240 10q73 0 118 97q46 99 47 267q-60 -89 -160 -89q-89 0 -144 58q-56 59 -56 157q0 88 60 151q61 64 150 64q102 0 161 -85.5t59 -254.5q0 -165 -66 -278q-64 -112 -174 -112q-75 0 -122 46q-48 47 -48 99q0 26 12.5 43t31.5 17q18 0 29.5 -12.5t11.5 -31.5
q0 -8 -5 -26.5t-5 -24.5q0 -12 3.5 -24t12.5 -27t31 -24.5t53 -9.5zM255 310q92 0 150 100q-3 147 -42.5 213.5t-117.5 66.5q-54 0 -92 -53t-38 -137q0 -89 38.5 -139.5t101.5 -50.5z" />
    </font>
</defs>
</svg>
